<?xml version="1.0" encoding="UTF-8" standalone="no"?>
<!-- Created with Inkscape (http://www.inkscape.org/) -->

<svg
   xmlns:dc="http://purl.org/dc/elements/1.1/"
   xmlns:cc="http://creativecommons.org/ns#"
   xmlns:rdf="http://www.w3.org/1999/02/22-rdf-syntax-ns#"
   xmlns:svg="http://www.w3.org/2000/svg"
   xmlns="http://www.w3.org/2000/svg"
   xmlns:sodipodi="http://sodipodi.sourceforge.net/DTD/sodipodi-0.dtd"
   xmlns:inkscape="http://www.inkscape.org/namespaces/inkscape"
   version="1.1"
   id="svg21751"
   xml:space="preserve"
   width="816"
   height="816"
   viewBox="0 0 816 816"
   sodipodi:docname="ink-blot-svg.svg"
   inkscape:version="0.92.4 (5da689c313, 2019-01-14)"><metadata
     id="metadata21757"><rdf:RDF><cc:Work
         rdf:about=""><dc:format>image/svg+xml</dc:format><dc:type
           rdf:resource="http://purl.org/dc/dcmitype/StillImage" /><dc:title></dc:title></cc:Work></rdf:RDF></metadata><defs
     id="defs21755"><clipPath
       clipPathUnits="userSpaceOnUse"
       id="clipPath21767"><path
         d="M 0,612 H 612 V 0 H 0 Z"
         id="path21765"
         inkscape:connector-curvature="0" /></clipPath></defs><sodipodi:namedview
     pagecolor="#ffffff"
     bordercolor="#666666"
     borderopacity="1"
     objecttolerance="10"
     gridtolerance="10"
     guidetolerance="10"
     inkscape:pageopacity="0"
     inkscape:pageshadow="2"
     inkscape:window-width="1920"
     inkscape:window-height="1018"
     id="namedview21753"
     showgrid="false"
     inkscape:zoom="1.0404412"
     inkscape:cx="408"
     inkscape:cy="408"
     inkscape:window-x="-8"
     inkscape:window-y="-8"
     inkscape:window-maximized="1"
     inkscape:current-layer="g21759" /><g
     id="g21759"
     inkscape:groupmode="layer"
     inkscape:label="abstract-471-publicdomainvectors.org [Converted]"
     transform="matrix(1.3333333,0,0,-1.3333333,0,816)"><g
       id="g21761"><g
         id="g21763"
         clip-path="url(#clipPath21767)"><path
           d="m 224.621,130.846 c -2.16,0.897 -8.297,6.681 -9.506,2.378 3.414,2.279 6.862,-4.132 9.506,-2.378 m -20.593,11.091 c 0.296,-0.139 -1.623,-1.51 -1.585,0 0.443,-0.004 0.902,0.638 0,0.792 -0.011,-1.311 -2.197,-0.443 -2.378,-1.584 2.194,0.13 2.723,-1.217 1.585,-2.378 5.052,2.629 9.112,-3.846 12.676,-2.373 -3.278,2.125 -7.53,2.346 -10.298,4.751 0.064,-0.061 1.029,0.315 0,0.792 m -16.634,3.955 c 0.24,-3.234 -1.097,0.134 -3.166,-0.793 -0.493,-5.071 -1.394,-0.841 -1.585,-0.792 0.06,-0.012 -0.106,-0.992 -0.793,-0.789 -0.413,0.12 -2.223,2.524 -2.373,0.789 2.087,-1.39 -1.06,-3.305 -1.581,-0.789 -1.086,-1.014 -1.086,-3.741 0,-4.747 3.477,-0.353 3.462,1.554 3.954,2.374 1.683,-1.634 5.487,1.333 8.71,0.792 -0.222,2.144 -2.896,1.847 -3.166,3.955 m -21.378,9.505 c -0.076,-1.251 -2.025,-0.62 -1.585,-2.376 1.186,0.134 2.922,-0.279 3.166,0.792 -0.616,0.176 -1.563,0.018 -1.581,0.791 0.439,-0.002 0.894,0.639 0,0.793 m -2.377,2.374 c -2.322,-0.766 -1.781,0.699 -3.17,1.585 -0.624,0.398 -1.113,0.44 -1.581,0.792 -0.658,0.493 -0.283,0.79 -1.585,0.793 0.773,-0.003 -3.903,-1.547 -3.963,-1.585 -1.217,-0.793 -6.34,-8.034 -6.336,-7.92 -0.195,-4.737 3.723,-6.582 10.299,-7.129 3.026,1.194 3.06,5.389 6.336,6.332 0.834,3.316 -1.672,5.375 0,7.132 m 1.585,39.597 c -0.665,-1.239 -3.426,-4.409 -1.585,-5.54 -0.549,2.637 1.633,1.277 2.377,0.797 -0.312,2.411 2.081,4.029 -0.792,4.743 m -41.187,83.164 c -1.866,0.672 2.183,1.946 0.797,4.751 -1.574,0.012 -1.011,2.156 -3.17,1.585 -0.169,-0.889 -0.883,-1.235 -1.581,-1.585 -0.331,-1.908 1.442,-1.72 0.788,-3.959 -0.443,0 -0.901,-0.641 0,-0.792 0.252,2.621 2.449,-3.094 3.166,0 m 316.322,61.557 c -1.396,0.439 1.616,3.065 1.579,4.755 1.787,1.859 -0.655,-2.084 0,-3.958 -0.917,0.124 -1.406,-0.173 -1.579,-0.797 m 0,-12.672 c -2.08,2.059 -0.627,-1.276 -3.17,-0.788 v 2.373 c 2.165,-0.071 1.593,1.322 3.17,0 z m -3.962,-2.373 c -2.85,-1.225 0.2,-4.236 -3.166,-5.544 -2.091,2.148 2.735,4.086 1.582,7.917 0.964,-1.675 2.982,-2.298 3.169,-4.747 -0.972,0.342 -1.626,1.011 -1.585,2.374 M 413.431,270.02 c -1.787,0.589 -0.308,4.443 -0.792,6.335 3.68,-0.157 0.303,-4.367 0.792,-6.335 m -6.336,-11.083 c 1.656,2.302 2.002,5.911 3.17,8.709 0.77,-0.022 0.616,-0.969 0.793,-1.584 -1.976,-3.197 0.322,-5.999 -3.963,-7.125 m -1.634,-2.153 c -1.119,0.02 -2.434,-0.153 -2.648,0.778 0.267,0.657 0.515,1.431 0.733,2.235 1.186,-0.023 2.058,-0.358 2.757,-0.86 -0.083,-0.857 -0.395,-1.582 -0.842,-2.153 m -2.328,-5.772 h -1.585 c -0.143,0.676 0.307,0.751 0.788,0.793 0.15,0.679 -0.308,0.751 -0.788,0.792 0.348,1.179 1.017,-0.312 2.381,0 -0.151,-0.643 -0.796,-0.792 -0.796,-1.585 m 11.087,48.314 c -0.541,0.375 -0.616,-2.456 0,-1.585 -0.425,-0.6 -0.616,-0.691 -0.789,0 0.015,-0.067 -1.089,2.888 0.789,1.585 m -24.548,-53.857 c -1.172,-2.149 -5.003,-2.802 -7.864,-2.044 -0.586,1.037 -1.803,1.438 -3.373,1.499 -0.255,1.089 -0.755,1.953 -0.646,2.918 -0.057,-0.515 3.237,1.135 0,1.585 -2.217,1.487 1.25,-0.053 1.585,0 1.614,0.278 2.644,1.705 3.962,1.585 0.124,-0.924 1.442,-0.665 2.37,-0.792 0.815,-3.948 5.581,-3.925 9.506,-4.751 -0.019,0.773 -0.97,0.615 -1.581,0.788 0.387,0.305 0.69,0.488 0.953,0.601 0.305,-0.511 0.707,-0.954 1.165,-1.364 0.026,-1.097 -0.12,-2.497 0.259,-3.188 -2.34,0.823 -2.325,4.007 -6.336,3.163 m 0.789,-3.959 c 0.676,1.176 1.994,1.705 3.962,1.585 -0.672,-1.172 -1.994,-1.705 -3.962,-1.585 m 1.585,-3.17 c -0.395,-0.428 0.511,-0.946 0.792,-0.792 -3.52,-1.953 -5.194,-1.837 -9.502,-1.582 -0.244,0.958 2.287,2.734 2.37,0.793 1.097,0.071 3.095,3.091 1.585,3.166 1.817,0.555 4.822,0.503 8.717,0.796 0.503,-1.453 -3.369,-1.739 -3.962,-2.381 m -3.959,-7.129 c -2.081,1.127 1.668,3.013 3.17,3.17 -0.079,-2.035 -3.095,-1.126 -3.17,-3.17 m -9.502,6.337 c -0.894,0.814 -0.905,1.825 -0.691,2.891 0.894,-0.386 1.979,-0.575 3.534,-0.296 0.18,0.608 0.026,1.554 0.789,1.581 -0.004,0.334 -0.132,0.541 -0.196,0.815 1.116,-0.191 2.295,-0.323 2.9,-1.029 -1.942,-1.488 -3.587,-3.276 -6.336,-3.962 m 13.461,15.049 c -1.735,-2.419 -5.07,0.916 0,0 m 1.52,3.084 c -0.033,-0.35 -0.063,-0.7 -0.086,-1.045 -0.225,0.087 -0.451,0.184 -0.642,0.339 0.222,0.296 0.47,0.521 0.728,0.706 m -24.34,-43.647 c -0.015,0.462 -0.012,0.94 -0.061,1.386 1.247,0.019 1.638,-2.659 0.061,-1.386 m -3.317,-22.001 c -0.439,-2.291 -1.235,1.213 -2.37,0.789 0.023,0.323 3.463,0.511 0.789,3.17 0.079,0.563 0.601,0.68 1.202,0.721 -0.221,-0.214 -0.462,-0.383 -0.732,-0.503 0.66,-0.233 1.246,-0.564 1.795,-0.86 -0.342,-1.544 -1.296,-2.281 -0.684,-3.317 m -3.955,264.519 c 0.913,-1.172 0.913,-1.994 0,-3.17 -0.037,0.012 -0.059,0.034 -0.098,0.045 0.458,0.594 -0.014,1.893 -1.253,0.793 -0.609,0.582 -1.086,1.3 -1.654,1.919 0.181,0.484 0.362,0.972 0.564,1.454 0.015,-0.091 0.052,-0.151 0.06,-0.252 0.894,0.721 -0.045,1.78 1.585,3.17 1.172,-0.413 1.998,-1.172 3.17,-1.585 0.143,-1.728 -0.646,-2.517 -2.374,-2.374 m 4.747,-276.403 c -0.517,-2.373 -1.689,0.759 -3.162,0 0.113,1.976 2.678,0.234 3.162,0 m -3.958,-6.336 c -1.51,1.045 1.829,2.604 0,4.752 2.847,-0.56 1.119,-3.714 0,-4.752 m -0.789,7.921 c -2.482,2.615 1.945,4.924 0,0 m -1.292,13.724 c 0.399,0.117 0.819,0.218 1.164,0.388 0.079,-0.44 0.098,-0.948 0.128,-1.439 -0.578,0.202 -1.014,0.544 -1.292,1.051 m -2.67,-22.437 c 2.625,1.848 1.716,3.17 2.208,6.22 0.106,-0.256 0.327,-0.455 0.696,-0.545 0.803,-3.154 -0.147,-7.263 -2.904,-5.675 m -2.378,-7.913 c -2.696,1.728 4.282,4.605 1.585,6.332 0.444,2.291 1.233,-1.216 2.374,-0.793 -1.082,-2.084 -3.331,-3.001 -3.959,-5.539 m -2.377,7.913 c 3.549,-0.168 -3.001,-5.746 0,0 m -0.819,293.833 c -0.064,0.045 -0.161,0.042 -0.281,0.003 v 0.313 c 0.093,-0.098 0.18,-0.185 0.281,-0.293 z m -0.165,-1.814 c -0.03,0.252 -0.086,0.496 -0.105,0.751 0.075,-0.022 0.154,-0.045 0.237,-0.06 -0.031,-0.24 -0.068,-0.477 -0.132,-0.691 m 0.191,-3.388 c 0.144,-0.627 0.293,-1.243 0.429,-1.837 -0.139,-0.006 -0.282,-0.022 -0.429,-0.097 z m 0.887,10.419 c 0.601,-0.559 0.894,-1.142 -0.094,-1.262 -0.124,0.087 -0.266,0.154 -0.394,0.241 0.15,0.334 0.311,0.676 0.488,1.021 m 0.315,-12.458 c -0.315,0.815 -0.578,1.634 -0.803,2.445 1.45,-0.263 0.428,-2.978 2.771,-2.34 -0.368,-1.679 -1.066,-0.609 -1.968,-0.105 m 5.01,-1.003 c -0.202,-0.578 -0.412,-1.153 -0.623,-1.713 -0.6,0.354 -1.345,0.56 -2.419,0.444 0.673,0.721 2.093,1.491 3.042,1.269 m 0.865,5.863 c -0.011,-0.984 -0.053,-1.998 -0.184,-3.031 -0.575,-0.199 -1.108,-0.612 -1.345,-1.724 -1.634,1.011 -4.015,1.265 -3.963,3.963 1.015,1.081 3.404,0.788 5.492,0.792 m 0.819,4.417 c -0.147,-0.068 -0.256,-0.147 -0.293,-0.244 -0.189,-0.519 -0.286,-1.059 -0.361,-1.612 -1.299,1.578 -3.659,2.104 -4.864,3.775 1.397,0.071 4.495,-1.563 5.518,-1.919 m -8.684,-293.488 c -0.473,-0.086 -0.995,1.113 -0.789,1.581 1.195,2.799 1.495,-1.457 0.789,-1.581 m -2.374,-10.294 c -1.87,0.218 0.906,2.111 0.789,3.17 2.426,-0.781 -0.357,-2.674 -0.789,-3.17 m -6.336,-10.298 c 0.012,1.57 2.159,1.006 1.585,3.166 2.235,-0.654 2.047,1.115 3.955,0.793 -0.976,-2.194 -3.552,-2.788 -5.54,-3.959 m -3.17,-0.796 c -2.081,1.133 1.664,3.011 3.17,3.17 -0.079,-2.037 -3.091,-1.131 -3.17,-3.17 m -2.377,2.377 c -0.815,-1.765 -2.726,1.957 -2.374,3.963 2.562,0.285 4.564,3.748 7.129,1.584 -0.803,-2.306 -1.405,-5.07 -3.17,-5.547 0.053,0.011 -3.895,1.649 -1.585,0 m -5.544,0.793 c -0.225,1.276 0.751,1.359 0.79,2.377 h 1.584 c -0.127,-0.924 0.173,-1.413 0.796,-1.585 -0.244,-1.071 -1.986,-0.658 -3.17,-0.792 m 0,-1.585 c -2.741,-3.17 -3.928,1.133 -7.92,-0.789 1.499,-2.002 2.775,0.732 4.754,-0.796 -1.01,-2.419 -2.584,-0.399 -5.546,-1.577 -0.234,-1.244 1.922,-0.264 2.377,-0.797 1.111,-1.292 -4.342,-2.119 -6.336,-0.796 -1.909,0.33 -1.72,-1.443 -3.955,-0.789 1.318,0.751 2.768,2.929 -0.796,2.382 0.665,0.739 4.082,2.651 4.751,0.788 1.326,4.435 5.558,1.668 6.336,4.751 2.223,0.042 4.893,-0.717 3.169,-2.377 0.643,0.15 0.79,0.796 1.585,0.792 -0.356,0.702 -0.694,1.416 -1.585,1.585 1.844,2.302 3.054,-2.701 4.751,-3.166 -0.278,-1.112 -1.389,-0.068 -1.585,0.789 m -21.384,-2.374 c 1.148,2.584 1.772,1.994 4.758,1.585 0.158,-1.315 -5.923,-0.864 -1.589,-1.585 -0.518,-2.373 -1.69,0.754 -3.169,0 m 18.218,12.671 c 1.282,-0.781 1.822,-2.11 0.79,-3.169 -1.83,0.221 -1.815,2.118 -0.79,3.169 m 2.265,-4.232 c -1.349,-0.702 -2.065,-2.576 -3.058,-2.895 -1.107,-0.354 -3.079,1.569 -4.753,0 2.456,2.692 4.315,1.881 7.811,2.895 m -5.434,1.852 c -0.582,-0.733 -1.439,-1.195 -2.377,-1.578 -1.988,0.338 1.321,1.706 2.377,1.578 m -7.346,296.623 c -0.034,0.124 -0.057,0.221 -0.087,0.334 0.154,0.225 0.263,0.496 0.308,0.83 -0.173,-0.011 -0.323,-0.045 -0.485,-0.068 -0.236,1.154 -0.326,1.728 -2.11,2.869 0.454,0.128 1.078,0.087 1.389,0.354 1.056,0.049 1.378,0.894 -0.379,0.804 -1.555,0.236 -2.873,0.24 -4.079,0.128 -0.038,0.093 -0.093,0.173 -0.101,0.299 0.597,-0.063 0.672,0.144 0.567,0.425 1.307,0.147 3.733,-0.834 3.613,0.737 h -2.377 c -0.462,-0.136 -1.112,-0.083 -1.416,-0.376 -0.206,0.334 -0.466,0.675 -0.387,0.796 0.071,0.117 0.259,0.21 0.48,0.296 0.771,-0.299 2.656,0.222 3.697,0.072 1.746,-0.251 4.224,-0.451 5.55,-0.788 0.041,-0.012 0.031,-0.283 0.011,-0.582 -0.848,0.101 -1.487,-0.14 -1.817,-1.375 1.81,0.221 2.978,-0.192 3.17,-1.585 -1.619,0.451 -5.942,-0.237 -3.17,-1.585 -0.549,1.251 3.47,1.273 3.17,0.089 -0.023,-0.037 -0.053,-0.067 -0.079,-0.104 -2.186,-0.158 -3.256,-1.438 -5.468,-1.57 m 4.18,-299.785 c 0.795,-2.385 -1.766,-1.406 -3.17,-1.585 0.195,1.393 1.363,1.809 3.17,1.585 m -8.714,-2.378 h -1.581 v 1.589 h 1.581 z m -3.169,3.17 c 1.272,2.362 3.252,-0.128 4.758,0 1.716,0.146 3.5,3.332 5.54,0.792 -1.315,0.121 -6.904,-3.166 -10.298,-0.792 m 26.245,3.11 c -0.789,-0.549 -1.578,-1.097 -2.487,-1.529 0.143,1.983 -1.213,2.479 -2.374,3.169 0.166,0.358 0.316,0.568 0.466,0.7 0.279,-0.158 0.489,-0.346 0.796,-0.489 0.842,-0.383 1.695,-1.337 2.378,-1.581 0.424,-0.15 0.815,-0.172 1.221,-0.27 m 10.981,4.022 c 1.405,-0.586 0.114,-1.442 0,-2.382 -1.412,0.58 -0.116,1.435 0,2.382 m 0,1.577 c -0.075,-0.455 -0.277,-0.559 -0.458,-0.5 0.102,0.189 0.23,0.358 0.324,0.553 0.052,-0.012 0.071,-0.053 0.134,-0.053 m -2.58,287.921 c 0.647,0.692 1.86,0.812 2.776,1.229 -0.165,-0.722 -0.316,-1.454 -0.992,-1.664 -0.642,0.138 -1.216,0.285 -1.784,0.435 m 0.995,-295.838 c -0.281,-1.243 -1.393,0.691 -1.581,-0.792 -1.971,0.116 -0.236,2.677 0,3.166 1.138,-0.18 0.275,-2.363 1.581,-2.374 m -0.837,4.748 c 0.3,0.303 0.597,0.619 0.868,0.96 0,-0.333 0,-0.664 -0.031,-0.96 z m 6.508,290.591 c 0.095,-1.138 -0.886,-1.566 -1.423,0.507 0.425,-0.221 0.981,-0.308 1.423,-0.507 m -1.712,2.441 c 0.202,-0.135 0.372,-0.274 0.533,-0.413 -0.158,0.019 -0.315,0.034 -0.488,0.03 -0.014,0.132 -0.034,0.24 -0.045,0.383 m 0.796,-286.697 c -0.199,-0.856 -1.345,-0.766 -2.407,-0.766 0.199,0.703 0.327,1.424 0.421,2.148 0.706,-0.417 1.025,-1.22 1.986,-1.382 m -39.586,299.392 c 0.368,0.131 0.639,0.353 0.744,0.691 0.304,0.158 0.579,0.345 0.605,0.503 0.026,0.147 -0.116,0.511 -0.282,0.951 2.941,0.067 5.777,0.24 7.625,-0.583 -0.631,0.286 -1.608,-0.785 -1.578,-0.792 0.263,-0.049 0.53,-0.049 0.796,-0.079 -0.079,-0.094 -0.195,-0.154 -0.225,-0.293 1.265,-0.338 2.013,-0.162 2.606,0.168 1.728,0.039 3.231,0.238 3.948,0.204 0.105,-0.004 2.114,-1.525 2.376,-1.585 2.409,-0.53 5.29,-0.008 6.333,0 1.244,0.014 2.426,-1.657 3.962,-0.789 -1.957,-2.291 2.397,-1.405 3.963,0 -2.133,0.931 -5.938,0.455 -8.714,1.581 -0.18,0.075 -0.307,0.71 -0.488,1.153 1.198,0.071 2.366,0.113 2.648,-0.732 0.241,2.877 -4.225,1.066 -5.543,2.381 -0.094,-0.469 -0.035,-0.789 0.093,-1.037 -0.593,-0.004 -1.194,-0.018 -1.795,-0.056 -0.079,0.507 -0.131,1.037 -0.337,1.416 3.548,-0.068 6.944,0.007 9.381,-0.747 1.15,-0.354 2.971,-2.299 3.17,-2.378 0.879,-0.338 2.336,0.436 3.17,0 2.239,-1.161 1.604,-2.922 2.373,-3.166 0.887,0.083 1.233,-1.153 1.585,0 -0.443,0 -0.901,0.638 0,0.797 2.055,-0.94 2.698,-1.195 3.711,-2.13 0.12,-1.352 0.297,-2.584 0.507,-3.715 -0.161,-0.341 -0.35,-0.664 -0.537,-0.98 0.053,0.755 -0.608,1.367 -2.096,1.277 -0.323,-1.908 1.443,-1.724 0.789,-3.962 -0.443,0.128 -0.766,0.128 -1.037,0.082 0.008,0.117 0.038,0.211 0.03,0.342 -1.768,0.349 -1.302,-0.758 -3.169,-1.584 0.259,0.116 -0.278,0.901 -0.792,0.792 -0.425,-0.094 -0.662,-1.702 -1.579,-1.585 -1.359,0.176 -2.625,4.293 -6.339,3.17 0.042,1.009 1.014,1.096 0.789,2.376 -1.089,0.031 -1.736,-0.375 -2.374,-0.791 v -1.585 c 1.078,-0.286 4.296,-1.03 5.296,-2.686 -1.326,0.429 -2.697,0.838 -4.293,1.206 -0.774,0.582 -1.529,1.183 -2.587,1.476 -0.035,-0.346 -0.095,-0.665 -0.193,-0.943 -0.555,0.09 -1.126,0.177 -1.75,0.251 -0.315,0.583 -0.59,1.097 0.358,1.488 0,-0.44 0.641,-0.898 0.792,0 -2.013,1.419 -3.862,-0.878 -5.544,1.584 -0.593,-2.44 2.175,-1.524 1.585,-3.965 -0.841,-0.098 -1.615,-1.134 -2.19,-0.33 1.266,0.21 2.468,1.585 0.822,2.291 -0.6,-2.074 -1.719,0.345 -3.349,0.172 -0.015,0.082 -0.037,0.154 -0.037,0.248 3.406,0.323 -0.102,0.514 0,1.584 0.12,1.195 3.132,0.267 3.229,1.207 0.879,0.044 1.743,0.063 2.532,-0.045 0.36,2.008 -4.139,3.154 -4.748,1.585 1.134,-0.94 0.214,-0.124 -0.795,0 -0.669,0.079 -0.999,-0.725 -1.465,-0.771 -0.031,0.012 -0.069,0.02 -0.098,0.026 0.06,0.155 0.773,1.195 -0.022,1.533 0.413,-0.173 -2.224,-0.638 -3.955,0 -0.545,0.195 -1.424,1.566 -1.589,1.585 -0.804,0.09 -1.563,-0.233 -2.28,-0.537 -0.094,0.056 -0.154,0.105 -0.312,0.168 -2.238,0.655 -2.047,-1.119 -3.962,-0.792 -0.041,1.014 -1.014,1.097 -0.785,2.377 3.365,0.275 1.682,1.21 1.021,1.973 m -7.056,5.555 c 1.926,1.111 6.336,-0.256 7.53,1.592 1.239,-0.601 2.614,-1.067 3.076,-2.445 -1.015,-0.068 -1.953,-0.105 -2.806,-0.162 0.105,0.26 0.278,0.482 0.605,0.612 -4.098,1.034 -5.912,-0.248 -8.405,0.403 m 0.758,-323.162 c -0.15,0.402 -0.319,0.799 -0.507,1.202 0.368,0.094 0.77,0.214 1.247,0.383 -0.218,-2.253 -0.285,-1.946 -0.74,-1.585 m 13.983,322.759 v -0.003 c -0.012,-0.011 -0.023,-0.023 -0.034,-0.034 0.011,0.011 0.022,0.027 0.034,0.037 m 3.178,-3.011 c -0.042,0.018 -0.08,0.045 -0.121,0.063 -0.135,0.285 -0.282,0.357 -0.349,0.188 -0.267,0.15 -0.527,0.304 -0.763,0.508 0.736,0.461 1.36,1.001 1.233,-0.759 m 3.158,-0.158 c -0.037,-0.143 -0.004,-0.271 0.011,-0.406 -0.691,0.008 -1.344,0.079 -1.972,0.203 0.485,0.237 1.078,0.365 1.961,0.203 m 1.416,1.149 c -0.451,-0.751 -1.724,-0.474 -2.472,0.143 0.823,-0.068 1.65,-0.117 2.472,-0.143 M 301.847,159.837 c -0.105,0.35 -0.188,0.71 -0.259,1.07 0.529,-0.15 1.111,-0.262 1.758,-0.18 -0.041,-0.755 -0.684,-0.909 -1.499,-0.89 m -2.78,0.173 c -0.029,0.33 -0.041,0.649 -0.014,0.942 0.421,0.537 0.995,0.44 1.713,0.21 0.093,-0.413 0.183,-0.83 0.277,-1.272 -0.69,0.071 -1.4,0.165 -1.976,0.12 m -4.757,-6.989 c -0.02,-0.049 -0.039,-0.095 -0.053,-0.144 -0.726,0.763 -1.379,1.556 -1.98,1.829 0.571,1.273 1.502,2.295 2.033,3.857 0.086,0.259 0.146,0.541 0.228,0.804 0.15,-0.417 0.354,-0.804 0.887,-1.013 0.307,-0.121 0.548,-0.159 0.8,-0.211 -0.643,-1.735 -1.364,-3.482 -1.915,-5.122 m -1.747,-4.718 c -0.226,0.083 -0.459,0.176 -0.691,0.27 -0.166,0.601 -0.846,1.893 -0.726,2.863 0.004,0.063 0.58,1.577 0.767,2.301 0.916,-0.124 1.563,-0.781 2.122,-1.461 -0.462,-1.333 -0.969,-2.651 -1.472,-3.973 m -3.797,-10.328 c -1.668,-5.12 -2.821,-10.619 -4.747,-15.838 -0.924,-2.506 -2.393,-4.631 -3.174,-7.129 -0.759,-2.448 -0.774,-5.42 -1.581,-7.921 -0.481,-1.495 -1.795,-3.083 -2.37,-4.751 -0.699,-1.994 -1.067,-3.598 -1.589,-5.547 -1.386,3.079 1.521,6.227 2.382,9.506 0.934,3.616 0.641,7.518 1.577,11.087 0.112,0.424 1.494,1.288 1.581,1.585 0.466,1.524 1.089,3.842 1.585,5.547 1.772,6.047 1.957,10.301 6.336,13.461 -0.049,2.297 -0.086,6.253 0.796,8.709 -0.094,-0.259 0.296,0.691 0.575,1.468 0.759,-0.116 1.453,-0.563 2.065,-0.822 -1.202,-3.121 -2.415,-6.234 -3.436,-9.355 m 1.746,11 c -0.041,0.007 -0.082,-0.003 -0.127,0 0.014,0.072 0.007,0.109 -0.031,0.087 0.007,0.007 0.098,-0.049 0.158,-0.087 m -2.535,0.087 c 1.506,4.758 2.832,8.394 3.955,12.217 0.221,-0.12 0.439,-0.221 0.657,-0.327 -0.304,-1.795 -0.109,-3.906 -0.653,-5.555 -0.135,-0.413 -1.492,-1.288 -1.582,-1.584 -0.51,-1.679 -0.406,-3.993 -1.588,-5.544 0.327,-2.858 -1.443,-1.085 -0.789,0.793 m 0.894,329.673 c -0.928,-0.128 -0.665,-1.446 -0.793,-2.374 -0.635,0.417 -1.284,0.82 -2.373,0.789 0.627,1.563 2.768,2.847 3.962,1.585 1.51,-0.547 -0.856,-1.231 -0.796,0 m -8.71,-1.585 c 0.443,1.646 1.235,1.679 2.378,0.796 1.303,1.961 -1.318,2.183 -2.378,3.163 -0.266,0.248 0.259,1.329 0,1.585 -0.266,0.263 -1.318,-0.263 -1.585,0 0.623,-0.628 0.403,4.011 -1.581,0.792 -2.313,0.883 1.007,2.574 2.374,2.378 0.281,-3.944 4.168,-4.278 6.336,-6.34 -1.356,-1.285 -2.881,-2.396 -5.544,-2.374 m -1.585,0.796 c 0.151,0.635 0.796,0.785 0.793,1.578 -2.437,0.593 -0.966,-2.73 -3.963,-1.578 -1.16,3.009 3.542,0.151 2.381,3.163 1.172,-0.413 1.995,-1.168 3.166,-1.585 -0.149,-0.638 -0.796,-0.789 -0.792,-1.578 z m -0.889,-316.209 c -1.052,-4.518 -2.067,-6.543 -3.689,-9.75 -1.367,1.341 -3.166,2.328 -3.917,1.612 1.431,-0.602 2.275,-1.792 3.357,-2.739 -1.164,-2.377 -1.821,-4.071 -3.676,-6.553 -0.433,-0.568 -0.865,-3.054 -2.378,-2.37 -0.338,0.931 -0.676,1.979 -1.032,3.068 0.289,-0.199 0.686,-0.297 1.355,-0.116 0.248,1.074 1.127,1.513 0.793,3.166 -0.943,-0.293 -2.07,-0.402 -2.926,-0.774 -0.586,1.63 -1.259,3.317 -2.148,4.95 2.877,1.589 4.116,1.942 6.336,5.54 0.214,0.353 0.424,0.782 0.627,1.22 3.109,-1.34 1.577,-3.537 3.65,-5.388 1.724,1.678 -1.524,6.508 -3.455,5.798 0.563,1.382 0.924,3.264 0.875,5.683 1.66,-0.823 2.625,2.096 4.954,1.982 1.156,0.283 1.54,-0.21 1.931,-0.72 -0.12,-1.503 -0.293,-3.024 -0.657,-4.609 m -6.273,4.255 c -0.026,0.436 -0.004,0.808 -0.064,1.285 -0.037,0.286 -0.082,0.605 -0.127,0.916 0.134,0.161 0.251,0.346 0.443,0.454 1.311,-1.329 0.601,-1.904 -0.252,-2.655 m 1.619,314.324 c -0.447,1.65 -2.262,2.562 -0.793,3.963 1.972,0.12 2.452,-1.247 3.959,-1.585 0.098,-1.412 -1.949,-0.256 -1.585,0 -1.183,-0.834 0.082,-2.047 -0.789,-3.17 -0.875,-1.127 -3.797,0.955 -3.166,-1.578 -2.527,1.241 0.991,4.752 2.374,2.37 m 19.008,3.963 c 2.948,-0.605 0.432,-3.756 -2.374,-3.17 0.319,1.525 3.068,0.627 2.374,3.17 m 0.792,-6.333 h 1.581 c -0.883,-0.979 -0.69,-1.63 0.793,-1.585 1.134,2.337 0.612,-1.84 -1.581,-0.796 -0.022,0.771 -0.97,0.617 -1.585,0.796 0.15,0.639 0.796,0.789 0.792,1.585 m -31.68,-3.966 c -2.133,-2.001 -3.094,3.783 0,0 m -11.087,-3.958 c -2.343,0.691 2.396,0.631 0.792,3.17 2.739,-0.586 1.165,-3.02 -0.792,-3.17 m -0.793,-3.167 c 0.346,0.974 1.015,1.624 2.378,1.585 -0.345,-0.975 -1.014,-1.629 -2.378,-1.585 m -3.958,0 c -2.508,-0.818 -6.921,-0.236 -7.92,0 0.596,3.363 6.043,1.875 7.127,4.752 1.345,-0.518 0.497,-1.818 -0.792,-1.585 0.729,-2.156 2.475,1.108 4.751,0 1.003,-2.313 -1.93,-2.764 -3.166,-3.167 m -6.43,-300.295 c 0.008,0.138 0.008,0.278 0.015,0.417 0.098,0.034 0.222,0.108 0.301,0.089 -0.143,-0.191 -0.233,-0.348 -0.316,-0.506 m -14.264,-2.453 c 0.165,-0.541 0.368,-0.996 0.586,-1.405 -0.706,0.102 -1.353,0.222 -1.848,0.406 -0.252,0.09 0.489,0.924 0.514,1.348 0.256,-0.112 0.484,-0.248 0.748,-0.349 m -17.896,25.13 c -0.135,0.229 -0.279,0.451 -0.421,0.672 -0.357,1.131 -0.672,2.303 -0.939,3.523 1.085,-0.77 1.694,-2.013 1.36,-4.195 m -5.547,-5.54 c -2.389,2.287 0.059,4.699 -2.374,6.336 0.128,0.924 1.45,0.669 2.374,0.789 -0.557,-3.718 3.207,-3.129 3.962,-5.544 -0.117,-1.731 -1.994,-1.697 -3.962,-1.581 m 3.744,278.407 c -0.346,-0.976 -1.018,-1.629 -2.377,-1.584 -0.365,1.69 1.134,1.51 2.377,1.584 m -8.965,-5.994 c -1.029,-1.689 -3.26,-2.46 -0.537,0.452 0.281,0.303 0.476,0.472 0.619,0.574 -0.029,-0.342 -0.022,-0.721 -0.082,-1.026 m -3.707,-9.058 c -0.86,0.199 -0.537,1.577 -1.581,1.585 0.022,0.773 0.969,0.616 1.581,0.796 -0.417,0.638 -0.822,1.285 -0.789,2.374 3.617,0.03 0.041,-2.78 0.789,-4.755 m -0.789,-0.789 c 2.783,-2.532 -1.634,-4.237 0,0 m -7.132,-26.929 c 0.338,1.514 2.261,1.435 1.585,3.959 1.821,-0.616 0.77,-4.905 -1.585,-3.959 M 181.377,226.46 c 3.433,-0.326 -0.826,-4.597 0,0 m -1.003,196.833 c -0.639,0.421 -1.288,0.834 -2.377,0.796 0.901,1.739 2.651,2.629 3.17,4.751 3.237,-0.837 -0.781,-2.324 -0.793,-2.377 -0.319,-1.274 1.739,-2.265 0,-3.17 m -2.163,-194.455 h -1.581 c -0.226,1.28 0.751,1.367 0.788,2.373 1.645,-0.439 1.683,-1.232 0.793,-2.373 m -22.396,130.31 c -1.171,0.931 -3.538,0.68 -3.163,3.166 1.184,-1.254 3.242,-0.585 3.959,0.789 2.794,-1.364 -2.283,-1.292 -0.796,-3.955 m -6.333,-26.136 c -3.131,1.933 3.412,0.72 1.585,3.958 1.143,-0.18 0.279,-2.363 1.585,-2.373 0.564,-2.149 -3.732,0.563 -3.17,-1.585 m 117.214,152.852 c -2.778,-0.143 -2.602,2.674 -4.755,3.17 0.147,1.333 3.768,-0.372 3.17,-2.382 1.526,0.338 2.855,-0.541 1.585,-0.788 m 19.801,13.46 c -0.132,-4.371 0.722,-0.574 1.581,-0.788 0.556,-0.142 0.417,-1.961 0.793,-2.378 0.124,-0.138 0.578,-0.3 1.081,-0.514 -0.161,-0.225 -0.311,-0.455 -0.454,-0.687 -1.686,1.303 -5.033,0.935 -5.375,3.579 1.011,0.041 1.094,1.014 2.374,0.788 m -3.166,3.17 c 1.866,2.547 3.196,-2.786 0,0 m -0.792,0.797 c -1.045,0.273 -1.247,1.39 -2.378,1.577 0.323,1.976 3.068,0.045 2.378,-1.577 m 10.068,-4.162 c -0.224,-0.342 -0.488,-0.691 -0.765,-1.044 -0.425,0.797 -0.755,1.601 -1.383,2.036 1.052,0.552 1.684,-0.357 2.148,-0.992 M 445.903,378.524 c 0.812,-3.497 1.589,-7.027 2.047,-10.877 h -0.789 c -0.879,-1.138 -0.852,-1.93 0.797,-2.374 -0.012,0.35 0.078,0.598 0.146,0.869 0.15,-1.65 0.203,-3.396 0.18,-5.217 -0.322,-0.624 -0.6,-1.266 -0.837,-1.923 -0.966,0.702 0.222,2.568 0.037,3.681 -0.303,1.843 -1.408,2.97 -1.581,4.751 -0.435,4.401 0.188,9.062 -1.585,12.671 0.865,-0.195 0.537,-1.574 1.585,-1.581 m 9.712,-27.086 c -0.074,0.048 -0.12,0.112 -0.21,0.154 0,-0.354 -0.134,-0.816 -0.301,-1.326 -0.006,-0.015 -0.01,-0.031 -0.018,-0.045 -0.912,-1.563 -2.952,-2.739 -4.391,-4.113 -0.12,0.263 -0.344,0.514 -0.833,0.736 0.796,0.008 0.992,1.389 0,1.581 -0.549,-2.392 -2.907,-7.079 -1.585,-8.709 -0.143,0.931 0.094,1.758 0.469,2.501 -0.289,-1.622 -0.304,-3.321 -0.717,-5.071 -0.36,1.83 -1.405,3.482 -2.922,4.155 -0.575,-2.163 1.578,-1.597 1.585,-3.17 -2.539,-0.549 -0.638,-1.652 -0.789,-2.374 -0.083,-0.405 -1.757,-0.684 -1.585,-1.585 0.113,-0.582 0.745,-1.367 1.502,-1.904 -0.082,-0.387 -0.165,-0.782 -0.244,-1.052 -0.011,-0.041 -0.018,-0.082 -0.033,-0.123 -1.672,0.442 -0.669,1.731 -2.021,3.872 1.187,2.309 2.231,4.68 -0.789,5.539 -0.758,-1.472 2.374,-2.648 0,-3.162 -2.419,2.809 1.915,3.662 0,6.332 1.142,-0.886 1.931,-0.853 2.374,0.797 -0.961,0.086 -1.878,0.236 -1.585,1.581 -0.676,1.701 1.443,1.847 1.585,3.166 0.274,2.55 -2.945,5.599 0,7.128 v -5.543 c 1.435,0.083 1.758,1.277 1.881,2.67 0.065,-0.289 0.079,-0.582 0.173,-0.871 0.455,0.079 0.868,0.285 1.296,0.454 -0.075,-0.267 -0.139,-0.507 -0.18,-0.668 -0.496,-1.939 -0.969,-5.649 0.788,-4.751 -0.417,3.151 1.206,4.262 1.533,6.666 1.322,1.082 2.404,2.52 3.08,4.135 0.27,-1.863 0.022,-4.237 0.931,-2.884 -0.323,2.317 0.879,3.759 0.792,5.547 -0.041,0.803 -0.514,1.082 -0.961,1.487 -0.056,1.304 -0.469,2.502 -1.224,3.531 -0.342,1.765 -0.785,3.527 -2.566,4.485 -0.112,-2.074 0.387,-3.528 0.865,-5.007 -0.816,-0.924 -1.646,-1.991 -2.378,-3.152 -0.082,2.983 0.38,5.972 -0.072,8.947 -0.665,4.465 -3.29,8.818 -5.543,13.468 -2.569,5.295 -4.349,8.912 -7.917,11.875 1.209,-0.938 1.431,-0.307 2.377,0 -1.483,-0.488 1.063,1.86 2.377,0 -2.658,0.136 -1.028,-3.064 2.374,-3.166 0.237,1.559 -1.07,1.567 -1.585,2.37 3.449,-0.195 4.2,-2.944 5.544,-3.951 0.41,-0.307 0.481,-1.172 1.585,-0.796 -0.27,1.795 -1.934,3.283 -3.309,4.662 1.63,0.517 3.102,3.011 4.575,4.262 1.284,1.093 3.917,0.774 3.162,3.17 -4.008,-0.976 -7.56,-2.419 -9.062,-5.916 -0.039,0.057 -0.083,0.109 -0.121,0.162 -0.875,1.394 0.06,0.845 -1.584,1.585 -0.504,0.225 -1.158,1.93 -1.579,2.369 -0.269,0.283 -0.525,1.341 -0.792,1.585 -0.751,0.681 -2.38,0.166 -3.17,0.793 -0.964,0.77 -0.653,2.521 -1.584,3.17 -2.739,1.911 -7.685,1.247 -7.917,5.543 1.528,-1.468 0.619,-1.449 3.166,-0.796 0.165,2.81 -3.718,1.571 -3.166,4.755 1.475,0.759 2.647,-2.366 3.166,0 -1.646,0.653 -3.14,1.304 -3.959,3.17 -0.872,1.964 0.335,2.592 0,3.162 -0.511,0.868 -2.622,1.412 -3.17,2.382 0.184,-0.323 0.586,1.427 0,2.373 -0.233,0.376 -1.217,1.142 -1.581,1.585 -0.538,0.661 -0.489,2.614 -1.581,0.793 0.548,-1.146 1.088,-4.357 -0.796,-3.963 0.976,-1.397 1.543,-3.207 3.166,-3.958 -2.694,-0.842 2.204,-0.248 0.792,-2.374 -1.089,-0.038 -1.739,0.372 -2.373,0.792 0.469,-1.641 -0.981,-5.201 0.792,-5.547 0.304,1.217 0.95,0.116 0,-0.789 1.393,-0.458 4.65,0.954 4.751,-0.788 -0.931,-1.607 -3.906,0.653 -5.543,0 -0.564,-0.229 0.296,-1.652 -0.789,-1.593 -0.21,0.015 -1.743,1.42 -3.17,1.593 -4.06,0.473 -5.319,1.19 -7.925,2.37 2.543,3.954 -2.689,3.199 -3.958,5.543 1.968,1.033 3.29,-2.325 3.958,0 -1.405,0.702 -2.013,2.212 -4.747,1.581 1.57,1.33 -2.468,6.629 -4.755,3.966 3.553,-0.529 0.639,-0.022 1.585,-2.381 0.008,-0.015 1.434,-0.57 1.577,-0.788 0.512,-0.722 -0.029,-2.024 0.797,-2.378 h -3.17 c -0.612,3.347 -4.012,7.241 -3.162,9.502 1.652,-0.488 2.974,-4.06 3.958,-0.788 -3.034,-0.395 -2.528,2.753 -6.336,1.585 1.017,1.866 -0.109,1.472 0.789,3.954 -4.698,2.431 -9.941,4.312 -11.876,9.51 -1.19,0.132 -2.926,-0.285 -3.17,0.789 4.083,1.201 -2.452,4.007 -2.377,6.332 1.048,3.339 3.936,0.958 6.031,0.346 0.117,-0.331 0.324,-0.647 0.778,-0.92 -0.057,0.251 -0.057,0.517 -0.034,0.784 0.465,-0.011 0.864,0.143 1.142,0.586 -0.364,0.034 -0.702,0.101 -0.992,0.215 0.308,1.178 0.932,2.411 0.807,3.417 0.252,-0.233 0.56,-0.41 0.981,-0.466 -0.165,1.304 0.627,3.564 -1.142,3.261 0.008,0.044 0.019,0.071 0.031,0.124 0.417,0.033 0.627,0.273 0.751,0.6 0.398,-0.158 1.003,-0.195 1.945,-0.022 -2.073,2.343 2.775,3.86 0.789,5.543 -0.098,-1.187 -0.958,-1.615 -1.886,-1.979 0.102,1.608 0.361,3.211 0.672,4.815 0.406,-0.181 0.812,-0.346 1.218,-0.458 1.585,-0.44 4.059,-0.035 5.547,-0.793 0.552,-0.286 -0.102,-1.281 0.789,-1.585 -0.095,0.03 0.773,1.003 1.585,0.797 2.294,-0.605 4.491,-3.298 6.336,-2.382 -1.229,0.211 -0.553,1.739 0,2.382 -1.011,0.916 -4.114,0.529 -5.54,1.581 -0.196,0.138 0.195,1.505 0,1.581 -1.142,0.443 -2.776,-0.275 -3.966,0 -0.305,0.071 -1.946,1.468 -2.374,1.585 -0.962,0.266 -1.935,0.435 -2.892,0.547 1.419,5.976 3.193,11.933 1.777,17.882 -0.523,-2.118 -0.335,-4.946 -1.585,-6.336 -0.631,4.064 1.671,5.195 1.585,8.713 -3.29,-0.488 -1.728,-4.183 -2.378,-7.124 -0.654,-2.986 -4.068,-6.667 -1.585,-8.721 0.387,0.939 0.845,1.799 1.585,2.385 0.282,-2.284 -0.188,-4.545 -0.672,-6.723 -2.063,0.097 -3.978,-0.105 -5.337,-0.623 0.721,0.935 0.777,1.622 -0.112,2.091 0.484,1.98 1.528,4.891 0.578,5.255 -0.297,-1.318 -2.153,-3.887 -1.45,-5.529 -0.586,-1.852 -0.076,-1.693 0.984,-3.402 1.532,0.968 3.136,0.214 4.769,-0.586 -0.323,-1.915 -0.375,-3.726 0.395,-5.378 -0.759,-0.297 -1.551,-0.56 -1.998,-1.165 0.297,-0.131 0.356,-0.473 0.405,-0.856 -0.281,-0.77 -0.371,-1.72 -0.348,-2.299 -0.023,-0.007 -0.035,-0.003 -0.057,-0.011 -0.087,-0.684 -0.041,-1.243 0.075,-1.724 -0.124,0.12 -0.222,0.248 -0.398,0.354 0.431,-1.21 -0.076,-2.352 -0.485,-3.381 -1.9,0.473 -5.731,-0.991 -6.324,0.789 -0.098,1.762 5.145,2.148 2.377,3.962 0.342,-2.223 -2.948,1.987 -3.166,-0.792 3.695,-2.588 -1.473,0.262 -1.585,-2.378 1.42,0.105 1.856,-0.784 1.585,-2.369 -0.891,-0.083 -1.232,1.149 -1.585,0 0.954,-0.173 0.488,-0.883 0,-1.593 2.118,0.59 0.924,-1.42 1.585,-2.374 0.676,-0.984 3.129,-1.393 2.374,-3.162 -3.192,-0.297 -3.178,2.629 -5.544,3.162 -0.165,-0.953 -0.879,-0.488 -1.585,0 -0.075,-1.239 0.106,-2.741 -1.581,-2.373 1.153,2.497 -1.089,1.097 -3.095,0.901 -0.214,0.454 -0.77,0.739 -1.363,0.199 -0.474,0.206 -0.879,0.548 -1.082,1.273 1.687,-1.697 4.308,-0.289 4.747,1.585 -3.181,0.962 -5.799,-2.096 -6.332,0.789 1.074,5.438 4.883,3.178 7.125,5.547 -0.965,0.095 -1.878,0.237 -1.585,1.585 0.796,-0.003 0.946,0.642 1.585,0.797 0.177,-3.632 1.476,0.423 3.166,0.788 0.864,0.184 1.254,-1.232 1.585,0 -1.06,0.518 -1.473,1.694 -1.585,3.166 1.134,-0.188 1.337,-1.307 2.374,-1.581 0.894,2.49 0.075,1.792 0,4.751 -4.038,0.875 -4.004,-2.332 -5.54,-3.958 2.129,0.544 1.528,-1.638 2.37,-2.378 -3.181,-0.811 -3.515,1.228 -4.748,2.378 0.12,-1.968 0.151,-3.846 -1.585,-3.963 -0.172,0.62 -0.66,0.924 -1.577,0.797 0.402,2.136 -0.668,4.093 -1.953,4.863 0.481,2.047 0.624,4.161 0.045,6.437 -1.604,-1.19 -0.935,-2.523 -1.585,-3.965 -0.082,-0.189 -0.615,-0.301 -1.051,-0.456 -0.049,0.069 -0.075,0.118 -0.211,0.245 -1.51,1.168 -4.364,3.094 -6.557,3.8 0.706,1.398 1.389,2.848 1.483,4.331 0.192,3.077 0.414,6.396 -3.17,8.717 -0.822,-2.468 -2.133,-4.747 -2.373,-7.128 -0.305,-3.005 0.364,-4.976 0.725,-6.475 -5.199,2.858 -11.444,4.676 -17.885,6.295 -0.128,0.398 -0.698,0.698 -1.473,0.376 -2.659,0.653 -5.337,1.288 -7.976,1.96 3.244,0.826 6.474,-2.434 8.712,0 -4.781,0.653 -8.919,2.396 -12.671,0 0.368,2.915 -2.491,0.551 -4.751,0.796 -0.049,0 -0.609,1.247 -0.793,0 0.62,-0.172 0.917,-0.661 0.793,-1.584 2.94,-0.497 8.15,1.284 8.71,-1.583 -2.014,0.666 -3.028,-0.014 -3.704,-0.683 -1.289,-0.094 -2.577,-0.556 -2.847,-0.481 -0.18,0.053 -0.529,1.465 -0.792,1.585 -0.65,0.308 -1.724,-0.303 -2.378,0 -0.12,0.061 -1.807,3.253 -2.351,0.871 -2.486,-0.491 -6.092,0.132 -6.903,-2.035 -0.33,0.09 -0.672,0.206 -1.036,0.375 0.503,1.601 3.699,0.519 3.958,2.374 -4.477,1.536 -7.196,-2.794 -8.713,-1.585 0.086,1.496 2.617,0.552 2.377,2.374 -1.652,0.451 -2.562,2.261 -3.958,0.792 1.949,5.353 -4.109,-2.151 -5.548,0 2.228,-0.037 2.171,3.453 3.959,1.589 -0.173,1.991 -4.071,4.301 -4.748,3.166 0.984,-4.683 -5.051,-6.031 -6.336,-3.166 0.083,-0.191 2.059,0.399 1.582,0.789 -1.649,1.345 -6.193,0.454 -3.963,3.958 -3.853,0.692 -5.25,-1.081 -7.917,-1.581 0.387,2.212 -0.503,2.446 -1.585,3.166 2.141,-1.426 -2.647,0.789 -2.377,0.797 -0.597,-0.023 -2.919,-3.925 -3.959,-0.797 1.364,-0.045 2.033,0.609 2.374,1.585 -0.917,0.132 -0.856,1.251 -0.793,2.374 -2.523,0.684 -2.445,-1.239 -3.958,-1.577 0.312,1.126 0.953,1.329 0,2.369 h 4.751 c -0.083,-4.022 2.145,-2.136 3.169,-2.369 0.144,-0.038 -0.131,-1.465 0,-1.585 0.124,-0.128 3.28,-0.811 3.167,-0.797 -0.518,0.094 0.995,2.352 1.585,2.382 -0.097,-0.008 0.751,-1.548 0.796,-1.585 2.505,-2.34 1.919,1.134 3.166,1.585 0.33,-2.655 3.309,-3.861 4.751,-4.755 1.067,-0.669 2.476,-3.906 3.166,-1.585 -2.077,0.564 -1.562,3.714 -3.166,4.755 -4.108,0.379 -5.367,2.355 -5.543,4.747 0.015,-0.199 -0.534,-1.326 -0.793,-0.793 -0.307,0.647 2.039,2.667 2.377,2.378 0.718,-0.455 2.911,-3.267 3.17,-1.585 -2.147,0.492 -1.972,3.313 -4.754,3.17 -0.087,-0.966 -0.233,-1.878 -1.582,-1.585 1.927,1.856 -0.886,1.773 -1.588,3.17 1.859,1.026 1.773,-0.406 3.17,1.585 -0.628,-3.576 3.902,-2.333 3.962,-2.378 0.357,-0.311 -0.883,-1.318 -0.792,-1.585 0.383,-1.141 3.459,-3.365 3.958,-2.377 -0.962,-0.24 -2.726,2.291 -0.792,2.377 0.316,-1.573 1.742,-2.028 3.147,-2.505 -0.267,-0.683 -0.416,-1.393 -0.368,-2.136 -2.119,0.63 -0.195,-2.78 -1.987,-2.483 -0.045,0.481 -0.124,0.931 -0.792,0.788 0.108,-2.531 1.791,-3.485 4.754,-3.17 -0.218,2.326 3.17,2.945 0,3.967 0.042,-1.367 -0.611,-2.036 -1.588,-2.382 0.06,1.946 -1.033,1.695 -0.301,2.769 0.034,-0.189 0.034,-0.372 0.098,-0.568 0.936,1.262 1.904,2.629 2.885,4.038 0.206,-0.395 0.199,-0.872 -0.305,-1.488 2.024,0.421 2.772,1.056 3.959,-0.792 -1.976,0.556 -3.257,0.782 -4.748,-0.789 1.169,-0.924 1.991,-0.924 3.167,0 -2.01,-1.937 1.667,-1.686 0.788,-4.755 -1.052,-0.116 -2.385,3.223 -3.166,0.797 3.241,-0.459 3.155,-4.24 7.129,-3.963 -2.299,-1.4 2.437,-4.24 3.17,-2.377 -0.801,0.011 -0.999,1.39 0,1.585 1.089,-0.341 2.073,-1.458 3.095,-2.219 -0.106,-0.338 0.517,-0.751 1.284,-0.658 0.612,-0.162 1.254,-0.087 1.957,0.499 -0.045,-1.363 0.608,-2.024 1.585,-2.37 0.796,1.995 -1.927,6.228 -4.755,7.125 -0.849,-2.956 2.967,-1.254 2.377,-3.962 -1.671,1.236 -4.395,1.419 -4.751,3.962 1.138,-0.885 1.931,-0.852 2.374,0.793 -2.209,0.687 -3.444,2.359 -4.751,3.958 -0.267,0.316 0.251,1.259 0,1.585 -0.838,1.048 -2.329,1.781 -3.166,3.166 -1.221,2.002 -1.353,0.726 -3.17,1.585 -0.248,0.116 -0.395,0.305 -0.59,0.458 4.822,7.017 10.103,15.031 15.429,20.747 0.597,0.639 0.259,1.627 0.792,2.378 0.26,0.371 1.288,0.402 1.578,0.796 0.503,0.657 0.379,1.78 0.788,2.37 1.555,2.178 3.283,4.161 4.763,6.336 0.743,1.097 1.487,1.953 2.373,3.17 1.769,2.43 2.681,4.95 3.963,7.132 0.27,0.458 1.261,1.07 1.577,1.581 0.406,0.654 0.293,1.731 0.797,2.374 2.384,3.046 6.68,4.353 7.92,7.925 0.695,2.002 0.372,4.721 0,7.128 -1.014,0.042 -1.096,1.01 -2.377,0.793 -2.145,-2.201 -3.223,-2.776 -4.751,-5.544 -1.923,-3.5 -4.263,-8.511 -5.544,-11.095 -0.563,-1.126 -0.237,-2.072 -0.792,-3.162 -1.408,-2.775 -3.978,-5.247 -5.544,-7.925 -0.462,-0.792 -0.409,-1.72 -0.792,-2.377 -1.326,-2.291 -2.43,-4.169 -3.959,-6.336 -0.902,-1.269 -2.269,-1.892 -3.17,-3.166 -0.901,-1.273 -1.427,-3.35 -2.373,-4.751 -0.399,-0.582 -1.146,-0.826 -1.585,-1.585 -0.999,-1.724 -1.503,-2.884 -2.378,-3.963 -2.08,-2.542 -3.823,-5.197 -5.506,-7.793 -0.755,-0.003 -1.562,-0.056 -1.412,0.845 4.053,-0.315 1.131,1.243 0.793,2.374 0.12,-0.398 1.39,2.558 0,0.792 -0.443,-1.644 -1.24,-1.679 -2.378,-0.792 -0.112,-2.325 0.684,-3.733 2.254,-4.368 -0.181,-0.277 -0.364,-0.556 -0.545,-0.834 -1.717,1.153 -2.667,4.143 -4.086,1.243 -2.404,1.398 2.167,2.453 0,3.17 -0.323,-0.999 -1.021,-1.618 -2.374,-1.585 -0.879,0.537 -4.112,2.629 -2.374,3.166 1.646,-0.462 2.559,-1.663 3.955,-2.369 0.695,1.149 0.635,3.064 3.17,2.369 v 2.378 c -3.471,0.578 0.643,-1.574 -1.581,-1.585 -1.355,0.759 -1.739,2.49 -2.377,3.962 -2.926,-2.662 -2.972,3.666 -4.751,1.585 0.796,-0.011 0.991,-1.394 0,-1.585 0,0.439 -0.643,0.898 -0.797,0 2.265,-0.792 4.263,-0.424 5.548,-3.17 -0.064,0.144 -1.251,-0.259 -0.793,-0.792 0.454,-0.533 2.61,0.447 2.374,-0.793 -0.793,0.004 -0.939,-0.641 -1.581,-0.792 -0.553,0.421 -2.311,0.804 -2.378,1.585 -0.03,0.338 0.857,1.532 0.793,1.585 -0.049,0.045 -2.614,0.871 -2.374,0.789 -4.124,1.344 -0.233,-0.481 -2.378,-1.582 -0.893,1.06 -2.745,1.101 -3.958,2.378 -0.387,0.405 0.928,1.243 0.792,1.585 -0.078,0.195 -1.419,-0.169 -1.588,0 -0.27,0.263 0.255,1.296 0,1.585 -0.413,0.473 -1.653,0.645 -1.585,1.577 0.105,1.337 5.269,0.443 1.585,2.381 -0.083,-0.631 -2.614,-2.403 -2.374,-0.796 1.089,1.018 2.344,3.771 0,3.962 -0.138,-4.387 -3.917,3.418 -5.547,0 2.167,-1.693 3.242,-1.464 3.962,-3.166 -0.071,0.173 -1.817,-1.119 -1.581,-1.585 0.199,-0.391 1.893,0.15 1.581,-0.796 -1.558,0.24 -1.57,-1.066 -2.377,-1.577 -0.534,2.366 -5.292,0.511 -5.54,3.162 3.136,1.229 4.841,-2.993 6.336,-0.789 -4.883,3.609 -10.43,2.6 -15.05,7.125 2.318,0.21 2.434,-1.788 4.755,-1.585 0.977,2.565 -2.565,0.608 -1.585,3.17 -1.978,-1.524 -3.256,1.209 -4.755,-0.789 1.041,-0.015 1.011,-2.2 0,-2.381 -1.261,1.379 -3.563,1.717 -6.332,1.585 v -2.374 c 2.066,-0.308 4.342,-0.405 5.544,-1.581 -3.249,-0.345 -5.078,0.732 -7.129,1.581 0.808,-3.15 6.206,-1.716 8.71,-3.166 0.18,0.612 0.023,1.559 0.792,1.585 1.571,-1.634 1.571,-0.751 0,-2.381 3.652,-1.363 8.989,-1.044 10.295,-4.747 -1.847,1.998 -1.686,-1.518 -0.793,-2.381 0.444,1.142 1.237,1.934 2.374,2.381 -0.232,-1.559 1.071,-1.574 1.585,-2.381 -1.495,-0.177 -1.746,0.894 -3.166,0.796 -0.345,-3.117 3.227,-1.375 3.959,-1.585 0.406,-0.113 1.146,-2.472 1.584,-0.793 -0.438,-0.003 -0.897,0.639 0,0.793 2.431,-0.777 -0.352,-2.667 -0.788,-3.17 1.612,-1.593 1.551,0.353 3.166,0.792 3.17,-2.633 8.338,-3.274 11.087,-6.336 -0.503,-0.157 -1.442,-0.619 -2.373,-0.788 -1.06,-0.195 -0.376,1.142 -0.797,1.585 -0.236,0.251 -3.707,1.517 -3.955,1.577 -0.063,0.015 -0.041,-1.833 -0.792,-1.577 -0.158,0.049 0.116,1.412 0,1.577 -0.683,0.969 -6.94,1.465 -4.755,0.796 1.014,-1.359 3.771,-0.983 3.959,-3.17 -0.793,0.004 -0.939,-0.637 -1.585,-0.788 -0.079,2.028 -2.945,1.27 -3.955,2.373 -0.991,-2.102 1.329,-1.119 2.374,-3.166 0.139,-0.273 -0.966,0.038 0,-0.792 -0.339,0.285 0.92,0.635 1.581,0 2.79,-2.671 2.603,-2.671 3.962,-5.544 -0.792,0.008 -0.942,-0.645 -1.581,-0.788 -0.079,0.886 1.15,1.228 0,1.577 -1.442,-2.426 -8.263,-0.931 -8.717,2.377 -1.409,0.474 -3.283,-2.324 -3.955,0 4.004,-1.565 1.612,4.061 0.788,1.585 0.482,-0.049 0.94,-0.12 0.793,-0.792 -1.975,-0.563 -3.253,3.486 -4.751,0.792 0.935,-0.387 1.799,-0.845 2.374,-1.585 -0.927,-1.573 -3.79,0.966 -3.955,1.585 0.053,-0.206 1.329,0.403 0.792,0.793 -2.546,1.84 -5.145,2.442 -7.921,3.17 -0.045,0.833 -1.017,0.615 -0.792,-0.797 2.907,-0.375 4.286,-1.223 7.128,-3.166 -2.358,-0.187 -6.332,2.047 -7.128,0.793 2.58,-1.645 6.31,-2.14 8.713,-3.963 -5.76,-0.755 -5.119,0.977 -11.091,0 -0.071,-2.159 1.323,-1.592 0,-3.166 2.814,-1.231 0.478,2.69 2.378,2.374 2.34,-0.559 5.588,-0.214 6.34,-2.374 -2.167,-2.588 -8.529,-0.976 -9.51,-4.751 -0.349,-0.694 2.175,-5.652 3.962,-1.585 -1.19,0.132 -2.925,-0.285 -3.17,0.793 2.318,1.829 5.056,-0.669 6.336,0 -0.999,0.326 -1.618,1.022 -1.585,2.373 1.09,-0.029 1.74,0.376 2.378,0.797 1.431,-2.64 5.311,0.706 6.332,-3.17 -3.019,-0.41 -5.933,-0.931 -7.125,-3.17 4.169,0.154 8.331,5.702 11.087,2.377 -5.032,-0.773 -9.366,-2.25 -12.672,-4.751 3.764,0.308 5.503,2.059 8.71,1.581 2.202,-0.326 4.353,-2.812 6.336,-0.792 -0.417,-0.872 -0.792,-1.871 -1.585,-2.374 -2.002,-1.269 -1.926,0.969 -3.162,0.796 -0.372,-0.055 0.116,-1.561 -0.796,-1.585 -0.951,-0.029 -2.415,0.579 -3.955,0.789 -5.634,0.759 -9.957,-0.826 -11.88,1.585 -1.446,-2.621 -4.803,0.203 -6.336,-3.17 3.182,0.796 5.093,1.12 6.336,-1.585 0.031,1.097 -0.375,1.744 -0.792,2.381 1.637,-0.472 5.198,0.977 5.543,-0.796 -3.173,-0.976 -6.222,-3.845 -10.297,-1.585 0.209,-2.268 -0.827,-0.63 -1.585,-0.788 -0.383,-0.083 -0.767,-1.464 -1.582,-1.585 -0.882,-0.128 -1.239,1.187 -1.584,0 1.062,-2.404 -2.037,-2.168 -3.166,-3.167 0.236,0.207 1.178,-0.371 0.788,-0.795 -0.361,-0.395 -1.96,-0.477 -2.373,-0.79 -0.538,-0.409 -0.598,-1.603 -1.582,-1.584 -0.259,1.836 0.124,3.039 0.789,3.958 -4.237,0.545 -2.359,-5.029 -6.336,-4.75 -0.109,1.479 -0.523,2.647 -1.585,3.166 -1.484,-1.506 -0.086,-1.987 0,-3.956 -1.089,0.031 -1.74,-0.375 -2.374,-0.795 -0.312,1.367 1.172,2.032 0,2.377 -0.781,-1.071 -2.115,-1.582 -3.169,-2.377 -0.087,0.968 -0.238,1.874 -1.585,1.585 0.041,-1.687 0.709,-1.604 0,-2.375 1.321,1.436 -2.822,-0.48 -3.167,-0.795 1.6,4.229 -2.294,-0.44 -3.166,1.585 -1.048,1.987 3.684,1.922 0.789,3.169 -0.714,-1.397 -1.773,-2.452 -3.166,-3.169 0,0.795 -0.639,0.942 -0.793,1.585 -0.045,1.45 4.056,2.681 1.585,3.961 -0.548,-1.565 -2.118,-2.114 -3.962,-2.377 -0.447,2.87 5.292,7.663 7.917,7.129 -0.44,0 -0.894,-0.646 0,-0.796 1.931,4.372 -3.568,1.167 -3.955,0.796 -1.258,-1.21 -3.988,-2.742 -4.755,-3.963 -0.202,-0.326 0.27,-1.31 0,-1.584 -0.45,-0.462 -1.893,-0.387 -2.373,-0.79 -1.705,-1.438 -1.499,-3.898 -3.17,-3.961 0.308,1.171 3.658,5.404 1.585,3.961 -0.015,-1.017 -0.898,-1.498 -1.694,-1.903 0,0.037 0.007,0.071 0.007,0.109 0.076,3.019 -1.378,6.256 0,8.71 -2.073,0.209 -1.934,-2.385 -2.377,-3.959 -0.541,-1.931 0.143,-4.8 -1.582,-5.543 0.444,-1.691 0.928,-2.645 1.259,-3.805 -0.421,0.045 -1.014,0.199 -1.153,0.056 -0.244,-0.245 0.26,-1.382 0,-1.585 -0.68,-0.511 -2.062,0.045 -2.381,-0.796 1.04,-2.348 0.702,-3.899 -1.581,-4.747 -0.421,1.137 3.087,1.93 0.792,2.377 -0.169,-0.957 -0.883,-0.489 -1.585,0 -0.912,-0.939 -0.897,-2.798 -0.792,-4.755 -1.495,0.176 -1.75,-0.89 -3.17,-0.792 -0.474,1.412 2.324,3.29 0,3.962 -0.173,-0.616 -0.016,-1.566 -0.789,-1.585 -0.173,0.62 -0.661,0.924 -1.585,0.793 0.256,-3.313 -2.779,-6.145 -0.796,-8.714 -1.359,0.046 -2.028,-0.609 -2.37,-1.581 2.858,0.748 1.105,-3.121 1.585,-4.755 3.756,-0.837 2.535,2.246 3.166,3.17 -0.187,-0.285 1.066,-1.299 1.585,-0.792 0.74,0.728 -1.111,3.613 0.789,3.958 1.532,-2.839 -0.301,-2.9 -0.789,-5.543 2.576,-0.207 1.679,3.072 3.959,3.17 -0.586,-1.398 -0.856,-4.808 -1.585,-5.544 0.397,0.406 -0.722,1.063 -0.789,0.789 -0.285,-1.135 0.789,-1.705 0.789,-2.374 -0.004,-1.198 -1.428,-2.088 -1.585,-3.17 -0.286,-1.945 1.683,-5.949 -2.374,-7.128 -0.24,1.559 1.066,1.573 1.585,2.381 -0.646,1.359 -2.224,1.762 -3.17,3.166 -0.593,0.879 0.071,2.858 -1.581,3.166 0.867,0.301 3.009,3.17 0.785,3.959 -0.229,-0.698 -2.14,-3.471 -2.37,-1.577 0.891,0.165 1.229,0.875 1.585,1.577 -3.691,-0.692 1.086,2.054 -1.585,2.377 -2.663,-2.768 0.624,2.475 -2.377,2.378 0.218,-2.314 -0.188,-2.724 -1.585,-1.585 0.135,-1.188 -0.286,-2.922 0.792,-3.17 0.177,0.616 0.023,1.566 0.793,1.585 -0.034,-1.089 0.375,-1.739 0.792,-2.374 h -2.377 c -0.331,-1.6 1.187,-1.514 1.585,-2.373 0.759,-1.664 -0.605,-3.249 0.792,-4.755 -0.301,2.411 2.877,1.345 3.17,3.162 -0.004,-0.789 0.635,-0.94 0.785,-1.577 0.826,-2.584 -1.694,-0.26 -2.37,-0.793 -0.62,-0.485 0.132,-4.102 -3.17,-3.166 2.212,1.172 -1.937,3.402 -2.377,1.581 1.885,-2.91 2.607,-7.392 3.17,-9.506 0.082,1.938 2.613,0.165 2.377,-0.788 -1.176,0.916 -1.994,0.916 -3.17,0 -0.466,2.437 -3.376,2.43 -3.962,4.747 0.571,-2.148 -3.733,0.57 -3.17,-1.577 0.837,-0.049 0.623,-1.019 -0.789,-0.797 0.751,-3.74 2.321,-6.651 4.755,-8.709 -1.427,3.113 -0.796,3.38 -2.381,6.336 1.66,1.667 2.978,-1.045 3.958,-2.378 -2.222,-2.768 1.998,-5.149 2.382,-9.506 -0.384,-0.938 -0.842,-1.795 -1.585,-2.374 -2.982,-0.608 -3.786,0.962 -6.34,0.789 0.631,-1.408 0.454,-2.633 -0.093,-3.831 0.566,0.624 2.688,0.372 2.474,-0.916 -0.203,-1.202 -0.68,-0.067 -0.796,0 -0.27,0.165 -1.397,-0.24 -1.585,0 -0.293,0.383 -0.278,0.68 -0.109,0.887 -0.928,-1.995 -2.873,-3.903 -3.846,-6.431 -1.153,-2.989 -0.364,-5.626 -2.377,-6.34 -0.17,0.895 -0.879,1.241 -1.582,1.585 -2.047,-0.871 -1.093,-4.593 -1.588,-6.336 -0.038,-0.131 -1.548,0.136 -1.578,0 -0.206,-0.769 1.465,-2.873 0.789,-3.954 -0.394,-0.638 -1.45,0.308 -1.585,-0.797 -0.008,-0.029 0.849,-0.735 0.796,-1.585 -0.187,-2.877 -0.593,-7.345 -1.592,-9.502 -0.079,-0.179 -2.14,-0.514 -2.374,-0.788 -0.39,-0.481 0.376,-1.885 0,-2.381 -0.72,-0.955 -2.377,-0.759 -3.162,-1.585 -0.999,-1.037 -0.413,-2.298 -1.589,-3.163 5.138,1.54 6.062,-5.34 3.17,-7.128 0.383,2.043 -2.798,4.492 -3.963,2.374 1.458,-1.976 4.324,-2.54 4.755,-5.543 -1.659,-1.247 -1.392,-4.414 -3.17,-5.548 -1.359,1.017 -0.014,4.736 -2.373,4.751 0.763,-2.869 -3.56,-0.661 -3.162,-3.162 0.732,-0.849 2.914,-0.248 2.366,-2.378 -2.081,2.058 -0.624,-1.281 -3.163,-0.792 -1.325,1.573 0.068,1.007 0,3.17 -3.192,0.547 -1.945,-3.339 -4.755,-3.17 -0.075,1.247 0.106,2.749 -1.581,2.377 -0.679,-1.844 2.769,-3.413 0.793,-3.962 -1.171,0.417 -1.998,1.172 -3.173,1.585 0.476,-2.57 5.626,-3.238 7.131,-2.374 -0.337,-0.196 -0.991,0.789 0,0.789 1.939,-1.052 -1.426,-2.389 0.789,-3.162 0.819,2.561 1.097,-2.089 1.593,-2.382 1.142,-0.668 2.182,1.45 2.366,0 0.841,-2.951 -2.967,-1.25 -2.366,-3.958 3.12,1.013 1.907,-2.307 3.95,-2.378 1.751,1.142 -0.995,1.934 0.793,2.378 1.056,-1.939 2.949,0.871 3.17,-0.793 -4.262,-0.969 0.883,-2.633 -2.378,-3.954 -0.799,0.608 -2.944,3.793 -3.962,1.577 1.213,-0.879 3.835,-1.131 3.962,-3.162 0.004,-0.042 -1.288,-0.114 -0.792,-0.797 0.481,-0.653 2.562,0.695 3.17,-1.585 0.346,-1.299 -0.394,-2.52 -0.793,-3.166 2.145,-0.912 4.582,-4.338 3.163,-6.336 1.987,0.102 2.483,1.51 3.177,-0.788 -1.551,0.375 -5.058,-1.135 -3.177,-1.585 1.172,0.521 3.358,1.825 4.755,0.788 0.165,-0.12 -0.17,-1.532 0,-1.585 0.406,-0.112 0.743,-0.045 1.036,0.067 -0.003,-0.157 -0.037,-0.337 -0.026,-0.487 0.004,-0.016 0.804,-0.158 1.266,-0.443 -0.082,-0.726 -0.18,-1.458 -0.255,-2.179 -0.113,-0.181 -0.199,-0.356 -0.218,-0.548 -0.038,-0.402 0.049,-0.838 0.165,-1.281 0.053,-0.533 0.165,-1.029 0.409,-1.461 0.008,0.008 0.008,0.015 0.015,0.022 0.124,-0.439 0.229,-0.863 0.207,-1.235 -0.147,-2.389 -1.315,-4.657 -0.796,-7.133 0.082,-0.401 0.477,-1.006 0.912,-1.64 -1.306,-0.857 -1.784,-3.204 -0.439,-4.481 2.238,-0.65 2.05,1.119 3.959,0.792 -0.301,1.319 -1.067,2.175 -1.931,2.934 0.297,2.403 1.311,3.868 1.461,4.773 h 1.581 c 0.203,-2.351 -3.132,-3.906 0,-4.751 0.173,0.613 0.665,0.92 1.585,0.788 -1.187,2.315 -0.147,2.828 1.51,3.569 0.262,-0.004 0.462,-0.064 0.677,-0.113 -1.068,-2.813 0.983,-0.669 1.772,-1.871 -2.667,-2.238 -1.863,-3.579 -2.374,-7.124 1.184,-0.135 2.922,0.278 3.162,-0.797 0.075,-2.159 -1.314,-1.591 0,-3.166 -0.792,0 -0.938,0.643 -1.577,0.793 -0.594,-2.441 2.171,-1.525 1.577,-3.963 -1.626,-0.213 -0.743,-2.948 -2.373,-3.166 -4.354,-0.661 -5.408,1.984 -9.502,1.585 1.134,-2.546 -4.811,-1.926 -2.374,-3.17 3.042,1.21 1.57,0.775 0.792,-1.584 3.535,-0.947 5.731,-3.242 7.914,-5.54 -0.008,-2.103 0.301,-4.526 -0.789,-5.547 1.363,-0.308 2.028,1.179 2.381,0 -1.126,-2.4 0.732,-3.242 -1.592,-3.958 -5.138,-1.593 0.481,0.551 0.796,-1.585 0.256,-1.705 -0.938,-3.561 -0.796,-6.336 0.071,-1.259 1.247,-2.535 1.592,-3.963 0.766,-3.215 1.525,-8.597 0.789,-11.083 -0.102,-0.346 -2.539,-0.041 -1.585,-1.581 3.809,-1.176 0.728,4.548 3.959,3.958 -0.759,3.11 -0.309,5.1 0,7.121 0.289,1.893 -0.293,5.404 1.585,5.548 -0.526,-1.278 1.239,-2.138 1.585,-3.167 0.645,-1.93 0.037,-4.131 0,-3.958 0.36,-1.555 1.622,-2.645 1.581,-3.17 -0.079,-1.06 -3.715,-1.322 -0.793,-2.374 1.645,1.818 -0.139,-1.517 0,-2.377 0.083,-0.519 0.999,-0.334 0.793,-1.581 -0.057,-0.338 -1.499,0.045 -1.581,-0.797 -0.113,-1.089 1.152,-4.552 -1.585,-3.17 -0.278,2.854 -1.21,3.824 0,6.337 -3.361,-0.331 -0.061,-7.328 -4.748,-6.337 v -3.954 c -3.316,-0.004 -3.316,-0.905 -4.754,-3.963 2.959,-0.845 2.257,1.969 4.754,1.581 0.842,-1.441 1.975,-3.109 2.945,-4.608 -0.038,0.03 -0.068,0.042 -0.101,0.075 0.368,-3.282 -3.703,-2.107 -5.544,-3.17 0.034,1.09 -0.375,1.739 -0.792,2.378 -7.084,0.834 -12.278,3.556 -19.801,3.959 -0.338,-1.514 -2.261,-1.432 -1.581,-3.959 4.751,0.157 7.553,-2.603 14.257,-2.378 0.793,-1.055 0.747,-2.944 2.374,-3.166 0.033,1.09 -0.376,1.735 -0.793,2.37 5.416,-0.439 9.337,0.698 13.618,0.95 0.038,-0.108 0.14,-0.27 0.166,-0.364 0.225,0.218 0.428,0.305 0.631,0.38 0.248,0.007 0.499,0.011 0.751,0.011 1.42,-0.552 2.456,-3.989 4.161,-4.353 0.459,2.568 -0.541,3.685 -0.788,5.539 2.493,-0.931 5.31,-1.547 7.124,-3.162 -1.968,-0.124 -0.229,-2.686 0,-3.17 h -2.107 c 0.511,0.665 0.691,1.386 -0.589,1.799 0.116,-1.059 -2.66,-2.948 -0.792,-3.173 0.171,0.198 0.709,0.615 1.148,1.097 0.094,-1.717 1.886,-1.736 2.742,-2.69 -1.998,-0.48 -4.109,0.206 -6.096,0.627 0.804,0.027 1.634,0.027 1.74,0.755 -1.146,-0.421 -1.939,3.088 -2.382,0.793 0.481,-0.049 0.939,-0.12 0.797,-0.793 -0.44,-0.041 -0.83,-0.131 -0.797,-0.635 -0.939,0.165 -1.848,0.244 -2.692,0.053 -2.401,-0.537 -3.869,-2.839 -4.755,-3.955 -3.569,-4.491 -7.009,-9.532 -5.544,-15.842 6.944,1.239 10.719,5.646 13.461,11.091 3.027,-0.417 2.836,1.251 3.962,2.37 0.658,0.661 1.217,1.233 1.765,1.788 0.188,-0.526 0.24,-1.187 0.139,-1.998 1.979,-0.398 3.257,-1.495 4.755,-2.374 1.916,-5.915 2.978,-9.51 3.166,-15.842 2.652,-0.158 2.96,-5.04 4.755,-1.581 -0.255,-1.837 0.12,-3.042 0.789,-3.963 h 3.166 c -0.222,1.803 0.191,2.979 1.585,3.17 0.785,-0.472 1.438,-0.149 1.957,0.2 0.206,-0.493 0.405,-1.01 0.615,-1.484 -0.165,-0.27 -0.285,-0.574 -0.195,-1.097 0.29,-0.048 0.522,-0.157 0.796,-0.221 0.428,-0.932 0.861,-1.901 1.258,-2.731 -0.476,-4.21 -6.129,-6.794 -3.17,-11.876 5.89,0.876 0.519,8.143 3.963,11.084 4.292,-4.075 7.342,-9.393 13.018,-12.093 h -0.023 c -0.09,-2.802 -2.622,1.686 -2.381,-0.79 1.389,-0.413 1.998,-1.937 3.169,-2.38 0.59,-0.214 1.097,0.105 1.533,0.401 1.261,-1.705 3.133,-2.196 5.273,-3.354 0.849,-0.454 1.239,-1.351 2.035,-1.701 -1.573,0.161 -3.353,0.372 -5.675,0.702 -0.472,-2.11 2.942,-1.186 5.548,-1.588 2.768,-0.424 7.628,-1.386 8.709,0 -2.993,0.379 -5.044,0.537 -7.463,0.77 0.242,0.041 0.504,0.116 0.805,0.233 0.916,1.483 1.246,2.456 1.201,3.098 2.562,0 6.212,-1.082 6.25,1.439 -0.48,1.104 -3.05,0.12 -3.17,1.592 0.617,0.173 1.563,0.015 1.585,0.788 -2.362,-0.006 -2.689,-2.057 -4.747,-2.38 -1.48,0.443 -3.381,0.623 -5.3,0.751 -0.258,0.5 -0.634,1.153 -0.571,1.047 -0.36,0.564 -0.345,1.135 -0.792,1.585 -5.371,-0.42 -5.855,0.955 -8.706,3.174 -0.694,0.533 -1.599,1.022 -2.377,1.581 -1.998,1.435 -2.472,3.05 -3.959,4.755 -1.408,1.6 -3.143,3.429 -4.297,5.416 6.607,-2.351 9.522,-8.398 18.077,-8.804 -0.878,-3.421 1.615,-1.915 3.166,-2.374 2.295,-0.675 4.579,-3.135 5.547,-3.166 0.038,0 0.165,0.106 0.327,0.248 0.417,-0.12 0.924,-0.161 1.592,-0.044 0.297,-0.782 2.074,-0.774 3.854,-0.875 0.628,-0.969 1.277,-1.913 1.946,-2.832 -0.921,-0.503 -1.645,-0.992 -0.594,-1.251 0.379,0.191 0.68,0.458 1.022,0.691 0.59,-0.789 1.206,-1.551 1.844,-2.276 -0.436,-0.518 -0.902,-1.003 -1.277,-1.581 0.894,0.034 1.559,0.304 2.171,0.624 0.89,-0.928 1.84,-1.785 2.851,-2.551 0.01,-0.552 0.071,-0.932 0.521,-1.243 -0.15,0.101 0.023,0.349 0.271,0.612 0.917,-0.623 1.893,-1.164 2.929,-1.618 -0.889,-0.47 -1.723,-1.023 -2.411,-1.371 1.142,-0.436 1.938,-1.233 2.381,-2.374 1.518,0.545 2.675,1.446 3.644,2.539 0.803,-3.354 -0.271,-5.082 -1.75,-6.438 -0.85,0.045 -1.117,-0.484 -1.3,-1.104 -1.469,-1.138 -2.941,-2.253 -3.294,-4.285 -1.258,-7.268 6.283,-9.138 7.764,-16.597 -0.008,1.104 1.194,1.003 1.738,1.548 0.274,0.27 -0.222,1.265 0,1.585 1.896,2.726 4.105,4.149 7.129,4.751 -0.327,-7.283 -3.433,-11.193 -3.955,-16.631 -2.021,-0.098 -3.08,-1.154 -3.174,-3.17 1.104,-1.01 0.488,-3.737 1.585,-4.751 -2.265,2.456 -5.067,-2.25 -3.166,-3.962 2.283,-0.478 2.077,2.509 2.374,3.17 0.112,0.247 1.389,0.514 1.585,0.792 0.244,0.342 -0.177,1.194 0,1.585 0.101,0.232 1.389,0.533 1.588,0.789 1.987,2.602 1.179,3.384 0.789,5.547 -0.826,4.545 1.044,5.446 2.374,7.921 0.938,1.743 1.396,3.253 2.381,4.751 2.498,3.816 6.974,6.907 7.921,10.295 0.744,2.681 0.747,5.715 0.63,8.848 0.159,0.113 0.309,0.214 0.478,0.444 -0.203,0.175 -0.335,0.236 -0.504,0.348 -0.153,3.67 -0.409,7.445 0.181,10.948 0.183,1.071 1.322,1.589 1.581,2.378 0.499,1.461 0.484,3.324 0.496,5.104 0.469,0.256 0.924,0.462 1.412,0.233 0.578,-0.278 -1.442,-1.277 0,-1.592 0.368,-0.076 3.361,2.38 3.962,-0.79 -1.446,-1.182 -5.067,0.26 -3.17,-0.788 1.792,-1.059 2.99,0.267 4.755,0 0.252,-0.042 0.567,-0.166 0.913,-0.331 -0.14,-0.616 -0.264,-1.235 -0.447,-1.836 -0.086,-0.296 -1.461,-1.165 -1.585,-1.585 -0.973,-3.332 -0.499,-6.708 -1.581,-9.502 -0.425,-1.12 -1.972,-1.464 -1.581,-3.17 -2.784,0.143 -2.607,-2.67 -4.755,-3.166 v -7.917 c 0.938,-1.179 2.993,-1.232 3.962,-2.377 -1.814,-5.018 -2.479,-10.202 -3.962,-14.257 -0.256,-0.692 -0.346,-1.656 -0.785,-2.374 -0.387,-0.616 -1.42,-0.973 -1.585,-1.585 0.048,0.184 0.852,-0.902 0.793,-1.585 -0.218,-2.231 -1.83,-5.014 -2.382,-7.128 -0.898,-3.418 -1.119,-7.05 -2.373,-10.299 -0.534,-1.378 -1.691,-1.807 -2.374,-3.162 -0.627,-1.239 -1.329,-2.757 -1.589,-3.959 0.018,0.067 0.927,-0.135 0.793,-0.792 -0.533,-2.651 -1.927,-6.295 -2.378,-7.921 -7.696,-1.931 -7.677,-12.777 -1.581,-13.465 3.857,-0.435 6.997,3.677 7.129,7.921 0.089,3.065 -4.207,5.067 -2.374,8.71 11.353,-1.679 7.109,7.384 7.921,13.461 0.24,1.866 1.784,2.839 2.366,4.754 0.694,2.235 0.112,4.801 0.792,7.129 0.586,1.987 2.464,3.508 3.174,5.544 0.51,1.461 0.383,3.215 0.789,4.751 2.26,8.529 4.668,15.406 7.128,22.97 1.033,3.173 2.081,5.99 3.087,8.744 0.349,-0.061 0.729,0.037 1.195,0.544 -0.323,-0.008 -0.624,0.075 -0.924,0.203 0.48,1.325 0.954,2.639 1.396,3.969 0.264,0.804 0.68,1.496 1.071,2.194 0.011,-0.015 0.026,-0.015 0.038,-0.03 -0.158,0.244 -0.331,-2.107 -0.793,-2.377 2.431,-0.35 3.343,-1.022 4.429,-1.274 0.169,-0.871 0.345,-1.727 0.525,-2.58 -0.071,-0.034 -0.086,-0.09 -0.195,-0.105 -1.356,-0.206 -2.941,1.202 -3.17,0 1.363,-0.961 2.569,-1.496 3.782,-1.799 0.451,-1.972 0.924,-3.779 1.442,-5.119 0.56,-1.457 0.222,-4.181 2.37,-3.955 0.707,2.04 -1.206,3.745 -1.581,5.54 -0.214,1.029 -0.052,2.118 0.045,3.207 2.178,-0.076 4.646,0.335 8.195,0.541 0.188,-1.134 1.303,-1.337 1.589,-2.373 3.432,0.679 6.377,-0.159 9.104,-0.583 h -2.299 v -2.377 h 1.585 c 0.041,1.01 0.999,1.104 0.793,2.362 0.916,-0.139 1.81,-0.23 2.692,-0.195 3.174,0.124 6.336,3.109 9.506,0.793 -0.616,-0.181 -1.57,-0.024 -1.585,-0.793 2.956,0.368 4.65,2.002 4.751,3.166 1.406,-2.096 3.208,1.164 3.963,-1.585 0.176,1.499 -0.898,1.75 -0.793,3.17 1.495,0.172 1.746,-0.894 3.166,-0.788 1.018,2.989 2.029,1.077 3.17,3.954 0.887,-0.169 1.229,-0.875 1.585,-1.581 -1.675,-1.007 -6.639,-2.813 -5.543,-3.966 2.61,2.155 10.64,3.068 9.498,6.34 -0.718,-0.452 -2.911,-3.264 -3.166,-1.585 0.721,0.938 3.861,3.432 1.581,4.755 -0.409,-0.309 -1.164,-3.847 -1.581,-1.585 1.022,2.05 1.638,2.486 3.958,1.585 -1.194,3.841 3.858,3.831 1.585,6.332 3.241,0.187 3.557,3.304 3.959,6.335 2.641,0.155 2.554,1.018 3.17,2.381 0.135,0.297 1.435,0.41 1.581,0.789 0.23,0.59 -0.349,1.871 0,2.374 0.597,0.853 1.799,0.316 2.377,1.584 -0.067,-0.142 -1.254,0.268 -0.792,0.797 1.837,-0.691 1.821,4.027 0.792,1.577 -0.322,-0.991 -1.021,-1.615 -2.377,-1.577 -0.889,2.163 -0.965,2.817 -1.581,4.751 0.116,-0.372 -0.631,-0.942 -0.789,0 0.03,-0.18 0.297,2.611 0.789,2.377 0.635,-0.112 1.225,-0.27 1.807,-0.435 -0.384,-0.639 -0.966,-1.078 -0.541,-2.524 1.385,-0.706 1.844,0.785 1.754,2.137 1.788,-0.631 3.387,-1.446 4.897,-2.348 0.308,1.361 -1.172,2.029 0,2.374 3.587,0.586 -1.209,-2.171 2.374,-1.581 2.539,5.006 -3.395,11.421 -1.585,15.838 -2.606,1.6 -3.666,4.747 -3.951,8.68 0,0.012 0.004,0.018 0.004,0.026 2.106,-2.167 1.716,0.943 3.947,0.796 0.98,-5.754 1.262,-0.349 3.17,-2.373 -5.259,-3.121 1.397,-6.558 -0.789,-11.876 h 5.544 c 0.003,2.456 -2.772,0.511 -3.959,3.162 2.024,0.864 3.778,-2.407 4.751,0 -1.766,1.404 -5.202,1.138 -5.547,3.963 1.164,1.832 2.513,-1.548 2.381,1.581 -1.404,0.18 -3.966,-0.797 -3.17,1.585 1.014,-0.046 1.097,-1.018 2.374,-0.789 -0.185,4.011 -3.58,5.856 -0.789,8.71 -2.073,-0.222 -3.41,0.289 -3.17,2.377 5.84,0.112 1.378,-5.247 6.336,-5.547 0.86,2.129 -0.503,1.292 -1.581,3.17 0.112,-0.191 1.251,0.322 0.789,0.792 -0.654,0.665 -4.879,3.343 -2.374,5.544 1.487,-0.189 -0.451,-1.308 0.789,-1.585 -0.237,1.825 2.291,0.879 2.377,2.381 -1.803,-0.226 -2.978,0.187 -3.166,1.577 0.796,0 0.938,0.646 1.585,0.793 1.524,-0.323 0.623,-3.068 3.166,-2.37 1.577,-0.402 3.129,1.863 4.691,3.113 -2.313,-0.942 -5.116,-1.213 -5.483,-2.324 -0.042,1.006 -1.015,1.093 -0.793,2.373 6.212,0.549 5.57,4.47 9.506,5.544 -0.015,-0.004 -0.694,-1.66 -0.796,-1.581 0.623,-0.474 5.122,1.931 5.547,0.788 1.232,2.821 -2.686,0.481 -2.377,2.378 3.56,3.567 6.647,7.605 7.917,13.461 -1.473,0.758 -2.645,-2.366 -3.162,0 3.241,0.228 2.095,1.516 1.254,2.985 0.221,0.338 0.421,0.702 0.623,1.056 0.849,0.082 1.608,0.259 2.081,0.713 2.144,2.054 5.896,1.893 4.755,4.725 0.007,0.011 0.014,0.023 0.018,0.03 5.105,0.436 5.653,5.416 8.688,7.918 -1.976,1.043 -2.479,-3.133 -3.162,-0.797 2.801,0.631 3.056,3.808 4.747,5.548 1.089,-1.803 -2.039,-2.979 0,-3.166 0.217,1.441 2.854,4.435 0.796,5.542 0,-0.443 -0.646,-0.901 -0.796,0 2.523,1.62 -1.492,5.191 0.796,6.333 3.087,-1.443 -0.992,-5.161 3.17,-5.54 -0.128,4.27 -2.088,5.743 -3.17,7.917 0.939,-1.874 2.441,0.259 1.585,1.585 -0.41,0.631 -1.457,-0.311 -1.585,0.792 -0.007,0.083 1.615,1.18 1.585,2.378 -0.041,1.243 -2.599,1.736 -1.585,3.954 1.825,1.579 0.878,-0.195 2.374,-0.788 -0.924,2.997 -0.106,6.125 -0.789,8.709 -0.721,2.698 -3.366,4.256 -3.177,7.125 2.741,-0.69 4.206,3.238 6.343,4.755 0.725,0.519 1.206,0.654 1.513,0.661 -0.187,0.161 -0.424,0.417 -0.724,0.924 5.078,1.525 6.974,6.224 11.879,7.925 -0.218,1.803 0.195,2.971 1.585,3.17 -0.225,-1.39 3.726,-3.058 1.584,-1.593 -0.006,1.577 -2.163,1.007 -1.584,3.17 0.233,0.181 1.435,-0.232 1.584,0 2.596,4.188 3.707,10.137 8.305,10.979 -1.07,-3.97 -1.882,-8.59 -2.685,-12.609 -0.031,0.015 -0.038,0.037 -0.076,0.049 0.041,-1.453 -4.056,-2.686 -1.585,-3.962 0.09,0.488 0.68,1.138 1.221,1.78 -0.244,-1.134 -0.492,-2.213 -0.747,-3.151 -2.085,-7.602 -2.498,-19.669 -5.544,-25.341 -0.594,-2.444 2.731,-0.965 1.581,-3.962 -1.855,-5.892 -11.274,-10.385 -4.755,-17.423 14.108,0.252 4.181,18.148 10.303,24.555 0.416,2.889 -3.482,3.554 -1.585,5.54 0.198,16.015 9.652,25.453 12.672,38.016 0.515,2.148 1.37,5.206 1.585,7.125 0.21,1.923 -0.042,3.966 -0.136,6.006 0.429,1.288 0.988,2.824 0.203,3.68 0.233,0.808 1.127,1.905 1.514,2.986 1.634,4.548 2.708,8.683 2.377,11.883 -0.691,-2.261 -1.69,-4.781 -2.377,-7.128 -0.718,-2.457 -0.849,-5.085 -1.845,-7.5 m 12.936,35.217 c -1.664,-3.133 -5.011,-4.991 -3.174,-9.502 -1.273,-1.923 -4.552,-5.961 -3.162,-7.921 1.908,0.834 1.577,3.711 2.373,4.751 1.9,2.475 5.649,3.407 7.129,6.336 -0.203,2.971 -1.243,5.097 -3.166,6.336 m -88.708,81.572 c -0.349,-1.555 -2.933,-4.898 -0.784,-6.332 -0.433,2.335 2.245,5.588 0.784,6.332 m -37.22,26.136 c 0.177,-0.612 0.02,-1.558 0.793,-1.581 -0.004,-0.443 0.639,-0.901 0.796,0 -1.6,2.322 -0.717,2.239 -2.381,3.962 0.818,-0.856 -3.023,-0.142 -1.585,1.585 -2.606,-0.037 -3.027,-2.261 -3.166,-4.759 1.697,-1.708 4.42,-0.405 5.543,0.793 M 235.704,-13.289 c 0.015,-3.696 3.943,-3.696 3.962,0 -1.04,1.01 -2.918,1.01 -3.962,0 m -4.751,22.17 v 3.17 c -1.375,0.06 -2.46,-0.18 -3.166,-0.792 -0.24,-2.089 1.097,-2.596 3.166,-2.378 m -2.378,11.88 c 2.484,-0.365 3.542,0.683 3.17,3.17 -2.182,2.464 -5.63,-0.985 -3.17,-3.17 m -23.755,0.792 c 3.445,6.96 -7.729,1.367 0,0 m 45.934,28.51 c 0.112,-0.286 -0.868,0.875 -0.793,0.792 -0.57,0.598 -0.248,0.838 -0.792,1.582 -2.408,3.357 -9.093,0.341 -10.295,-3.163 -0.342,-1.003 0.439,-3.759 0.792,-6.336 0.819,-5.953 2.757,-10.042 6.336,-10.294 1.904,-0.135 3.332,1.34 6.337,3.166 1.014,2.821 -1.255,5.299 -1.585,7.918 -0.319,2.557 0.788,4.258 0,6.335 m -8.714,7.128 c 1.923,-1.247 3.388,-2.952 7.129,-2.373 6.88,8.203 -9.762,16.679 -7.129,2.373 m -95.824,38.805 c 0.792,0.004 0.938,-0.639 1.581,-0.789 -0.004,0.793 0.641,0.943 0.788,1.582 -0.792,0 -0.939,0.642 -1.581,0.792 0.004,-0.792 -0.643,-0.942 -0.788,-1.585 m 119.587,-0.789 c 0.624,2.734 -0.74,3.482 -2.377,3.959 0.179,-1.495 -0.895,-1.746 -0.793,-3.17 1.07,-0.244 1.517,-1.123 3.17,-0.789 m -11.879,12.673 c 0.153,-0.128 -1.345,1.716 -0.793,1.581 -4.736,1.119 -6.129,-2.742 -6.336,-10.295 1.018,-2.152 3.838,-2.494 4.751,-4.751 -2.348,-2.137 -6.572,-2.403 -7.921,-5.54 0.372,-3.598 3.52,-4.405 7.921,-3.962 -1.229,3.695 -0.849,5.284 0,7.132 1.573,3.414 5.198,4.976 5.544,7.913 0.428,3.644 -1.788,6.828 -3.166,7.922 m -30.096,1.581 c -0.645,-2.832 1.683,-3.933 3.17,-2.374 0.236,2.088 -1.101,2.599 -3.17,2.374 m 0.793,3.17 h -2.378 c -0.142,-1.729 0.651,-2.521 2.378,-2.374 z m -102.169,14.257 c 0.124,-0.936 -0.135,-2.25 0.793,-2.378 0.484,0.744 1.844,2.922 -0.793,2.378 m 177.404,5.543 c -0.041,-1.014 -1.013,-1.097 -0.792,-2.373 h 1.582 c 0.897,1.133 0.856,1.926 -0.79,2.373 m -163.15,0 c -1.446,-1.878 -2.066,-4.582 -0.793,-7.128 6.926,-2.34 7.579,8.747 0.793,7.128 m 172.656,0.793 c -0.233,-2.074 0.289,-3.411 2.374,-3.166 0.247,1.07 1.126,1.509 0.792,3.166 z m 6.336,2.377 h 1.585 c 0.041,1.014 1.011,1.096 0.793,2.374 h -2.378 z m -172.656,-2.377 c 1.412,-0.703 2.017,-2.213 4.755,-1.585 3.849,5.754 -5.548,9.197 -4.755,1.585 m 22.182,3.958 c -0.631,-2.742 0.879,-3.343 1.581,-4.751 3.676,0.545 5.78,2.659 6.336,6.336 -3.787,0.901 -4.376,-0.684 -7.917,-1.585 m 163.939,7.125 c 0.12,-0.924 -0.136,-2.246 0.788,-2.37 0.488,0.732 1.845,2.917 -0.788,2.37 m -137.808,-2.37 c 3.032,-1.514 2.885,-0.969 5.544,0 1.709,0.612 3.37,-0.233 3.166,1.581 -2.899,1.378 -5.738,-0.774 -8.71,-1.581 m 3.17,3.955 c -2.985,-0.898 -3.605,0.762 -4.754,-1.585 1.413,0.48 3.291,-2.318 3.958,0 -0.48,0.048 -0.934,0.12 -0.791,0.792 0.615,0.184 1.565,0.026 1.587,0.793 m 169.484,0 h 1.585 c -0.004,0.792 0.638,0.942 0.789,1.585 -1.015,0.044 -1.097,1.013 -2.374,0.792 z m -196.412,0.792 c 0.24,2.092 -1.653,2.044 -3.166,2.378 -0.714,-2.558 2.584,-1.112 3.166,-2.378 m 207.499,4.752 c -1.138,-1.154 -1.164,-3.066 1.585,-2.374 0.041,1.363 -0.613,2.028 -1.585,2.374 m -188.494,-2.374 c 1.963,-2.581 5.746,2.167 3.169,3.959 0.383,-2.757 -1.983,-2.765 -3.169,-3.959 m -62.565,4.751 c -0.183,-0.489 1.198,-1.698 1.589,-1.585 2.081,0.638 -0.515,4.454 -1.589,1.585 m 5.54,4.75 c -0.24,-1.07 -1.127,-1.509 -0.792,-3.166 3.684,-0.958 3.808,3.148 0.792,3.166 m 235.221,0.793 c -0.913,-0.935 -0.895,-2.794 -0.789,-4.752 0.439,-2.14 2.159,5.086 0.789,4.752 m -159.978,0 c -1.131,0.192 -1.333,1.303 -2.377,1.585 -0.691,-1.627 2.054,-3.553 2.377,-1.585 m 180.571,31.68 c -7.235,0.857 -6.611,-9.99 -1.585,-11.083 -1.601,3.834 3.815,6.41 1.585,11.083 m 30.89,40.394 c -0.627,-3.05 3.79,-3.05 3.163,0 -2.164,-0.076 -1.592,1.317 -3.163,0 m 7.129,21.381 c 1.803,-0.222 2.971,0.191 3.162,1.581 -2.012,0.413 -3.068,1.352 -3.162,-1.581 m 4.747,3.166 c -0.045,-0.485 -0.12,-0.935 -0.792,-0.792 v -1.581 c 1.949,-1.229 2.328,2.688 0.792,2.373 M 85.229,266.275 c -1.089,-1.017 -1.375,-4.736 0.792,-4.754 0.838,2.628 2.348,3.436 -0.792,4.754 m 446.677,11.879 c -0.637,-4.796 3.629,-0.525 0,0 m -420.541,2.378 c -1.013,0.037 -1.093,1.01 -2.377,0.792 -1.232,-1.949 2.697,-2.332 2.377,-0.792 m 321.539,7.128 c -1.013,0.038 -1.092,1.011 -2.373,0.793 -1.228,-1.953 2.689,-2.332 2.373,-0.793 m 53.066,23.756 c -0.045,-0.48 -0.113,-0.936 -0.792,-0.793 v -1.585 c 1.953,-1.231 2.332,2.693 0.792,2.378 m 60.186,0 c 2.952,-1.961 7.94,-0.338 7.132,3.958 -4.173,0.485 -5.998,-1.393 -7.132,-3.958 m 4.759,17.423 c 2.069,-0.222 3.406,0.293 3.166,2.377 -2.069,0.222 -3.403,-0.289 -3.166,-2.377 m 19.008,10.302 c -0.252,-1.075 -1.127,-1.517 -0.793,-3.173 2.209,-1.27 2.189,3.421 0.793,3.173 m -4.755,9.495 c -2.866,-3.734 4.639,-1.048 0,0 m -68.903,21.388 c 4.517,1.034 6.88,4.211 7.128,9.506 h -2.373 c -0.97,-3.785 -5.375,-4.134 -4.755,-9.506 m -35.635,44.349 c -1.202,-1.115 -2.502,-3.846 -0.793,-5.544 3.279,-0.747 4.856,5.878 0.793,5.544 m -30.884,8.713 c 1.608,2.118 0.743,3.009 1.581,4.751 -2.637,0.315 -4.421,-4.267 -1.581,-4.751 m -3.966,5.544 c 2.2,3.782 -2.599,1.919 0,0 m 63.36,15.842 c -8.09,0.533 -11.2,-11.486 -6.332,-16.635 5.626,1.754 8.344,9.78 6.332,16.635 m 14.253,1.585 c -2.573,-6.743 -2.077,-14.566 -3.166,-22.178 -1.168,-8.169 -3.031,-17.322 -4.751,-24.548 -1.161,-4.875 -2.066,-9.829 -3.17,-15.054 -0.68,-3.229 -1.612,-6.234 -2.377,-9.506 -1.217,-5.223 -1.811,-11.131 -3.166,-14.252 -1.593,-3.669 -3.872,-6.719 -4.748,-10.298 -1.356,-1.473 -3.617,-1.488 -4.755,-2.374 -2.239,-1.739 -5.187,-7.073 -5.543,-9.498 -0.867,-5.901 1.082,-13.608 5.543,-14.261 5.777,-0.838 13.491,11.958 13.461,16.634 -0.015,2.75 -3.001,5.668 -3.166,8.706 -0.037,0.683 0.529,2.899 0.793,3.963 1.081,4.401 0.761,9.347 1.581,13.463 0.195,0.955 1.227,2.198 1.585,3.17 0.476,1.286 0.48,2.588 0.792,3.959 1.269,5.596 1.825,10.967 3.17,15.842 0.687,2.483 1.979,4.755 2.374,7.128 0.405,2.408 -0.207,4.684 0,7.125 0.547,6.314 3.421,13.878 3.962,19.801 0.251,2.764 -0.391,5.382 0,7.921 0.766,4.924 3.68,8.901 3.166,13.464 -0.177,0.612 -0.662,0.917 -1.585,0.793 m -15.838,3.162 c 1.359,1.284 1.967,3.312 1.585,6.336 -3.549,-0.079 -3.624,-4.646 -1.585,-6.336 m 4.751,4.751 c 0.402,0.24 2.836,0.421 3.17,0.793 0.657,0.747 -0.365,2.948 0.793,3.17 -3.186,-0.778 -6.464,-1.454 -6.34,-5.544 1.626,-0.477 1.693,1.175 2.377,1.581 m -5.543,15.05 c -0.173,0.619 -0.665,0.923 -1.585,0.792 -2.043,-1.732 -4.087,-4.687 -2.374,-7.921 4.124,-0.421 4.026,3.369 3.959,7.129 m 14.257,4.751 c -1.248,-1.919 -2.949,-3.381 -2.378,-7.125 4.555,-0.65 4.6,5.25 2.378,7.125 m -151.268,11.882 c 0.21,1.082 -0.488,3.088 -0.793,1.581 -0.214,-1.077 0.488,-3.087 0.793,-1.581 m 41.975,11.884 c -0.91,-0.939 -0.895,-2.806 -0.793,-4.755 0.439,-2.144 2.164,5.081 0.793,4.755 m 35.638,-1.589 c 0.53,1.581 2.734,3.384 0,3.955 0.477,-1.405 -2.321,-3.283 0,-3.955 m -40.393,0.796 c 0.289,1.363 2.395,4.891 0.792,5.536 -0.868,-0.789 -2.963,-4.315 -0.792,-5.536 m -15.835,3.159 c 0.556,0.589 1.972,3.883 -0.792,3.173 0.134,-1.186 -0.282,-2.922 0.792,-3.173 m -38.02,3.173 c 5.367,-0.116 4.458,8.999 2.378,11.88 -0.642,-4.525 -3.587,-7.714 -2.378,-11.88 m 62.568,14.257 c -2.558,0.71 -1.116,-2.583 -2.377,-3.173 2.088,-0.237 2.043,1.66 2.377,3.173 M 280.953,491.407 c 2.022,0.857 2.776,-3.41 3.959,-0.792 -1.183,-0.015 -3.233,2.941 -3.959,0.792 m -24.551,23.759 c -1.499,-0.18 -1.747,0.895 -3.166,0.793 -1.269,-2.208 3.418,-2.189 3.166,-0.793 m 0,-2.373 c 2.723,0.3 4.939,-3.981 7.125,-1.585 -2.719,-0.305 -4.935,3.974 -7.125,1.585 m -11.087,-3.17 c 0,-0.06 3.688,0.098 2.377,-1.585 -1.062,0.082 -4.368,1.483 -2.377,0 1.645,-1.416 5.419,-0.154 7.132,0.792 -3.593,-0.8 -1.713,2.348 -4.755,2.378 0.128,-0.004 -2.374,-1.431 -2.377,-1.585 m 17.419,-1.585 c -2.606,1.349 -4.807,3.106 -7.917,3.958 -0.101,-2.174 4.188,-2.546 5.547,-3.166 0.861,-0.393 1.943,-3.563 2.37,-0.792 m -5.54,-2.381 c -1.836,-0.248 -3.042,0.135 -3.958,0.796 -1.224,-2.389 4.094,-2.081 3.958,-0.796 m -7.921,8.717 c -0.187,-1.131 -1.302,-1.333 -1.581,-2.378 1.496,0.162 7.824,-0.533 5.544,0.793 -2.524,-0.676 -3.008,0.688 -3.963,1.585 m -18.211,9.502 c -1.81,0.226 -2.982,-0.188 -3.169,-1.585 1.802,-0.218 2.974,0.195 3.169,1.585 m -15.053,0.796 c 0.256,-2.103 -4.436,0.74 -3.166,-2.381 1.186,0.23 5.723,1.022 3.166,2.381 m 24.555,-0.796 c -2.193,-0.098 -2.719,-1.51 -1.585,0.793 h -1.584 c -0.482,-0.042 -0.936,-0.121 -0.793,-0.793 0.484,-0.041 0.939,-0.116 0.793,-0.792 -0.617,-0.177 -1.563,-0.02 -1.585,-0.793 2.099,0.012 4.66,-0.436 4.754,1.585 m -23.762,-22.967 c -0.11,-0.12 -1.56,0.128 -1.585,0 0.517,0.136 0.484,-1.254 1.585,0 m 26.136,19.797 c -2.667,0.278 -5.777,1.803 -7.128,-0.789 2.887,1.507 4.938,-1.077 7.128,0.789 m -8.709,-1.581 c -1.248,-0.079 -2.747,0.109 -2.378,-1.585 1.363,-0.041 2.028,0.612 2.378,1.585 m 4.75,-6.332 c -4.018,2.155 -2.952,-2.765 0,0 m 36.427,-19.012 c -4.59,2.283 -2.084,-1.953 0,0 m -12.672,30.888 c -0.041,-0.481 -0.116,-0.94 -0.793,-0.793 0.497,2.547 -2.842,1.089 -0.788,3.17 h -3.162 c -0.184,-1.495 0.886,-1.746 0.788,-3.17 0.797,-0.004 0.94,0.643 1.585,0.793 -1.085,-3.523 5.195,-0.474 2.37,0 m 13.465,3.166 c 3.925,1.055 1.239,3.744 0,0 m -68.9,-60.19 c -0.12,1.055 3.219,2.392 0.793,3.166 0.12,-1.048 -3.223,-2.389 -0.793,-3.166 m 134.638,-8.71 c 1.659,-0.251 6.853,-0.121 3.958,1.585 -0.399,-1.784 -3.884,1.112 -1.589,2.374 -2.656,-0.815 -1.228,2.463 -1.577,3.961 -2.957,0.838 -1.254,-2.973 -3.962,-2.376 0.003,0.435 -0.639,0.901 -0.793,0 0.958,-0.169 0.488,-0.879 0,-1.585 4.586,0.323 5.247,-1.72 3.963,-3.959 m -14.45,8.319 c 0.816,-0.676 1.567,-1.089 2.57,0.387 -1.044,0.015 -0.725,1.393 -1.585,1.592 0.382,-1.994 -3.632,1.909 -3.962,-0.795 0.867,0.299 1.547,-0.053 2.155,-0.515 -3.054,0.059 -6.761,0.777 -8.27,-0.699 2.97,-1.1 6.87,-0.98 9.092,0.03 m 7.321,1.975 c -5.075,0.914 -1.744,-2.418 0,0 m 2.377,-4.75 c -5.074,0.916 -1.739,-2.419 0,0 m -76.032,55.438 c 1.052,0.117 2.949,-2.662 3.17,-0.792 -1.055,-0.116 -2.392,3.219 -3.17,0.792 m 7.125,-13.464 c -3.778,2.201 -1.916,-2.599 0,0 m -65.73,-3.17 c 2.445,0.113 0.582,3.351 -0.792,0.796 -0.271,-0.503 0.356,-0.81 0.792,-0.796 m 65.73,-3.166 h 1.585 v 1.585 c -0.966,-0.087 -1.875,-0.236 -1.585,-1.585 m 7.128,22.178 c 1.815,-0.477 2.877,5.479 0,4.751 0.861,-3.365 -0.476,-3.988 0,-4.751 m 41.979,-39.601 c 0.21,-0.083 2.002,-1.724 3.166,-0.793 0.394,0.312 -6.934,2.303 -3.166,0.793 m -120.486,-1.802 v -1.357 c -0.717,0.132 -1.888,-1.686 -2.272,-0.011 1.255,-0.038 1.9,0.526 2.272,1.368 m 23.865,31.901 c -0.684,-1.57 -7.624,-3.966 -7.921,-0.797 2.97,-1.37 5.089,1.029 7.921,0.797 m -6.336,3.955 c 1.866,-0.016 2.332,1.363 4.751,0.792 0.293,-1.345 -0.616,-1.495 -1.585,-1.581 0.421,-0.639 0.826,-1.288 0.793,-2.378 -2.24,0.654 -2.051,-1.111 -3.959,-0.788 1.483,1.506 0.086,1.986 0,3.955 m -20.589,-41.179 c 1.787,0.106 2.704,1.571 3.06,2.686 v -2.9 c 0.045,-0.83 1.018,-0.62 0.793,0.792 v 12.672 c 0.41,4.624 -0.552,8.515 0,12.669 0.184,1.39 0.744,2.757 1.146,4.116 1.964,-0.604 2.422,3.087 1.333,0.849 -0.342,0.045 -0.729,0.049 -1.097,0.068 0.098,0.435 0.184,0.868 0.203,1.303 0.056,1.329 0,2.67 -0.101,4.026 1.329,0.634 3.203,0.729 4.165,1.731 -0.338,-3.928 2.366,-0.442 3.162,-2.373 -3.001,-0.075 0.063,-2.065 0,-2.381 -0.015,-0.128 -1.457,0.127 -1.577,0 -0.661,-0.677 0.495,-3.129 0,-3.955 4.837,-0.545 6.828,1.931 11.083,0 -2.926,0.191 -0.477,-2.704 -0.792,-3.17 -0.85,-1.265 -3.298,0.342 -3.166,-2.378 1.9,-1.197 1.974,1.278 3.166,1.585 0.277,1.589 4.014,2.897 1.592,3.959 -0.007,-0.008 -0.007,-0.018 -0.015,-0.026 -0.161,-0.62 -0.026,-1.536 -0.785,-1.555 0.142,0.619 0.431,1.115 0.785,1.555 0.004,0.008 0.004,0.018 0.008,0.03 0.003,0 0.003,-0.004 0.007,-0.004 2.753,3.327 11.004,1.773 14.253,1.589 -0.616,-0.177 -1.566,-0.026 -1.588,-0.797 2.489,-0.904 1.922,1.243 3.17,1.585 0.833,-4.405 4.619,-1.272 8.712,-1.585 1.901,-0.142 6.186,-1.258 7.917,-1.581 -0.409,0.075 4.534,-1.325 0.793,0 -0.815,1.638 -4.672,2.055 -7.128,2.378 0.608,-0.079 1.633,0.785 1.584,0.788 -1.194,0.132 -1.626,-0.68 -2.376,-0.788 -2.33,-0.364 -5.548,0.229 -7.129,0 0.432,0.06 0.909,-0.695 0,-0.797 -0.992,0.327 -1.619,1.023 -1.581,2.378 4.687,0.011 4.085,-0.559 7.92,-0.793 0.234,2.881 -4.225,1.056 -5.546,2.378 -0.793,0 -0.94,-0.646 -1.581,-0.796 0.247,1.073 1.125,1.513 0.788,3.169 -8.432,-0.953 -14.925,-5.036 -21.382,-3.958 3.756,4.319 10.685,0.991 14.258,4.755 2.023,0.856 3.774,-2.411 4.751,0 -2.566,4.041 -7.205,-3.23 -11.088,0 3.684,-0.699 -0.536,2.606 1.582,2.373 1.186,-1.254 3.241,-0.586 3.962,0.793 -2.397,0.736 -6.16,-1.135 -6.336,0 0.236,3.354 3.331,-0.515 3.962,1.581 -0.62,0.177 -1.566,0.023 -1.588,0.793 0.615,0.176 1.565,0.022 1.588,0.792 -2.689,-0.222 -4.552,-1.262 -7.924,-0.792 -0.557,2.328 -2.656,2.336 0,3.958 -2.825,0.364 -4.609,-1.772 -7.129,-2.374 -0.672,-0.161 -2.423,0.512 -3.17,0 -0.511,-0.353 0.443,-2.692 -0.789,-2.377 -2.021,-0.864 -4.074,2.708 -3.958,-0.792 -0.383,-1.987 3.628,1.911 3.958,-0.789 -1.976,-0.21 -2.644,-2.979 -4.751,-0.793 -1.543,-1.435 0.777,-1.742 -0.792,-2.373 -0.323,-0.132 -0.684,-0.128 -1.056,-0.067 -0.424,4.814 -1.374,9.877 -0.631,15.695 0.035,0.841 -0.372,2.009 -0.792,0.792 0.387,-6.107 -0.436,-11.075 -1.045,-16.082 -0.168,-0.061 -0.322,-0.151 -0.435,-0.338 0.195,-0.004 0.27,-0.124 0.384,-0.211 -0.575,-4.852 -0.909,-9.772 0.303,-15.838 v -15.646 c -3.669,-0.053 -1.806,-2.776 -3.06,-3.948 -0.008,0.796 -1.39,0.999 -1.585,0 0.961,-0.089 1.87,-0.236 1.585,-1.581 m 53.061,38.012 h -2.378 c -0.616,-0.18 -1.562,-0.022 -1.584,-0.788 1.149,0.428 4.093,-0.928 3.962,0.788 m 15.834,-11.879 c 0.894,1.738 3.077,1.738 3.962,0 -0.484,-0.045 -0.938,-0.116 -0.792,-0.793 1.089,-0.033 1.74,0.376 2.374,0.793 v 1.585 c -1.393,1.089 -8.841,1.536 -5.544,-1.585 m 33.269,6.336 c -0.267,-0.353 -1.022,1.276 0,1.585 -2.971,0.676 -2.062,-4.33 0,-1.585 M 237.395,477.15 c 0.799,0.008 0.995,1.39 0,1.585 0.39,-2.501 -3.933,-0.297 -3.166,-3.17 2.489,-0.909 1.922,1.248 3.166,1.585 m -20.593,-11.876 c 0.472,0.745 3.526,4.08 0,3.955 1.032,-1.963 -2.325,-3.286 0,-3.955 m 23.762,16.631 c -1.802,0.222 -2.978,-0.195 -3.169,-1.585 1.471,0.106 2.647,0.519 3.169,1.585 M 133.645,359.145 c 0.567,-2.592 3.245,-3.092 6.335,-3.166 -0.578,2.586 -4.427,1.903 -6.335,3.166 m 98.999,122.756 c 0.484,0.185 4.431,-0.71 2.373,0.793 -3.504,0.076 -5.712,-1.145 -7.124,-3.17 1.453,-0.559 3.048,1.728 4.751,2.377 m -13.465,-6.336 c -0.316,-1.096 -4.496,-2.238 -2.377,-3.169 -0.602,2.016 5.411,1.33 2.377,3.169 m -20.593,19.801 c 1.476,0.113 2.651,0.522 3.17,1.585 -1.015,0.045 -1.097,1.014 -2.378,0.788 0.034,-1.089 -0.371,-1.734 -0.792,-2.373 m 22.97,9.502 c -0.935,-0.12 -2.249,0.135 -2.377,-0.789 0.616,-0.18 1.562,-0.022 1.585,-0.796 -0.617,-0.173 -1.563,-0.014 -1.585,-0.789 h 2.377 z m 12.673,-24.548 c -0.275,-0.51 0.352,-0.811 0.788,-0.796 2.453,0.113 0.586,3.35 -0.788,0.796 m -40.39,-11.091 c -0.098,0.283 -2.018,-0.041 -1.585,0.793 0.127,0.255 3.199,1.83 1.585,3.17 -0.166,-0.962 -0.879,-0.488 -1.585,0 -3.508,-4.376 2.027,-5.303 1.585,-3.963 m -6.34,7.921 v -2.377 h 2.381 c 0.142,1.732 -0.653,2.524 -2.381,2.377 m 18.215,25.344 c 2.028,0.083 3.778,0.451 4.755,1.585 -1.337,1.345 -3.564,-0.466 -4.755,-1.585 M 145.532,374.986 c 0.124,1.983 -1.224,2.479 -2.382,3.166 -0.134,-1.979 1.213,-2.475 2.382,-3.166 m -3.967,-8.714 c -4.596,0.834 -0.33,-3.432 0,0 m 3.17,-14.252 c -0.037,-1.093 0.372,-1.74 0.789,-2.377 h 1.585 c -0.211,4.401 3.073,-1.654 3.166,0.792 -1.961,2.377 -1.408,3.135 -4.751,3.166 0.098,-2.19 1.514,-2.715 -0.789,-1.581 m -0.796,17.422 c -1.464,-1.397 0.207,-2.452 1.593,-3.17 -0.113,1.477 -0.53,2.649 -1.593,3.17 m 66.53,132.26 c -1.142,1.679 -2.359,-0.897 -3.962,-1.585 -1.42,-0.604 -5.164,0.192 -4.751,-2.378 3.455,-0.24 3.518,2.348 6.332,0.797 -0.692,2.539 2.058,1.645 2.381,3.166 m 7.918,-5.548 c -1.729,0.151 -2.521,-0.645 -2.378,-2.373 1.186,0.135 2.926,-0.282 3.17,0.788 -0.613,0.185 -1.567,0.031 -1.585,0.797 0.484,0.045 0.939,0.12 0.793,0.788 m 9.506,9.506 c -2.495,0.403 -3.099,-1.723 -4.755,0 0.037,-1.089 -0.372,-1.738 -0.793,-2.373 2.527,-0.68 2.449,1.247 3.963,1.581 1.107,-0.056 3.026,0.177 1.585,0.792 m -19.009,-19.796 c -1.848,-0.266 -3.414,-0.811 -3.958,-2.382 1.847,0.271 3.406,0.816 3.958,2.382 m -11.087,-3.963 c 1.961,-0.116 3.286,0.41 3.959,1.585 -1.965,0.12 -3.283,-0.409 -3.959,-1.585 m 52.269,19.801 c -2.561,0.981 -0.604,-2.561 -3.166,-1.581 -0.713,0.202 -0.417,2.554 0,2.373 -1.822,0.797 -0.628,-0.957 -3.962,-0.792 -3.561,0.177 -2.408,0.409 -4.751,-0.793 -1.146,-0.589 -4.774,-0.987 -2.377,-1.585 2.463,0.966 5.021,1.841 8.712,1.585 0.865,-0.792 3.888,-3.402 4.751,-1.585 -2.294,0.447 1.213,1.24 0.793,2.378 m -1.585,-13.465 c -5.07,0.913 -1.735,-2.419 0,0 m -0.789,4.751 c -2.354,0.189 -7.65,-0.724 -6.336,-1.581 3.426,1.518 4.906,-2.929 6.336,-0.792 -0.616,0.176 -1.562,0.019 -1.585,0.792 0.966,0.09 1.874,0.24 1.585,1.581 M 145.532,328.257 c 1.923,0.924 -0.89,3.733 -1.593,1.585 1.048,-0.008 0.725,-1.386 1.593,-1.585 m 60.182,159.192 c -1.968,-0.087 -2.448,-1.487 -3.958,0 0.232,-2.089 -3.072,-0.632 -2.378,-3.17 3.752,0.143 3.159,1.419 1.585,1.585 1.379,1.465 3.05,-0.203 1.585,-1.585 2.482,-0.368 2.231,1.991 3.166,3.17 m -2.373,-8.714 c 0.383,0.631 1.284,-0.21 1.585,0.789 0.15,0.518 -0.285,1.645 -0.797,1.585 -0.56,-2.374 -5.036,-4.942 -3.958,-6.332 2.065,0.999 2.1,2.186 3.17,3.958 m 12.668,11.88 c 0.939,0.379 1.795,0.845 2.378,1.581 -1.06,0.124 -4.365,-1.243 -2.378,-1.581 M 227.1,465.271 c 0.999,0.927 0.634,3.287 -1.585,3.169 0.109,-1.475 0.518,-2.651 1.585,-3.169 m -2.374,9.506 c -4.589,2.284 -2.088,-1.953 0,0 m 0,9.502 c -0.218,-1.633 -3.511,-0.188 -3.17,-2.378 2.096,-0.687 4.807,1.935 3.17,2.378 m 91.288,-12.304 c -5.071,0.913 -1.736,-2.418 0,0 m 13.465,-6.336 c 1.498,0.353 4.773,-1.075 3.961,1.585 -1.412,-0.436 -3.282,-0.406 -3.961,-1.585 m 41.977,-258.183 c 1.143,-2.738 -0.886,-3.737 0.789,-5.547 -0.62,1.953 2.881,5.484 -0.789,5.547 m -33.261,-48.314 c 0.113,-1.052 -2.667,-2.949 -0.796,-3.166 0.045,0.484 0.121,0.935 0.796,0.793 0.173,-0.613 0.015,-1.563 0.789,-1.585 1.592,1.614 -0.353,1.554 -0.789,3.17 0.436,-0.008 0.894,0.637 0,0.788 m -20.596,-9.502 c 1.393,0.458 4.657,-0.958 4.755,0.797 h -2.375 c -0.938,-0.128 -2.245,0.134 -2.38,-0.797 m 135.429,230.465 c 0.049,0.485 0.12,0.939 0.792,0.792 -0.037,-1.363 0.613,-2.024 1.585,-2.376 1.03,2.824 -5.003,4.124 -2.377,1.584 M 380.162,247.054 c 1.367,-0.042 2.036,0.611 2.381,1.584 -1.363,0.042 -2.027,-0.609 -2.381,-1.584 M 322.354,152.81 c -4.076,-1.915 2.726,-2.047 0,0 m 80.779,307.286 c -0.83,0.045 -0.624,1.017 0.796,0.788 -0.714,-3.177 5.874,-7.775 6.332,-6.332 -0.007,0.128 -0.011,0.146 -0.023,0.233 -0.067,0.446 -0.045,0.537 0,0 0.165,-1.021 0.865,-3.613 3.193,-3.403 -0.177,1.495 0.894,1.747 0.793,3.17 -1.424,-0.098 -1.852,0.789 -1.581,2.378 -4.267,-0.034 -4.692,3.759 -7.921,4.751 -2.491,3.688 -4.263,-4.083 -1.589,-1.585 m -0.793,-7.129 c -3.872,2.997 -2.906,-2.779 0,0 m 59.397,-91.866 c 1.015,-1.157 2.269,-6.115 3.17,-4.755 -1.735,0.909 0.781,6.062 -3.17,4.755 m -45.136,56.231 c 0.496,2.404 -0.706,7.125 -2.377,4.748 2.741,0.375 0.454,-4.301 2.377,-4.748 m 36.423,-38.016 c -0.233,-3.139 0.969,-4.844 2.381,-6.339 -1.16,1.743 0.094,5.908 -2.381,6.339 m 10.298,-16.633 c -1.044,0.006 -0.72,1.389 -1.585,1.584 -0.901,-1.626 1.247,-3.775 1.585,-1.584 m -6.332,20.592 c -2.553,2.663 -2.647,8.556 -5.547,9.502 1.048,-3.117 0.703,-3.455 -1.585,-1.585 -0.308,-2.422 2.205,-2.569 3.17,-3.959 1.98,-2.846 3.632,-7.894 4.751,-11.09 0.428,-1.221 -1.277,-3.541 1.585,-3.166 -1.682,1.874 0.165,4.781 0,5.544 -0.109,0.533 -2.433,4.814 -2.374,4.754 m -121.965,95.037 c -3.203,2.786 -1.87,-2.551 0,0 M 163.961,284.276 c 0.365,2.483 -1.994,2.236 -3.17,3.166 0.268,-1.836 0.512,-3.71 3.17,-3.166 m 297.776,91.87 c -0.24,-0.183 0.166,-1.306 0,-1.584 -0.067,-0.117 -1.201,-0.594 0,-0.792 1.728,-0.287 1.601,3.593 0,2.376 m -141.76,107.708 c -4.617,0.162 -3.565,-0.923 -1.582,-0.791 4.221,0.281 3.511,2.061 1.582,0.791 m 64.152,-37.223 c -1.135,0.191 -1.338,1.304 -2.374,1.585 -0.698,-1.63 2.051,-3.553 2.374,-1.585 m -5.544,-264.519 c -1.442,-2.46 -3.298,-1.288 -3.966,0.792 -0.687,0.309 -2.569,-1.716 -3.955,-1.585 -0.27,0.024 -1.247,2.533 -1.585,0.793 2.46,-0.484 -0.789,-8.36 0.792,-5.54 2.201,-0.36 -0.619,4.312 1.585,3.951 1.326,-3.162 5.725,0.334 6.333,-2.374 -1.491,2.667 3.583,2.6 0.796,3.963 m -3.962,-4.751 c 0.754,-1.472 -2.37,-2.648 0,-3.173 0.236,0.488 1.968,3.049 0,3.173 m 26.136,71.277 c -0.116,-0.935 -1.412,-1.795 0,-2.377 0.113,0.935 1.405,1.799 0,2.377 m -21.385,-57.024 c -2.186,0.537 -1.807,0.143 -3.17,2.378 0.041,-1.094 -0.372,-1.739 -0.789,-2.378 1.577,-0.525 3.38,-2.73 3.959,0 M 239.989,145.682 c -1.359,0.041 -2.035,-0.609 -2.381,-1.582 1.368,-0.045 2.033,0.608 2.381,1.582 m 6.336,0.788 c 0.305,0.864 0.946,1.908 0,0.797 -4.525,0.555 -4.525,-1.349 0,-0.797 m 121.173,25.343 c -1.672,-2.204 -4.563,-5.339 -3.17,-7.127 1.484,0.905 0.623,3.395 1.585,4.754 0.157,0.218 1.465,-0.233 1.585,0 0.849,1.638 0.248,2.644 1.581,3.958 0.401,0.395 1.732,-0.149 1.585,0.79 -2.144,2.256 -1.874,-0.669 -3.166,-2.375 m 21.378,54.647 c -1.45,0.222 0.157,-1.378 0,-1.585 -0.195,-0.251 -0.443,-0.454 -0.699,-0.657 1.607,0.849 3.35,1.92 0.699,2.242 m -2.374,-3.166 c -0.023,-0.015 -0.041,-0.033 -0.06,-0.049 0.638,0.26 1.232,0.575 1.735,0.973 -0.721,-0.379 -1.412,-0.721 -1.675,-0.924 m 71.281,79.198 c -1.086,-2.377 -7.102,-3.955 -5.548,-6.336 1.39,2.57 3.959,3.959 6.336,5.543 0.038,0.842 -0.372,2.014 -0.788,0.793 m -24.555,-5.547 c 0.213,1.634 2.948,0.751 3.169,2.381 -2.099,0.688 -4.803,-1.938 -3.169,-2.381 m -4.751,-3.955 c -0.308,-1.131 -0.955,-1.341 0,-2.378 -2.096,-0.01 -4.662,0.44 -4.748,-1.585 2.569,0.718 5.604,-0.097 7.125,3.17 -1.093,-0.033 -1.739,0.376 -2.377,0.793 m 3.169,18.212 c 0.387,-0.639 -0.142,-1.458 0.79,-1.585 -0.553,0.075 0.871,1.201 0.795,0.796 0.023,0.15 -3.169,3.422 -1.585,0.789 m -8.781,-4.883 c 0.504,-0.427 0.582,0.012 0,0 M 235.234,148.844 c 1.037,2.452 -2.246,4.499 -3.17,2.381 1.53,-0.324 0.072,-3.624 3.17,-2.381 m -89.496,206.714 c -0.221,2.396 4.594,9.261 2.378,7.917 -0.459,-2.479 -4.481,-5.506 -2.378,-7.917 M 186.132,201.12 c -0.045,-1.014 -1.015,-1.097 -0.789,-2.377 h 1.585 c 0.886,1.146 0.852,1.93 -0.796,2.377 m 44.351,-54.65 c 1.371,-1.378 4.902,-0.875 5.548,0.797 -2.366,-0.215 -4.83,2.212 -5.548,-0.797 m 3.959,-2.37 c -2.095,0.335 -4.807,0.868 -3.17,-0.796 0.049,0.484 0.124,0.939 0.792,0.796 -0.378,-1.795 1.992,-4.758 3.17,-2.381 -1.644,0.447 -1.674,1.239 -0.792,2.381"
           style="fill:#231f20;fill-opacity:1;fill-rule:evenodd;stroke:none"
           id="path21769"
           inkscape:connector-curvature="0" /></g></g></g></svg>