<?xml version="1.0" encoding="UTF-8" standalone="no"?>
<!-- Created with Inkscape (http://www.inkscape.org/) -->

<svg
   xmlns:dc="http://purl.org/dc/elements/1.1/"
   xmlns:cc="http://creativecommons.org/ns#"
   xmlns:rdf="http://www.w3.org/1999/02/22-rdf-syntax-ns#"
   xmlns:svg="http://www.w3.org/2000/svg"
   xmlns="http://www.w3.org/2000/svg"
   xmlns:sodipodi="http://sodipodi.sourceforge.net/DTD/sodipodi-0.dtd"
   xmlns:inkscape="http://www.inkscape.org/namespaces/inkscape"
   width="276.44711"
   height="116.45046"
   id="svg82094"
   version="1.1"
   inkscape:version="0.48.4 r9939"
   sodipodi:docname="Nytt dokument 49">
  <defs
     id="defs82096" />
  <sodipodi:namedview
     id="base"
     pagecolor="#ffffff"
     bordercolor="#666666"
     borderopacity="1.0"
     inkscape:pageopacity="0.0"
     inkscape:pageshadow="2"
     inkscape:zoom="2.7059701"
     inkscape:cx="151.42857"
     inkscape:cy="58.571429"
     inkscape:document-units="px"
     inkscape:current-layer="layer1"
     showgrid="false"
     fit-margin-top="0"
     fit-margin-left="0"
     fit-margin-right="0"
     fit-margin-bottom="0"
     inkscape:window-width="1366"
     inkscape:window-height="705"
     inkscape:window-x="-8"
     inkscape:window-y="-8"
     inkscape:window-maximized="1" />
  <metadata
     id="metadata82099">
    <rdf:RDF>
      <cc:Work
         rdf:about="">
        <dc:format>image/svg+xml</dc:format>
        <dc:type
           rdf:resource="http://purl.org/dc/dcmitype/StillImage" />
        <dc:title></dc:title>
      </cc:Work>
    </rdf:RDF>
  </metadata>
  <g
     inkscape:label="Layer 1"
     inkscape:groupmode="layer"
     id="layer1"
     transform="translate(-236.77644,-474.13696)">
    <g
       id="g38834"
       transform="matrix(1.25,0,0,-1.25,496.41037,491.94328)"
       style="fill:#000000">
      <path
         inkscape:connector-curvature="0"
         d="M 0,0 -0.104,-0.196 0,0 z m -106.49,-29.853 c 0.06,-0.026 0.366,-0.365 0.271,-0.063 -0.04,0.13 -0.206,0.202 -0.271,0.063 m -18.022,-20.724 c 0.082,0.173 0.264,-0.13 0.177,-0.213 -0.035,-0.032 -0.321,-0.067 -0.432,-0.09 0.009,0.131 0.198,0.184 0.255,0.303 m 2.2,9.613 c 0.031,-0.144 0.237,-0.101 0.207,0.043 -0.03,0.143 -0.237,0.1 -0.207,-0.043 m -62.886,-20.456 c 0.03,-0.144 0.237,-0.101 0.206,0.044 -0.03,0.143 -0.237,0.1 -0.206,-0.044 m 57.554,9.165 c -0.03,0.144 0.177,0.188 0.206,0.044 0.031,-0.144 -0.176,-0.188 -0.206,-0.044 m 27.254,22.831 c -0.029,0.144 0.177,0.187 0.207,0.043 0.03,-0.144 -0.176,-0.187 -0.207,-0.043 m -31.292,-21.214 c 0.03,-0.144 0.237,-0.101 0.206,0.043 -0.03,0.144 -0.236,0.1 -0.206,-0.043 m -34.675,-23.156 c 0.098,-0.188 0.664,-0.069 0.678,0.142 l -0.678,-0.142 z m 157.762,63.656 c -0.03,0.144 0.176,0.187 0.206,0.044 0.03,-0.144 -0.176,-0.188 -0.206,-0.044 m -160.503,-67.777 c -0.03,0.144 0.177,0.187 0.207,0.043 0.031,-0.143 -0.176,-0.187 -0.207,-0.043 m 4.856,60.5 c -0.03,0.144 0.177,0.187 0.207,0.043 0.03,-0.143 -0.176,-0.186 -0.207,-0.043 M -0.104,-0.196 c -0.022,-0.075 -0.039,-0.169 -0.093,-0.246 -0.098,-0.137 -0.24,-0.075 -0.363,0.127 -0.068,0.111 0.315,0.073 0.456,0.119 m -143.969,-64.295 0.053,-0.251 c 0.195,-0.011 0.644,0.006 0.367,0.34 l -0.42,-0.089 z m 20.533,14.485 0.419,0.088 c 0.278,-0.333 -0.171,-0.35 -0.366,-0.34 l -0.053,0.252 z m 1.267,0.574 0.419,0.089 c 0.277,-0.334 -0.172,-0.351 -0.367,-0.341 l -0.052,0.252 z m 3.979,47.802 0.12,-0.575 c 0.113,0.057 0.185,0.212 0.209,0.338 0.041,0.204 -0.089,0.436 -0.329,0.237 m -70.916,-52.654 c 0.242,0.201 0.371,-0.031 0.331,-0.236 -0.025,-0.125 -0.096,-0.281 -0.21,-0.337 l -0.121,0.573 z m 64.317,34.176 c -0.013,-0.131 0.105,-0.257 0.228,-0.305 0.167,-0.065 0.237,0.15 0.242,0.285 0.009,0.238 -0.317,0.047 -0.47,0.02 m -12.295,-34.026 c 0.17,0.119 0.435,0.094 0.348,-0.207 l -0.573,-0.121 c 0.006,0.128 0.12,0.254 0.225,0.328 m 37.492,24.856 0.599,0.125 c 0.354,-0.477 -0.382,-0.32 -0.543,-0.389 l -0.056,0.264 z m -21.459,-19.611 0.598,0.126 c 0.354,-0.477 -0.381,-0.32 -0.543,-0.388 l -0.055,0.262 z m 84.909,27.856 0.742,0.156 c -0.027,-0.338 -0.395,-0.422 -0.686,-0.423 l -0.056,0.267 z m -97.56,-15.336 c -0.046,0.016 -0.241,-0.038 -0.278,-0.07 -0.099,-0.09 -0.154,-0.257 -0.08,-0.39 l 0.583,0.123 c 0.016,0.152 -0.097,0.295 -0.225,0.337 m 15.532,-0.195 c -0.136,0.21 -0.349,0.293 -0.579,0.151 0.014,-0.189 0.235,-0.335 0.408,-0.407 0.144,-0.059 0.255,0.126 0.171,0.256 m 80.582,15.073 0.778,0.163 c 0.238,-0.485 -0.49,-0.35 -0.724,-0.418 l -0.054,0.255 z m -83.055,-10.978 -0.281,-0.059 c 0.063,-0.204 -0.025,-0.542 0.267,-0.653 0.147,-0.055 0.265,0.056 0.23,0.147 -0.066,0.17 -0.136,0.375 -0.216,0.565 m 53.985,-14.095 c 0.128,-0.042 0.174,-0.22 0.026,-0.228 -0.253,-0.014 -0.588,-0.084 -0.815,0.173 0.134,0.134 0.507,0.148 0.789,0.055 m -47.004,31.897 c 0.04,-0.088 -0.087,-0.212 -0.226,-0.131 -0.183,0.108 -0.378,0.274 -0.261,0.524 0.141,0.3 0.414,-0.225 0.487,-0.393 m 29.04,-12.233 c 0.122,-0.181 -0.128,-0.419 -0.337,-0.365 -0.164,0.041 -0.343,0.189 -0.338,0.357 0.222,0.028 0.512,0.249 0.675,0.008 m 50.318,6.39 c 0.08,0.061 0.393,0.1 0.57,0.137 0.03,-0.441 -0.702,-0.444 -1.067,-0.493 -0.016,0.28 0.341,0.236 0.497,0.356 M -199.77,-36.292 c 0.295,0.041 0.625,0.056 0.789,-0.093 0.154,-0.139 0.163,-0.439 -0.037,-0.186 -0.262,-0.188 -0.461,0.064 -0.64,0.164 -0.031,0.017 -0.093,0.098 -0.112,0.115 m 53.645,-14.761 0.093,-0.443 0.59,0.124 -0.093,0.443 -0.59,-0.124 z m -1.61,-17.126 c 0.12,-0.158 0.422,-0.276 0.386,-0.577 -0.363,0.061 -0.655,0.413 -0.871,0.685 0.135,0.069 0.347,0.075 0.485,-0.108 M 3.736,-3.784 c 0.156,0.003 0.388,-0.104 0.375,-0.3 -0.222,-0.008 -0.395,-0.119 -0.574,-0.218 -0.13,0.114 -0.194,0.351 -0.1,0.448 0.045,0.048 0.239,0.068 0.299,0.07 m -128.161,-40.03 -0.059,-0.23 c -0.417,0.03 -0.722,-0.304 -0.986,-0.611 0.283,-0.046 0.745,0.182 0.931,0.411 0.043,0.054 0.045,0.171 0.055,0.2 l 0.059,0.23 z m -3.391,19.433 c -0.199,0.063 -0.415,-0.007 -0.416,-0.24 -0.001,-0.132 0.036,-0.75 0.336,-0.316 0.109,0.157 0.27,0.496 0.08,0.556 m 10.252,35.047 c -0.157,0.218 -0.391,0.289 -0.568,0.135 -0.096,-0.084 -0.067,-0.433 0.203,-0.456 0.202,-0.018 0.453,0.199 0.365,0.321 m 23.703,-45.338 c 0.399,-0.341 -0.17,-0.348 -0.342,-0.339 -0.191,0.01 -0.4,0.159 -0.505,0.293 0.281,0.043 0.604,0.254 0.847,0.046 m -39.03,3.984 c -0.287,-0.312 -0.627,-0.648 -0.432,-1.035 0.105,0.31 0.491,0.387 0.522,0.63 0.019,0.151 0.034,0.54 -0.09,0.405 m 22.553,-2.144 c -0.186,0.097 -0.409,0.246 -0.498,0.27 -0.254,0.069 -0.404,-0.167 -0.237,-0.36 0.134,-0.153 0.372,-0.12 0.544,-0.166 0.27,-0.071 0.242,0.23 0.191,0.256 M 13.364,2.792 c 0.094,-0.268 0.146,-0.62 -0.029,-0.811 -0.133,-0.147 -0.276,-0.016 -0.35,0.092 -0.04,0.059 -0.077,0.371 -0.102,0.486 0.182,0.024 0.42,0.019 0.481,0.233 m -31.373,-11.37 c -0.055,0.13 -0.147,0.301 -0.302,0.31 -0.271,0.017 -0.228,-0.378 -0.134,-0.591 0.088,-0.197 0.316,-0.15 0.508,-0.037 0.066,0.04 -0.026,0.21 -0.072,0.318 m -50.15,-28.886 c 0.347,0.312 0.241,-0.278 0.29,-0.386 l -1.015,-0.395 c -0.018,0.442 0.479,0.56 0.725,0.781 M -178.286,-68.69 c -0.141,0.058 -0.489,0.107 -0.606,0.112 -0.144,0.008 -0.348,-0.201 -0.256,-0.277 0.231,-0.192 0.479,-0.522 0.759,-0.275 0.111,0.097 0.287,0.364 0.103,0.44 m 64.282,51.014 c -0.318,-0.137 -0.54,-0.428 -0.603,-0.788 -0.028,-0.162 0.363,-0.018 0.495,0.082 0.188,0.143 0.405,0.388 0.395,0.614 -0.007,0.119 -0.167,0.143 -0.287,0.092 m -8.416,-5.809 c -0.121,0.235 -0.378,0.152 -0.592,0.185 -0.122,0.019 -0.519,0.041 -0.445,-0.063 0.189,-0.267 0.31,-0.672 0.591,-0.512 0.179,0.102 0.557,0.173 0.446,0.39 m -62.173,-14.698 c -0.082,0.085 -0.2,0.158 -0.297,0.023 -0.217,-0.301 0.026,-0.674 0.073,-0.99 l 0.407,0.085 c 0,0.299 0.039,0.655 -0.183,0.882 m 59.568,-12.601 c 0.314,-0.318 -0.687,-0.596 -0.846,-0.668 -0.324,-0.145 -0.506,-0.344 -0.665,-0.341 -0.461,0.008 0.054,0.286 0.121,0.332 0.472,0.315 0.967,0.381 1.39,0.677 m 4.589,37.529 c -0.148,-0.379 -0.641,-0.594 -0.514,-1.128 0.419,0.026 0.675,0.618 0.785,0.963 0.064,0.198 -0.148,0.48 -0.271,0.165 m -0.754,3.397 c 0.001,0.016 -0.074,0.066 -0.091,0.086 -0.198,0.227 -0.471,0.017 -0.7,-0.013 0.059,-0.318 0.273,-0.659 0.551,-0.746 0.187,-0.059 0.368,0.034 0.407,0.249 0.023,0.13 -0.165,0.22 -0.167,0.424 m -11.745,-52.305 c -0.079,0.048 -0.303,0.216 -0.357,0.21 -0.334,-0.033 -0.865,-0.072 -0.977,-0.303 0.376,-0.254 0.804,-0.161 1.186,-0.23 0.228,-0.04 0.379,0.185 0.148,0.323 m 0.904,32.71 c -0.085,0.084 -0.216,0.169 -0.287,0.012 -0.112,-0.248 -0.27,-0.621 -0.073,-0.85 0.147,-0.172 0.42,-0.102 0.539,0.033 0.223,0.251 0.016,0.613 -0.179,0.805 m -17.281,-12.305 c -0.037,0.1 -0.253,0.363 -0.326,0.432 -0.102,0.097 -0.264,0.154 -0.39,0.084 0.024,-0.313 0.154,-0.593 0.342,-0.86 0.152,-0.215 0.137,-0.899 0.589,-0.676 -0.049,0.233 -0.145,0.833 -0.215,1.02 m 0.304,-22.765 c -0.094,0.015 -0.197,0.052 -0.299,0.008 l 0.215,-1.023 c 0.197,0.047 0.446,0.033 0.581,0.187 0.214,0.244 -0.001,0.569 -0.044,0.847 -0.075,-0.003 -0.354,-0.037 -0.453,-0.019 m 33.736,29.21 c -0.32,-0.186 -0.582,-0.343 -0.664,-0.632 -0.1,-0.355 0.436,-0.413 0.272,-0.772 0.025,0.005 0.263,-0.001 0.31,0.065 0.155,0.217 0.032,0.563 0.166,0.851 0.064,0.134 0.032,0.556 -0.084,0.488 m -7.149,-7.985 c -0.613,-0.385 -1.121,-0.905 -1.673,-1.524 0.881,0.431 1.519,0.768 1.927,1.277 0.112,0.141 -0.067,0.364 -0.254,0.247 m 11.165,5.163 c -0.243,0.282 -0.636,0.381 -0.988,0.37 0.027,-0.335 0.221,-0.615 0.359,-0.9 0.091,-0.184 0.324,-0.15 0.436,-0.047 0.132,0.122 0.378,0.361 0.193,0.577 m -10.08,-6.494 c -0.064,0.034 -0.19,0.137 -0.241,0.131 -0.306,-0.039 -0.59,-0.231 -0.889,-0.354 l 0.124,-0.588 1.039,0.218 c -0.082,0.205 -0.05,0.407 -0.033,0.593 m -28.873,0.124 c -0.02,0.023 -0.151,0.096 -0.196,0.094 -0.403,-0.027 -0.769,-0.235 -1.136,-0.406 -0.205,-0.095 -0.474,-0.267 -0.433,-0.542 0.599,0.152 1.146,0.334 1.653,0.549 0.091,0.039 0.225,0.175 0.112,0.305 m 22.845,44.348 c -0.305,-0.389 -0.394,-0.847 -0.474,-1.268 -0.031,-0.159 0.086,-0.303 0.162,-0.26 0.425,0.243 0.75,0.805 0.627,1.386 -0.055,0.256 -0.232,0.249 -0.315,0.142 m 7.812,-41.511 c -0.381,-0.294 -1.267,-0.296 -1.713,-0.529 0.294,-0.225 0.547,-0.238 0.72,-0.378 0.352,0.218 0.943,0.144 1.102,0.668 0.044,0.147 -0.075,0.266 -0.109,0.239 m -47.565,4.77 c -0.128,0.123 -0.247,-0.025 -0.276,-0.138 -0.072,-0.278 -0.224,-0.604 -0.105,-0.777 0.175,-0.255 0.462,-0.558 0.806,-0.48 -0.141,0.511 -0.111,1.094 -0.425,1.395 m 50.615,-5.189 c 0.13,-0.44 -0.515,-0.829 -0.794,-0.975 l -1.348,-0.704 c -0.258,0.311 0.145,0.309 0.234,0.384 0.575,0.479 1.192,0.886 1.908,1.295 m -8.515,13.695 c -0.153,0.24 -0.5,0.242 -0.616,0.064 -0.145,-0.219 -0.39,-0.489 -0.416,-0.826 0.389,-0.171 0.837,0.354 1.212,0.042 0.066,0.242 -0.049,0.517 -0.18,0.72 m -54.543,-41.4 c -0.186,0.273 -0.534,0.115 -0.687,0.083 -0.571,-0.12 -0.618,-0.776 -0.617,-1.147 0.415,0.271 0.753,0.572 1.18,0.772 0.092,0.042 0.214,0.16 0.124,0.292 m 56.111,51.685 c -0.135,0.178 -0.382,0.354 -0.567,0.165 -0.207,-0.211 -0.453,-0.515 -0.497,-0.833 0.214,-0.067 0.449,0.04 0.653,0.106 0.196,0.065 0.582,-0.151 0.735,0.17 0.116,0.246 -0.24,0.281 -0.324,0.392 m -22.204,-21.996 c -0.18,-0.013 -0.722,-0.116 -0.869,-0.193 -0.233,-0.125 -0.087,-0.391 -0.01,-0.586 0.019,-0.05 0.254,-0.275 0.357,-0.273 0.343,0.01 0.603,0.434 0.827,0.737 0.16,0.216 -0.178,0.325 -0.305,0.315 m 6.411,-19.201 c -0.019,0.021 -0.149,0.088 -0.166,0.088 -0.547,0.014 -1.112,-0.02 -1.717,-0.196 0.036,-0.137 -0.004,-0.435 0.263,-0.466 0.383,-0.043 0.998,0.124 1.509,0.274 0.091,0.027 0.225,0.17 0.111,0.3 m 53.514,28.102 c 0.118,-0.037 0.276,-0.076 0.292,-0.166 0.053,-0.297 -0.292,-0.08 -0.436,-0.084 -0.224,-0.005 -0.873,-0.1 -1.056,-0.043 -0.256,0.08 -0.568,0.212 -0.625,0.431 -0.082,0.309 0.279,0.102 0.352,0.104 0.387,0.013 0.695,0.082 0.996,0.027 0.1,-0.018 0.37,-0.234 0.477,-0.269 M 0,0 C 0.373,0.598 1.059,1.203 2.079,1.204 2.115,0.863 1.877,0.359 1.474,0.391 0.959,0.434 0.483,0.136 0,0 m -117.097,-35.942 c -0.204,-0.111 -0.584,-0.098 -0.558,-0.349 0.043,-0.411 -0.035,-0.81 0.095,-1.21 0.12,0.025 0.423,0.067 0.519,0.109 0.285,0.123 0.006,0.439 0.062,0.608 0.12,0.361 0.513,0.645 0.489,1.042 -0.235,-0.027 -0.425,-0.102 -0.607,-0.2 m -15.864,10.265 c -0.303,-0.393 -0.472,-0.894 -0.814,-1.223 -0.19,-0.183 -0.216,-0.489 -0.168,-0.803 0.013,-0.088 -0.072,-0.501 0.018,-0.385 0.482,0.621 0.864,1.279 1.148,2.01 0.039,0.101 -0.007,0.631 -0.184,0.401 m -5.222,-21.839 c 0.14,-0.201 0.063,-0.429 -0.105,-0.561 -0.246,-0.191 -0.458,-0.56 -0.799,-0.505 -0.089,0.015 -0.312,0.207 -0.34,0.26 -0.171,0.322 -0.115,0.679 0.029,1.006 0.273,-0.013 0.569,0.031 0.853,0.015 0.083,-0.004 0.329,-0.169 0.362,-0.215 m -29.584,-17.565 c -0.004,0.229 -0.23,0.443 -0.482,0.426 -0.357,-0.026 -0.696,-0.371 -1.129,-0.535 l 0.847,-1.018 c 0.519,0.135 0.772,0.754 0.764,1.127 m 60.703,35.456 c -0.03,0.08 -0.258,0.152 -0.316,0.183 -0.429,0.234 -0.975,0.342 -1.613,0.15 -0.14,-0.042 -0.195,-0.466 -0.112,-0.712 0.527,0.029 1.014,-0.095 1.472,-0.129 0.236,-0.019 0.657,0.262 0.569,0.508 m -24.993,-11.388 c -0.076,0.005 -0.309,0.098 -0.401,0.074 -0.601,-0.159 -1.136,-0.438 -1.625,-0.751 -0.153,-0.098 -0.854,-0.022 -0.521,-0.46 0.913,0.216 2.08,0.328 2.757,0.647 -0.01,0.312 -0.026,0.48 -0.21,0.49 m 20.494,4.401 c -0.323,0.496 -0.855,0.814 -1.381,1.176 -0.093,0.063 -0.306,-0.158 -0.296,-0.407 0.004,-0.103 0.343,-0.558 0.464,-0.689 0.349,-0.377 0.95,-0.749 1.597,-0.561 0.037,0.268 -0.294,0.342 -0.384,0.481 m -13.008,19.247 c -0.275,0.297 -0.668,0.471 -1.046,0.535 -0.133,-0.216 -0.326,-0.364 -0.42,-0.536 -0.076,-0.137 0.031,-0.308 0.204,-0.377 -0.156,-0.118 -0.325,-0.213 -0.379,-0.354 0.281,-0.19 0.645,-0.421 0.984,-0.195 0.167,0.111 0.201,0.319 0.268,0.548 0.218,-0.02 0.703,0.04 0.389,0.379 m -27.569,-50.63 c -0.375,0.336 -0.849,0.538 -1.403,0.723 -0.152,0.05 -0.4,-0.207 -0.63,-0.471 0.392,-0.472 1.028,-0.836 1.782,-0.78 0.219,0.016 0.451,0.349 0.251,0.528 m 59.7,29.45 c -0.029,0.029 -0.119,0.12 -0.156,0.151 -0.668,0.574 -1.557,0.874 -2.483,1.069 -0.263,0.055 -0.248,-0.364 -0.024,-0.508 0.656,-0.424 1.681,-0.538 2.498,-0.966 0.132,-0.07 0.272,0.146 0.165,0.254 m 28.266,-4.296 c 0.028,-0.377 -0.033,-1.025 0.195,-1.602 -0.335,-0.076 -0.688,0.078 -0.955,-0.051 -0.155,-0.076 -0.201,-0.306 -0.329,-0.322 -0.194,-0.022 -0.231,0.155 -0.091,0.242 0.148,0.092 0.278,0.289 0.203,0.45 -0.143,0.309 -0.44,0.722 -0.225,0.973 0.238,0.279 0.586,0.41 0.898,0.46 0.047,0.007 0.297,-0.069 0.304,-0.15 m -20.97,-0.776 c -0.127,0.134 -0.691,0.459 -0.879,0.559 -0.297,0.162 -0.603,0.243 -0.979,0.214 -0.12,-0.009 -0.518,0.034 -0.386,-0.164 0.521,-0.783 1.29,-1.564 2.536,-1.163 0.01,0.209 -0.137,0.394 -0.292,0.554 m -31.397,5.084 c -0.135,-0.088 -0.634,-0.239 -0.743,-0.387 l -0.86,-1.175 c -0.201,-0.288 -0.645,-0.778 -0.375,-1.112 0.402,0.191 0.758,0.423 0.991,0.712 l 1.287,1.731 c 0.114,0.139 -0.056,0.391 -0.3,0.231 m 3.914,49.581 c -0.229,0.085 -0.443,0.237 -0.62,0.244 -0.736,0.029 -1.626,-0.124 -2.435,-0.338 -0.011,-0.211 0.098,-0.454 0.35,-0.5 0.839,-0.152 1.893,0.16 2.798,0.169 0.065,0.138 0.027,0.381 -0.093,0.425 m -7.662,-22.49 c -0.108,0.065 -0.354,0.272 -0.425,0.255 -0.406,-0.101 -0.759,-0.422 -1.14,-0.637 -0.362,-0.204 -0.689,-0.601 -0.5,-1.036 0.094,-0.212 0.472,-0.259 0.68,-0.188 0.823,0.278 1.169,0.945 1.385,1.606 m 11.283,-27.116 c -0.147,0.178 -0.411,0.29 -0.65,0.388 -0.06,0.024 -0.317,-0.033 -0.337,-0.053 -0.551,-0.554 -0.766,-1.307 -0.896,-2.036 0.11,0.023 0.641,0.081 0.766,0.161 l 1.343,0.84 c -0.029,0.278 -0.074,0.516 -0.226,0.7 m -19.859,12.692 c -0.043,-0.009 -0.149,-0.088 -0.19,-0.105 -0.309,-0.125 -0.722,0.087 -0.902,-0.135 -0.522,-0.647 -0.808,-1.458 -0.843,-2.402 -0.004,-0.084 -10e-4,-0.319 0.17,-0.189 0.665,0.509 0.974,1.293 1.331,1.963 0.046,0.085 0.396,0.06 0.442,0.112 0.2,0.227 0.36,0.501 0.594,0.745 -0.067,0.216 -0.421,0.049 -0.602,0.011 m -1.795,-6.423 c -0.445,-0.45 -1.002,-0.873 -1.528,-1.24 -0.379,-0.668 -1.045,-1.012 -1.57,-1.483 -0.199,-0.179 -0.563,-0.535 -0.323,-0.862 0.343,0.412 0.889,0.569 1.203,1.001 0.032,0.044 0.484,0.019 0.621,0.14 0.652,0.572 1.159,1.304 1.674,2.061 0.078,0.116 0.065,0.526 -0.077,0.383 m -51.643,-25.286 c -0.042,-0.018 -0.136,-0.149 -0.168,-0.188 -0.348,-0.423 -0.657,-1.054 -0.348,-1.617 0.245,-0.444 0.745,-0.843 1.429,-0.607 0.14,0.643 -0.206,1.654 -0.391,2.522 -0.089,-0.019 -0.422,-0.068 -0.522,-0.11 m 12.617,22.528 c 0.129,0.066 0.223,0.194 0.207,0.323 -0.016,0.125 0.103,0.632 -0.28,0.442 -0.773,-0.382 -1.299,-1.039 -1.352,-1.892 -0.013,-0.203 0.109,-0.846 0.19,-1.01 0.055,-0.112 0.245,-0.253 0.35,-0.095 0.272,0.407 0.518,0.914 1.044,1.392 0.125,0.113 -0.107,0.515 -0.159,0.84 m 139.091,15.966 4.966,1.049 c 0.077,-0.176 -0.006,-0.452 -0.21,-0.496 -2.459,-0.527 -5.307,-0.949 -7.154,-1.847 -0.355,0.47 0.338,0.412 0.501,0.485 0.63,0.282 1.209,0.629 1.897,0.809 M -69.95,-45.957 c -0.757,-0.111 -1.388,0.228 -2.013,0.321 -1.317,0.195 -2.725,0.443 -3.957,0.807 -0.317,0.093 -0.628,0.46 -0.481,0.844 0.642,-0.179 1.196,-0.533 2.047,-0.496 0.309,-0.293 0.765,-0.562 1.302,-0.616 0.848,-0.085 1.786,-0.155 2.514,-0.473 0.116,-0.051 0.428,-0.283 0.588,-0.387 m -92.813,22.25 c -0.004,0.009 -0.154,0.121 -0.201,0.099 -0.624,-0.286 -1.354,-0.573 -2.073,-0.777 -0.245,-0.07 -0.541,-0.55 -0.38,-0.643 0.633,-0.368 1.382,-0.593 2.115,-0.748 l -0.153,0.727 c 0.309,0.178 0.417,0.576 0.613,0.789 0.155,0.169 0.178,0.372 0.079,0.553 m 46.709,-10.246 c -0.039,0.026 -0.157,0.109 -0.207,0.116 -0.615,0.072 -1.262,-0.097 -2.005,-0.286 0.058,-0.179 0.297,-0.401 0.182,-0.544 -0.272,-0.337 -0.712,-0.539 -1.289,-0.569 0.033,-0.288 0.035,-0.694 0.411,-0.682 0.265,0.009 0.48,0.383 0.768,0.419 0.942,0.119 1.717,0.506 2.172,1.029 0.141,0.161 0.116,0.414 -0.032,0.517 m -6.531,11.729 -0.618,1.363 c -0.162,0.356 -0.697,-0.185 -1.118,-0.243 -0.212,-0.028 -0.478,-0.236 -0.437,-0.496 0.183,0.038 0.659,0.178 0.791,0.166 0.126,-0.012 0.32,-0.114 0.196,-0.333 -0.158,-0.28 -0.73,-0.263 -1.027,-0.733 -0.039,-0.062 -0.305,-0.402 -0.014,-0.454 0.566,-0.101 1.524,0.207 2.223,0.15 0.273,-0.022 0.067,0.441 0.004,0.58 m -46.48,-10.042 c -0.162,-0.026 -0.552,-0.012 -0.705,-0.205 -0.522,-0.661 -1.346,-1.283 -2.647,-1.465 0,-0.416 0.201,-0.618 0.316,-0.915 0.065,-0.164 0.288,-0.577 0.491,-0.209 0.233,0.424 0.709,0.738 1.056,1.225 0.388,0.234 0.904,0.369 1.503,0.446 0.061,0.239 0.233,0.433 0.267,0.616 0.037,0.195 -0.01,0.549 -0.281,0.507 m 50.817,0.806 -1.332,0.844 c -0.167,0.101 -0.732,0.187 -0.914,0.204 -0.143,0.014 -0.35,-0.212 -0.247,-0.296 0.267,-0.22 0.595,-0.476 0.632,-0.667 0.187,-0.959 0.824,-1.455 1.443,-1.756 0.198,0.287 0.527,0.58 0.314,0.941 0.142,0.181 0.386,0.515 0.104,0.73 m 9.075,-8.769 c -0.587,-0.264 -1.094,-0.546 -1.401,-1.018 0.09,-0.681 0.286,-1.279 0.539,-1.807 0.084,-0.176 0.337,-0.158 0.456,-0.254 0.335,-0.271 0.882,-0.11 0.954,0.16 0.099,0.372 -0.346,0.655 -0.513,0.97 -0.072,0.138 -0.173,0.537 -0.159,0.656 0.049,0.416 0.162,0.844 0.312,1.158 0.12,0.249 -0.108,0.17 -0.188,0.135 m -59.077,1.245 c 0.001,-0.003 -0.054,0.046 -0.07,0.067 -0.198,0.228 -0.471,0.017 -0.69,-0.011 l -0.162,-2.494 c -0.027,-0.402 -0.091,-0.82 0.04,-1.224 0.252,0.035 0.531,0.174 0.694,0.36 0.43,0.494 1.022,1.168 0.606,1.985 -0.208,0.409 -0.273,0.898 -0.418,1.317 m 23.747,-12.497 c -0.005,-0.373 0.034,-0.792 -0.198,-1.097 -0.094,-0.122 -0.298,-0.149 -0.479,-0.293 -0.181,-0.144 -0.11,0.243 -0.155,0.308 -0.205,0.296 -0.634,0.111 -0.76,-0.247 -0.029,-0.082 0.417,-0.659 -0.199,-0.674 -0.19,-0.005 -0.224,-0.335 -0.194,-0.576 0.02,-0.168 0.048,-0.381 0.258,-0.386 0.339,-0.007 0.681,0.25 0.813,0.636 0.096,0.281 0.368,-0.094 0.444,-0.224 0.467,0.195 1.269,0.31 1.203,0.59 l -0.502,2.125 c -0.055,0.247 0.065,0.975 -0.418,0.77 0.046,-0.223 0.189,-0.755 0.187,-0.932 m 34.224,22.286 c -0.156,0.209 -0.395,0.059 -0.584,0.018 -0.133,0.158 -0.249,0.363 -0.411,0.362 -0.94,-0.002 -1.819,0.115 -2.834,-0.073 0.032,-0.155 0.07,-0.567 0.141,-0.674 0.084,-0.128 0.244,-0.257 0.431,-0.366 0.615,-0.357 1.684,-0.059 2.422,0.379 0.105,-0.324 -0.104,-0.482 -0.235,-0.622 -0.036,-0.038 -0.315,-0.047 -0.358,-0.09 -0.144,-0.144 -0.281,-0.341 -0.326,-0.531 0.205,0.043 0.79,0.117 0.939,0.197 0.231,0.125 0.231,0.421 0.121,0.639 0.1,0.039 0.357,0.14 0.44,0.183 0.205,0.106 0.439,0.33 0.254,0.578 m -18.087,23.676 c -0.187,0.102 -0.318,0.202 -0.35,0.192 -0.6,-0.174 -1.141,-0.434 -1.474,-0.895 0.931,-1.255 1.485,-3.565 0.885,-4.944 -0.133,-0.305 -0.601,-0.589 -0.349,-0.986 0.284,0.019 0.645,0.172 0.709,0.4 l 0.423,1.377 c 0.16,1.583 -0.151,3.489 0.156,4.856 m 21.284,-25.141 c -0.213,0.213 -0.623,-0.004 -0.997,0.029 -0.296,0.027 -0.675,-0.072 -0.789,-0.445 -0.259,0.272 -0.605,0.255 -0.893,0.116 -0.366,-0.176 -0.671,-0.464 -0.975,-0.73 -0.13,-0.114 -0.155,-0.335 -0.07,-0.379 0.666,-0.348 1.322,-0.664 2.002,-0.927 0.486,0.078 0.937,-0.291 1.44,-0.233 0.022,0.259 -0.013,0.756 -0.132,0.704 -0.101,-0.045 -0.431,-0.112 -0.153,0.087 0.279,0.198 0.401,0.545 0.836,0.493 -0.319,0.218 -0.707,0.382 -0.904,0.68 0.196,0.153 0.481,0.131 0.687,0.235 0.122,0.063 0.045,0.273 -0.052,0.37 m -18.785,10.711 c -0.158,0.182 -0.516,0.273 -0.795,0.384 -0.098,0.039 -0.489,-0.132 -0.589,-0.094 -0.406,0.153 -0.892,0.068 -1.536,0.255 -0.014,0.004 -0.099,-0.253 -0.151,-0.466 -0.07,-0.281 0.433,-0.358 0.5,-0.501 l 0.847,-1.828 c 0.738,-0.353 1.482,0.015 1.785,0.541 0.252,0.437 0.445,1.127 -0.061,1.709 m 46.064,-14.579 c -0.765,0.014 -1.418,0.267 -2.074,0.464 -1.257,0.901 -2.909,1.393 -4.417,1.854 0.044,0.154 0.137,0.209 0.257,0.205 3.011,-0.077 5.249,-1.19 7.811,-1.941 1.023,-0.299 2.098,-0.413 3.22,-0.63 0.163,-0.032 0.179,-0.284 0.056,-0.266 l -1.644,0.247 -2.538,-0.223 c -0.072,0.198 0.138,0.345 0.253,0.545 -0.969,0.264 -1.911,0.572 -2.643,0.876 -0.603,0.25 -0.065,-0.266 -0.066,-0.266 0.649,-0.204 1.151,-0.496 1.701,-0.725 0.005,-0.002 0.067,-0.084 0.084,-0.14 m -66.304,-34.683 c -0.005,0.009 -0.122,0.074 -0.146,0.107 -0.225,0.316 -0.433,0.796 -0.672,0.952 -0.402,0.261 -0.785,0.639 -1.304,0.774 -0.095,0.024 -0.243,0.617 -0.338,0.76 -0.058,0.088 -0.197,0.213 -0.32,0.107 -0.232,-0.2 0.024,-0.504 -0.027,-0.71 -0.048,-0.19 -0.263,-0.37 -0.415,-0.374 l -1.507,-0.101 c -0.186,-0.416 0.067,-0.977 0.386,-1.211 0.464,-0.34 1.106,-0.241 1.777,-0.367 0.166,-0.031 0.398,0.297 0.668,0.419 0.191,0.085 0.526,-0.146 0.481,-0.438 -0.062,-0.413 -0.73,-0.25 -0.533,-0.614 0.15,-0.275 0.564,-0.191 0.841,-0.119 0.341,0.086 0.708,0.186 1.046,0.336 0.192,0.086 0.143,0.301 0.063,0.479 m 135.374,59.986 0.039,-1.4 -0.869,-1.743 c -0.031,-0.06 0.183,-0.685 0.143,-0.868 -0.046,-0.205 -0.137,-0.456 -0.276,-0.572 -0.3,-0.249 -0.874,-0.007 -1.015,-0.164 -0.538,-0.6 -1.278,-0.955 -1.943,-1.395 -0.094,-0.061 -0.171,0.16 -0.03,0.245 0.493,0.294 0.938,0.632 1.324,0.993 0.208,0.193 0.521,0.569 0.437,0.73 -0.292,0.553 -0.454,1.351 -0.549,2.154 -0.015,0.125 0.143,0.341 0.285,0.451 0.064,0.048 0.331,0.093 0.43,0.066 0.215,-0.063 0.467,-0.445 0.724,-0.192 0.361,0.354 0.359,0.832 0.424,1.38 0.029,0.242 0.138,0.626 0.462,0.547 0.081,-0.018 0.411,-0.163 0.414,-0.232 m -119.243,-7.238 c -0.343,0.181 -0.58,0.515 -0.881,0.384 -0.297,0.231 -0.777,0.138 -0.951,0.521 -0.639,-10e-4 -1.084,-0.378 -1.251,-0.829 -0.026,-0.071 0.047,-0.473 0.094,-0.494 0.389,-0.173 0.867,-0.331 1.434,-0.119 -0.006,-0.146 -0.094,-0.325 -0.278,-0.424 -0.548,-0.297 -1.229,-0.756 -1.195,-1.49 l 0.456,-2.93 c 0.038,-0.246 0.347,-0.199 0.502,-0.092 0.078,0.054 0.371,0.426 0.35,0.534 -0.086,0.453 -0.325,0.857 -0.478,1.376 0.254,0.679 0.898,1.21 1.22,1.919 0.245,0.536 0.933,1.047 0.978,1.644 m 7.875,12.065 c -0.821,1.618 -2.085,2.712 -3.384,3.601 -0.469,-0.196 -0.888,-0.45 -1.106,-0.817 -0.159,-0.269 0.429,-0.551 0.763,-0.538 0.253,0.01 0.377,-0.301 0.304,-0.571 -0.03,-0.11 -0.405,-0.302 -0.19,-0.498 0.34,-0.309 0.967,-0.334 1.628,-0.179 0.026,-0.128 0.076,-0.437 0.095,-0.453 0.704,-0.636 1.242,-1.532 1.512,-2.67 0.021,-0.092 0.17,-0.21 0.309,-0.127 0.232,0.138 0.485,0.4 0.44,0.587 -0.142,0.581 -0.125,1.179 -0.371,1.665 m -20.427,-60.847 c -0.158,-0.033 -0.678,-0.072 -0.794,-0.167 -0.161,-0.131 -0.297,-0.332 -0.408,-0.483 -0.191,-0.258 -0.592,-0.3 -0.756,-0.083 -0.205,0.272 -0.105,0.64 0.089,1.031 -0.697,-0.15 -1.098,-0.786 -1.346,-1.394 -0.031,-0.077 0.5,-0.8 -0.138,-0.725 -0.023,-0.339 -0.497,-0.558 -0.328,-0.952 0.202,-0.47 0.736,-0.354 1.096,-0.174 0.036,-0.322 0.063,-0.799 0.398,-0.716 0.477,0.119 0.939,0.246 1.315,0.479 0.817,0.503 1.389,1.23 1.175,2.4 -0.03,0.163 -0.239,0.629 -0.303,0.784 m 41.685,33.912 c -0.7,0.395 -1.474,0.466 -2.167,0.709 0.168,0.197 0.343,0.518 0.223,0.594 -0.542,0.348 -1.213,0.458 -1.899,0.628 -0.093,0.022 -0.519,-0.109 -0.662,-0.14 0.076,-0.396 0.022,-1.059 0.264,-1.236 0.291,-0.213 0.335,-0.945 -0.039,-1.247 0.101,-0.445 0.107,-0.928 0.349,-1.235 0.199,-0.253 0.585,-0.09 0.82,0.024 l 3.167,1.431 c 0.386,0.171 -0.047,0.467 -0.056,0.472 m 15.897,5.663 c 0.109,-0.251 0.091,-0.723 -0.17,-0.868 -0.212,-0.118 -1.055,-0.075 -1.369,-0.099 -0.283,-0.777 -0.668,-1.358 -0.81,-2.233 -0.023,-0.14 -0.232,-0.298 -0.406,-0.266 -0.257,0.046 -0.277,0.344 -0.257,0.546 0.015,0.137 0.366,0.587 0.37,0.626 0.066,0.859 0.267,1.621 0.713,2.167 -0.052,0.11 -0.184,0.226 -0.326,0.216 -2.755,-0.194 -6.153,-0.601 -8.991,-1.582 -0.25,-0.086 0.067,0.205 0.146,0.251 0.46,0.274 0.896,0.521 1.279,0.828 l 2.652,0.694 c 1.557,0.296 3.073,0.384 4.594,0.47 0.54,0.03 1.063,-0.095 1.521,-0.199 0.396,-0.089 0.886,-0.166 1.054,-0.551 m -2.589,-11.356 c -0.016,0.026 -0.186,0.131 -0.244,0.151 -1.774,0.625 -3.844,0.815 -5.924,0.81 l -1.769,-0.199 c -0.227,-0.012 -0.64,-0.278 -0.284,-0.378 1.055,-0.293 2.089,-0.76 3.217,-1.233 0.178,-0.076 0.566,0.521 0.915,0.19 0.374,-0.355 0.645,-0.827 0.972,-1.265 1.14,0.373 2.175,0.776 3.026,1.347 0.175,0.118 0.224,0.368 0.091,0.577 m -47.856,-3.334 c -0.438,0.293 -0.908,0.587 -1.45,1.184 -0.385,0.211 -1.077,0.648 -1.155,1.705 -0.53,-0.102 -0.923,-0.351 -1.315,-0.531 -0.296,-0.137 -0.715,-0.327 -0.748,-0.624 0.303,-0.193 0.415,-0.503 0.726,-0.645 0.033,-0.464 -0.099,-0.969 -0.025,-1.484 -0.32,-0.336 -0.218,-0.972 0.212,-1.239 0.245,-0.154 0.621,0.174 1.039,0.375 0.086,0.042 0.263,-0.067 0.199,-0.311 l -0.408,-0.086 c 0,-0.192 0.22,-0.42 0.337,-0.355 0.701,0.385 1.724,0.628 2.454,0.915 0.299,0.119 0.378,0.935 0.134,1.096 m -53.646,-4.725 c 0.451,-0.183 -0.601,-0.264 -0.688,-0.306 -0.343,-0.164 -0.316,-0.401 -0.153,-0.609 0.148,-0.187 0.57,0.228 0.826,-0.142 0.399,-0.573 -0.457,-0.378 -0.609,-0.484 -0.178,-0.125 -0.4,-0.211 -0.415,-0.375 -0.038,-0.419 -0.17,-0.881 -0.091,-1.258 l 1.06,-5.044 c -0.178,-0.077 -0.435,0.007 -0.483,0.186 -0.523,1.953 -1.166,3.778 -1.972,5.519 -0.129,0.924 -0.357,2 -0.787,2.657 -0.11,0.17 -0.361,0.189 -0.432,0.32 -0.08,0.15 -0.161,0.708 -0.148,0.766 0.111,0.505 0.27,1.025 0.855,1.151 0.136,0.029 0.362,-0.237 0.617,-0.279 0.269,-0.044 0.63,0.223 0.792,0.051 0.272,-0.286 0.022,-0.52 -0.148,-0.71 -0.228,0.051 -0.248,-0.208 -0.327,-0.372 -0.214,-0.454 0.317,-0.624 0.557,-0.691 0.474,-0.133 0.962,-0.141 1.546,-0.38 m 128.851,-2.828 0.497,-2.36 c -0.129,-0.724 -0.552,-1.315 -1.178,-1.737 -0.225,-0.152 -0.464,0.135 -0.615,0.028 -0.422,-0.301 -0.389,-0.862 -0.643,-1.363 -0.061,-0.12 0.174,-0.472 -0.054,-0.749 -0.106,-0.128 -0.083,-0.384 -0.26,-0.488 -0.084,-0.048 -0.432,-0.11 -0.51,-0.085 -0.256,0.078 -0.486,0.228 -0.61,0.469 -0.142,0.275 -0.358,0.531 -0.394,0.84 -0.082,0.702 -0.061,1.343 0.3,1.749 0.667,0.217 1.245,0.119 1.733,0.054 0.117,-0.015 0.417,0.243 0.524,0.256 0.188,0.022 0.436,-0.118 0.578,-0.024 0.16,0.104 0.278,0.312 0.297,0.499 0.018,0.183 -0.177,0.344 -0.217,0.533 -0.048,0.233 0.111,0.594 -0.034,0.682 -0.807,0.492 -1.423,1.353 -1.784,2.503 -0.007,0.021 -0.282,0.168 -0.315,0.242 -0.084,0.188 -0.197,0.827 -0.187,1 0.019,0.309 0.029,0.639 0.277,0.819 0.177,0.129 0.386,0.047 0.536,-0.103 0.329,-0.331 0.67,-0.683 1.105,-0.896 0.17,-0.083 0.062,-0.459 -0.104,-0.642 -0.065,-0.071 -0.375,-0.059 -0.322,-0.201 0.13,-0.351 0.485,-0.705 0.503,-1.25 0.58,-0.132 0.14,0.478 0.137,0.694 0.341,0.026 0.702,-0.286 0.74,-0.47 m -63.108,42.128 c -0.444,0.767 -1.064,1.365 -1.917,1.629 -0.254,0.227 -0.738,0.403 -1.273,0.203 -0.195,-0.072 -0.154,-0.31 -0.043,-0.465 0.064,-0.091 0.448,-0.4 0.603,-0.419 0.712,-0.084 1.255,-0.517 1.7,-1.062 0.05,-0.061 0.173,-0.473 0,-0.329 -0.576,0.478 -1.221,0.84 -1.853,1.197 -0.322,0.182 -0.711,0.153 -1.055,0.023 0.055,-0.234 0.051,-0.531 0.216,-0.713 0.208,-0.23 0.505,-0.013 0.723,0.016 0.172,-0.294 0.665,-0.394 0.537,-0.667 -0.168,-0.357 -0.707,-0.481 -0.886,-0.817 -0.383,-0.712 -0.627,-1.449 -0.866,-2.452 0,0.005 -0.008,-0.502 0.061,-0.645 0.059,-0.123 0.286,-0.034 0.381,0.027 0.737,0.477 1.397,0.933 2.398,1.162 l 0.938,1.14 c 0.034,0.04 0.357,0.029 0.391,0.082 0.154,0.243 0.206,0.574 0.217,0.872 0.01,0.239 -0.152,1.01 -0.272,1.218 m 18.682,-31.401 -1.647,1.274 c -0.733,0.612 -1.477,1.442 -2.432,1.732 -0.6,0.182 -1.323,0.297 -2.063,0.298 0.021,-0.225 0.176,-0.356 0.271,-0.515 0.137,-0.231 -0.1,-0.274 -0.258,-0.251 -0.02,0.096 -0.047,0.556 -0.13,0.616 -0.262,0.187 -0.646,0.221 -1.007,0.278 -0.185,0.029 -0.313,-0.317 -0.16,-0.464 0.315,-0.301 0.625,-0.649 0.934,-0.964 0.189,-0.193 0.51,-0.61 0.854,-0.276 0.223,0.217 0.473,-0.022 0.63,-0.222 0.055,-0.07 0.074,-0.528 0.16,-0.663 0.098,-0.157 0.47,-0.204 0.409,-0.512 0.139,-0.068 0.631,-0.233 0.693,-0.337 0.121,-0.203 0.119,-0.975 0.243,-1.155 0.118,-0.17 0.362,-0.275 0.52,-0.477 1.029,0.331 1.913,0.79 2.933,1.132 0.196,0.067 0.21,0.385 0.05,0.506 m -50.525,-11.762 c -0.158,0.265 -0.456,0.135 -0.711,0.07 -0.425,-0.108 -0.852,0.096 -1.306,0.15 -1.768,0.208 -3.797,0.09 -5.79,0.072 -0.127,-0.002 -0.055,-0.289 0.023,-0.367 0.196,-0.201 0.539,-0.176 0.848,-0.132 0.071,-0.269 -0.132,-0.48 -0.272,-0.676 0.196,-0.246 0.204,-0.668 0.494,-0.832 0.913,-0.515 1.911,-0.858 2.958,-1.187 0.036,-0.161 -0.041,-0.337 -0.062,-0.518 -0.031,-0.267 0.283,-0.063 0.389,-0.027 1.559,0.522 2.689,1.311 3.249,2.503 0.133,0.285 0.367,0.63 0.18,0.944 M -9.111,-5.322 c 0.228,0.147 0.299,-0.141 0.245,-0.173 -0.459,-0.268 -0.935,-0.697 -1.779,-0.719 -1.324,-0.525 -2.477,-1.25 -4.24,-1.645 -0.25,-0.056 -0.644,0.231 -1.053,0.192 -0.211,-0.021 -0.828,-0.182 -1.018,-0.222 0.063,-0.214 -0.02,-0.55 0.268,-0.65 0.192,-0.066 0.408,0.035 0.763,0.098 -0.559,-0.752 -1.009,-1.542 -1.556,-2.22 0.198,-0.252 0.607,-0.186 0.966,-0.426 -0.609,-0.785 -1.052,-1.696 -1.413,-2.553 -0.045,-0.107 -0.552,-0.16 -0.631,-0.117 -0.427,0.227 -0.846,0.638 -0.995,1.189 -0.04,0.146 0.169,0.407 0.316,0.502 0.118,0.076 0.595,0.07 0.695,0.146 0.145,0.111 0.259,0.299 0.285,0.46 0.048,0.285 0.084,0.571 0.008,0.835 -0.054,0.184 -0.249,0.748 -0.317,0.811 -0.555,0.512 -0.86,1.124 -1.154,1.922 0.047,0.82 0.639,1.517 1.886,1.736 -0.014,-0.003 0.222,0.038 0.363,-0.092 0.05,-0.045 0.038,-0.344 0.082,-0.393 0.129,-0.136 0.331,-0.386 0.609,-0.338 1.332,0.235 2.886,0.525 3.992,0.406 1.149,0.38 2.129,0.718 3.187,1.007 0.103,0.027 0.398,0.185 0.491,0.244 m -103.742,-32.757 c -0.304,-0.182 -0.042,-0.638 -0.337,-0.635 -0.468,0.005 -0.315,0.914 -0.629,0.837 -0.51,-0.125 -1.048,-0.079 -1.411,-0.261 -1.03,-1.929 -2.64,-3.414 -4.358,-4.794 -0.195,-0.157 -0.236,-0.487 -0.113,-0.721 0.117,-0.222 0.345,-0.303 0.614,-0.13 l -0.263,-0.763 c 2.905,0.967 5.088,2.415 6.501,4.286 0.159,0.21 -0.075,0.785 -0.01,1.188 0.017,0.105 0.271,0.448 0.287,0.579 0.015,0.118 0.004,0.583 -0.281,0.414 m -72.409,-19.339 c -0.203,0.111 -0.39,0.205 -0.526,0.099 -0.195,-0.152 -0.168,-0.473 -0.353,-0.541 -0.24,-0.088 -0.421,0.214 -0.393,0.474 -0.408,-0.086 -0.8,0.116 -1.136,0.042 -0.101,-0.022 -0.265,-0.363 -0.329,-0.407 -0.208,-0.148 -0.426,-0.003 -0.564,0.018 -0.298,0.044 -0.764,0.029 -0.748,-0.343 0.03,-0.632 0.361,-1.376 0.556,-1.909 -0.418,0.286 -0.511,0.7 -0.812,0.942 -0.397,0.317 -0.68,0.907 -0.836,1.605 -0.409,0.111 -1.129,0.081 -1.081,-0.175 0.283,-1.497 0.951,-2.364 1.79,-3.536 -0.135,0.189 0.129,-0.011 0.186,-0.107 0.522,-0.888 1.253,-1.601 1.89,-2.357 0.111,-0.132 0.284,-0.13 0.505,-0.027 0.292,-0.386 0.687,-0.958 1.3,-0.861 l -0.697,2.347 c -0.187,0.69 -0.24,1.525 -0.032,2.156 0.248,-0.152 0.598,-0.512 0.733,-0.382 0.564,0.53 0.488,1.37 0.759,2.056 0.109,0.275 0.024,0.777 -0.212,0.906 m 32.295,21.31 c -0.475,0.595 -0.713,1.4 -1.19,1.888 -0.869,0.889 -1.684,1.857 -2.686,2.693 -0.218,0.182 -0.621,0.404 -1.187,0.595 -0.239,0.081 -0.31,0.649 -0.663,0.851 0.005,-0.128 0.075,-0.436 0.022,-0.529 l -0.731,-1.28 c -0.118,-0.206 -0.85,-0.144 -1.236,0.064 -0.521,0.282 -0.9,0.752 -1.441,0.996 -0.195,0.089 -0.143,-0.17 -0.088,-0.231 l 2.842,-3.345 c 0.422,-0.597 0.905,-1.098 1.361,-1.598 0.617,-0.678 1.331,-1.333 2.387,-1.402 -0.148,0.258 -0.39,0.311 -0.602,0.367 -0.003,0.251 -0.215,0.409 -0.337,0.586 l -2.661,3.848 c 0.068,-0.098 0.047,0.396 0.197,0.261 1.228,-1.102 2.134,-2.685 3.168,-3.821 1.043,-0.604 1.895,-1.21 2.881,-1.618 0.24,-0.098 0.315,0.195 0.302,0.308 -0.056,0.434 -0.292,0.845 -0.338,1.367 M 7.04,0.543 C 7.15,0.555 7.474,0.635 7.562,0.653 7.828,0.336 7.382,0.297 7.281,0.234 6.307,-0.368 5.096,-0.643 3.954,-1.094 2.683,-1.596 1.746,-2.381 0.856,-3.233 0.697,-3.385 0.556,-3.59 0.508,-3.814 0.494,-3.881 0.573,-4.123 0.59,-4.202 l 1.194,0.251 C 1.831,-4.432 1.22,-4.672 0.877,-4.927 c 0.06,-0.274 0.222,-0.53 0.006,-0.677 -0.615,-0.418 -1.253,-0.838 -1.965,-1.133 -0.247,-0.103 -0.612,0.227 -0.797,0.133 -0.46,-0.234 -0.823,-0.503 -1.145,-0.845 -0.153,-0.162 -0.288,-0.669 -0.617,-0.74 -0.115,0.433 -0.005,1.08 -0.191,1.273 -0.56,0.587 -0.448,1.87 0.199,2.23 0.489,0.486 1.029,0.943 1.173,1.654 0.091,0.453 0.378,0.893 0.913,1.056 0.469,0.4 0.836,0.896 1.47,1.334 0.381,-0.013 0.931,-0.147 1.403,-0.09 0.296,0.036 0.39,0.425 0.551,0.404 0.255,-0.032 0.412,-0.231 0.559,-0.424 L 6.831,0.575 C 6.865,0.586 6.999,0.54 7.04,0.543 m -155.423,-48.985 c -0.073,0.182 -0.413,0.188 -0.615,0.078 -1.636,-0.884 -3.317,-1.781 -4.666,-2.892 -0.203,-0.398 -0.534,-0.81 -1.16,-0.936 -0.287,-0.057 -0.418,-0.433 -0.628,-0.49 -0.673,-0.181 -1.199,-0.59 -1.444,-1.096 l -1.388,-0.444 c -0.143,-0.047 -0.351,-0.331 -0.241,-0.483 0.086,-0.119 0.465,-0.397 0.559,-0.377 l 1.591,0.335 c 0.105,0.022 0.172,0.397 0.372,0.276 0.45,-0.273 0.904,-0.632 1.449,-0.775 1.663,0.033 3.107,-0.146 4.55,-0.531 0.416,0.703 0.694,1.451 1.203,1.978 0.179,0.186 0.539,0.049 0.779,0.05 0.155,0.001 0.267,0.086 0.318,0.216 0.189,0.479 0.208,1.036 0.155,1.573 -0.118,1.208 -0.439,2.534 -0.834,3.518 m -1.483,6.002 c -0.23,0.51 -0.438,0.983 -0.789,1.378 -0.181,0.204 -0.589,0.248 -0.981,0.282 -0.212,0.018 -0.519,-0.083 -0.87,0.019 -1.998,0.578 -4.17,1.106 -5.767,2.408 -0.789,0.963 -1.57,2.057 -2.2,3.264 -0.146,0.28 -0.443,0.698 -0.011,0.843 -0.234,0.669 -0.6,1.193 -0.892,1.71 -0.097,0.171 -0.435,0.702 -0.462,0.376 -0.032,-0.371 0.244,-0.699 0.236,-1.084 -0.002,-0.079 -0.199,-0.321 -0.2,-0.403 -0.004,-0.186 0.184,-0.748 0.183,-0.935 -0.007,-1.381 -0.102,-2.668 -0.361,-3.913 -0.476,-2.292 -1.324,-4.388 -2.041,-6.694 -0.011,-0.037 0.113,-0.716 0.022,-0.772 -0.456,-0.286 -0.943,-0.825 -0.985,-1.286 0.484,-0.445 0.872,-0.883 1.429,-0.92 1.724,-0.112 3.401,-0.207 5.274,-0.027 0.205,0.02 0.639,0.046 0.572,0.195 -0.117,0.261 -0.342,0.448 -0.555,0.512 l -5.11,1.415 c 1.437,0.077 2.791,-0.2 3.99,-0.623 l 1.388,-0.592 c 0.996,-0.48 2.056,-0.928 3.493,-0.764 0.228,0.949 0.405,1.926 1.234,2.479 1.218,0.813 2.504,1.542 3.647,2.336 -0.034,0.296 -0.134,0.549 -0.244,0.796 m 36.851,52.356 c -0.627,0.034 -1.268,0.014 -2.049,-0.021 -0.14,-0.007 -0.348,-0.173 -0.091,-0.436 0.05,-0.051 0.224,-0.057 0.343,-0.151 0.399,-0.319 -0.199,-0.302 -0.314,-0.462 -0.186,-0.259 0.006,-0.626 0.092,-0.919 0.042,-0.141 0.395,-0.494 0.44,-0.676 0.676,-2.734 -0.181,-4.64 -0.688,-6.68 -0.091,-0.364 -0.071,-0.782 0.136,-1.049 -0.312,-0.375 -0.576,-0.795 -1.021,-1.051 -0.519,-0.99 -1,-2.034 -1.67,-2.92 -0.334,-0.442 -0.693,-1.028 -0.891,-1.732 0.015,0.053 -0.411,-0.234 -0.399,-0.287 l 0.377,-1.799 c 0.029,-0.138 0.501,-0.506 0.496,-0.706 -0.024,-0.85 0.133,-2.034 0.621,-2.953 1.011,-0.232 1.899,-0.878 2.603,-1.699 -0.034,-0.006 -0.223,-0.064 -0.247,-0.051 l -2.395,1.354 c -0.065,0.038 -0.504,0.003 -0.369,-0.231 0.222,-0.386 0.223,-0.959 0.185,-1.354 -0.952,-1.833 -1.216,-4.153 -1.147,-6.508 0.332,-0.137 0.665,-0.212 0.998,-0.059 -0.084,-0.263 -0.31,-0.482 -0.371,-0.7 -0.049,-0.171 -0.005,-0.385 0.212,-0.428 -0.018,-0.1 -0.147,-0.459 -0.092,-0.512 0.684,-0.67 1.624,-1.071 2.398,-1.502 0.188,-0.105 0.562,0.361 0.611,0.677 l 0.24,1.545 c 0.024,0.162 -0.039,0.394 -0.249,0.399 -0.25,0.005 -1.007,-0.084 -1.259,-0.107 -0.077,0.177 0.004,0.43 0.205,0.499 0.528,0.183 1.16,0.368 1.561,0.614 0.175,0.107 0.38,0.674 -0.001,0.847 -0.755,0.344 -1.664,-0.27 -2.181,-0.736 -0.117,-0.106 -0.257,-0.077 -0.285,0.068 -0.05,0.262 0.382,0.317 0.509,0.705 -0.601,0.541 -1.072,1.694 -0.623,2.714 l 1.562,0.814 c 0.262,0.135 0.491,-0.008 0.669,-0.21 0.1,-0.114 -0.148,-0.354 -0.349,-0.299 -0.054,-0.326 -0.25,-0.565 -0.391,-0.835 -0.15,-0.292 -0.123,-0.669 -0.013,-0.955 0.075,-0.196 0.282,-0.338 0.494,-0.199 1.04,0.686 2.068,1.474 2.681,2.263 0.235,0.302 0.474,0.457 0.544,0.712 0.038,0.137 0.315,0.192 0.381,0.103 0.148,-0.198 0.156,-0.48 -0.07,-0.757 -0.14,-0.171 -0.41,-0.632 -0.161,-1.16 l -0.63,-0.132 c 0.066,-0.115 0.265,-0.11 0.35,-0.191 0.053,-0.049 0.065,-0.318 0.097,-0.36 0.078,-0.105 0.258,-0.244 0.297,-0.133 0.34,0.974 1.177,1.675 1.242,2.769 0.101,1.692 0.015,3.512 -0.115,5.614 0.384,1.654 1.077,3.344 0.898,5.622 -0.87,4.531 -2.126,9.307 -2.724,13.657 -0.08,-0.003 -0.356,-0.021 -0.447,-0.016 m 1.226,-52.779 c -0.032,0.07 -0.29,0.206 -0.463,0.33 -1.193,-0.734 -2.5,-1.535 -4.225,-1.981 -0.648,-0.167 -1.94,-0.295 -2.444,-0.757 0.42,-0.133 0.789,-0.213 0.694,-0.312 -0.316,-0.33 -0.577,-0.781 -0.977,-0.9 -0.594,0.02 -1.019,0.288 -1.317,0.638 -0.13,0.154 -0.37,0.351 -0.626,0.196 -0.325,-0.195 -0.838,-0.22 -0.918,-0.752 -0.029,-0.195 0.451,-0.123 0.494,-0.332 -0.761,-0.56 -1.836,-0.748 -2.613,-0.426 0.005,0.188 -0.002,0.564 -0.252,0.344 -1.173,-1.037 -2.706,-1.899 -3.984,-2.936 -1.105,-0.267 -1.922,-0.928 -3.032,-1.37 0.01,0.004 -0.145,-0.239 -0.211,-0.276 L -136.271,-54 c -0.166,-0.094 -0.405,0.083 -0.318,0.126 0.866,0.433 1.726,0.93 2.454,1.439 0.218,0.153 0.677,0.323 0.494,0.658 -0.158,0.287 -0.519,0.14 -0.709,0.014 -1.055,-0.705 -2.122,-1.45 -3.369,-2.034 -0.267,-0.416 -0.724,-0.74 -1.377,-0.871 -0.258,-0.053 -0.118,-0.417 0.025,-0.554 0.43,0.126 0.826,0.408 1.277,0.548 0.137,-0.306 -0.266,-0.701 -0.148,-0.737 1.052,-0.323 2.024,-0.712 3.342,-0.435 0.239,-0.46 0.79,-0.439 1.322,-0.679 l -0.708,-0.394 c 0.192,-0.22 0.427,-0.185 0.639,-0.23 0.226,0.307 0.599,0.563 0.978,0.489 0.532,-0.105 1.019,-0.332 1.593,-0.414 0.121,-0.017 0.54,0.114 0.679,0.142 0.02,-0.098 0.03,-0.489 0.112,-0.534 0.673,-0.367 1.403,-0.642 2.297,-0.84 0.967,0.503 1.99,0.961 3.153,1.348 2.277,1.338 4.412,2.833 7.915,3.368 1.456,0.222 3.175,0.655 4.177,1.501 0.6,0.506 1.167,1.085 1.238,1.986 0.014,0.172 -0.286,0.379 -0.261,0.556 l 0.239,1.593 c 0.029,0.151 0.368,-0.142 0.538,-0.146 l -0.354,1.684 c -0.031,0.147 -0.598,0.657 -0.706,0.623 -2.845,-0.898 -5.448,-1.959 -8.306,-2.893 -0.025,-0.261 -0.312,0.038 -0.205,0.082 2.419,0.996 4.701,2.049 7.177,3.067 0.428,0.177 1.422,0.288 1.492,0.835 -0.555,-0.077 -1.529,-0.517 -1.763,-0.005 0.934,-10e-4 1.535,0.321 1.747,0.865 0.063,0.161 -0.101,0.801 -0.182,0.979 m -12.636,-0.951 c 0.142,-0.015 0.45,0.031 0.582,0.157 1.01,0.962 2.14,1.977 3.336,2.894 0.164,0.126 0.959,0.106 1.058,0.246 0.37,0.522 0.696,1.124 1.105,1.641 0.305,0.386 0.796,0.891 0.407,1.637 -0.363,-0.154 -0.642,-0.664 -1.123,-0.55 -0.243,0.059 -0.489,0.212 -0.66,0.403 -0.113,0.125 -0.296,0.676 -0.326,0.852 -0.168,1.007 -0.588,1.697 -1.314,2.588 -0.101,0.07 -0.762,0.483 -0.723,1.301 -0.557,0.74 -1.359,1.22 -2.331,1.3 -0.384,0.032 -0.496,0.472 -0.683,0.709 -0.21,0.268 -0.639,0.019 -0.996,-0.041 0.041,-0.323 0.583,-0.371 0.461,-0.654 -0.163,-0.375 -0.585,-0.516 -0.933,-0.629 -0.964,-0.312 -1.839,-0.29 -2.662,-0.245 -0.75,-0.468 -1.006,-1.231 -1.703,-1.717 -0.145,-0.101 -0.354,-0.257 -0.225,-0.427 -0.341,-0.479 -0.731,-0.949 -1.265,-1.272 -0.299,-0.182 -0.178,-0.629 -0.44,-0.908 0.267,-0.809 0.269,-1.547 0.201,-2.24 -0.019,-0.197 0.125,-0.459 0.337,-0.533 0.566,-0.198 1.223,-0.548 1.255,-1.341 0.239,-0.011 0.395,0.166 0.602,0.301 0.229,-0.135 0.048,-0.775 0.292,-0.684 1.449,0.536 2.921,0.861 4.144,1.461 1.068,0.522 1.908,1.18 2.31,2.183 -0.28,0.592 0.016,1.22 0.45,1.598 0.068,0.06 0.627,0.217 0.748,0.168 0.279,-0.112 0.764,-0.187 0.758,-0.513 -0.011,-0.691 -0.224,-1.345 -0.108,-2.194 0.011,-0.079 -0.235,-0.43 -0.315,-0.533 -0.869,-1.14 -2.599,-1.786 -4.463,-2.216 -2.271,-0.523 -4.571,-0.937 -5.837,-2.182 -0.092,-0.091 -0.72,-0.306 -0.927,-0.343 -1.139,-0.206 -2.199,-0.106 -3.284,-0.274 -0.535,-0.083 -1.165,-0.116 -1.578,-0.39 0.074,-0.449 0.697,-0.759 0.459,-0.924 -0.786,-0.543 -1.869,-0.616 -2.502,-0.351 -1.092,-0.141 -2.093,-0.247 -3.156,-0.532 -0.26,-0.071 -0.91,-0.105 -0.693,-0.567 l 0.506,0.106 c 0.003,-0.369 0.06,-0.748 0.059,-1.117 -0.001,-0.246 -0.434,-0.348 -0.403,-0.468 0.151,-0.599 0.318,-1.098 0.651,-1.459 l 0.712,-3.361 c 0.054,-0.243 0.8,-0.082 1.184,-0.043 0.108,0.012 0.498,0.18 0.625,0.25 0.205,0.11 0.375,0.014 0.307,-0.244 -0.326,-0.027 -0.747,-0.113 -0.901,-0.463 -0.055,-0.124 -0.031,-0.655 0.043,-0.785 0.068,-0.119 0.306,-0.169 0.444,-0.122 0.845,0.284 1.693,0.627 2.392,1.095 0.23,0.155 0.563,0.235 0.686,0.551 0.435,1.104 1.293,2.083 2.927,2.48 1.005,0.614 2.274,1.14 3.269,1.699 1.151,1.349 2.276,2.536 4.331,3.113 2.062,1.071 3.415,2.544 4.786,4.087 -0.192,-0.038 -0.43,-0.134 -0.519,-0.049 0.672,0.761 1.164,1.625 2.1,2.177 0.202,0.12 0.548,0.279 0.759,0.051 0.112,-0.121 -0.021,-0.249 -0.216,-0.407 -0.12,-0.099 -0.816,-0.081 -0.627,-0.529 l 1.982,0.582 c -0.147,-0.392 -0.546,-0.711 -0.892,-0.777 -0.51,-0.097 -0.961,-0.331 -1.343,-0.566 -1.285,-0.788 -2.086,-2.034 -3.12,-2.98 m 86.032,22.005 c 0.085,0.026 0.349,0.09 0.446,0.111 0.353,-0.478 -0.37,-0.347 -0.517,-0.413 -4.613,-2.063 -10.14,-3.343 -15.014,-5.161 -3.292,-1.583 -6.952,-2.853 -10.651,-4.238 -0.352,-0.456 -0.898,-0.855 -1.734,-1.098 -1.449,-0.423 -2.648,-1.126 -3.794,-1.849 -0.463,-0.291 -0.81,-0.627 -1.193,-1.172 -0.076,-0.107 -0.102,-0.454 -0.472,-0.613 l -8.139,-3.519 c -1.573,-0.56 -3.053,-1.07 -4.883,-1.442 -0.134,-0.027 -0.239,-0.392 -0.545,-0.355 -1.434,0.17 -2.958,0.072 -4.316,0.441 -0.134,-0.38 0.349,-0.49 0.567,-0.586 1.365,-0.594 2.904,-0.967 4.087,-1.829 0.419,-0.304 0.837,-0.736 1.058,-1.299 0.058,-0.144 0.03,-0.288 -0.076,-0.377 -0.235,-0.197 -0.499,0.02 -0.621,0.25 -0.084,0.155 -0.162,0.559 -0.437,0.482 -0.592,-0.165 -1.176,-0.246 -1.863,-0.157 -0.898,0.563 -1.534,1.674 -2.44,2.495 -0.439,0.397 -1.002,0.594 -1.477,0.936 -0.19,0.136 -0.57,0.776 -0.756,0.908 -0.977,0.692 -1.986,1.376 -3.209,1.622 -0.324,0.066 -0.811,-0.173 -1.169,0.151 -0.71,0.645 -1.908,1.129 -3.334,0.907 -0.107,0.349 0.254,0.33 0.428,0.329 0.414,-0.002 0.813,0.098 1.201,0.015 l -0.094,0.448 c -0.64,0.008 -1.298,0.146 -1.968,0.066 l -2.586,-0.535 c -0.106,-0.022 -0.255,-0.241 -0.108,-0.359 0.073,-0.06 0.501,-0.104 0.607,-0.125 0.038,-0.276 0.287,-0.629 -0.005,-0.767 -0.811,-0.389 -1.549,-0.074 -1.808,0.421 -0.168,0.326 -0.651,0.256 -0.974,0.121 l -2.767,-1.135 c -0.215,-0.084 -0.308,-0.547 -0.189,-0.712 0.382,-0.53 0.478,-1.442 0.42,-2.003 -0.028,-0.275 0.563,-0.451 0.907,-0.379 0.355,0.073 0.552,0.6 0.874,0.568 0.332,-0.033 0.474,-0.511 0.82,-0.566 0.159,-0.025 0.69,0.112 0.832,0.208 0.168,0.111 0.24,0.408 0.462,0.477 0.185,-0.193 0.221,-0.555 0.027,-0.715 -0.115,-0.096 -0.726,-0.153 -0.938,-0.197 0.177,-0.378 0.619,-0.633 0.998,-0.683 0.136,-0.379 0.037,-0.771 -0.064,-1.111 -0.11,-0.367 0.213,-0.816 0.048,-1.241 -0.082,-0.212 -0.299,-0.314 -0.482,-0.358 -0.164,-0.039 -0.48,-0.035 -0.523,0.106 -0.165,0.536 -0.678,0.874 -1.109,0.947 -0.819,0.505 -1.706,0.923 -2.572,1.25 -0.54,-0.136 -0.964,-0.608 -1.368,-0.909 l 0.355,-0.513 c -0.298,-0.331 -0.473,-0.797 -0.304,-1.316 0.065,-0.2 -0.08,-0.464 -0.007,-0.628 0.054,-0.121 0.185,-0.243 0.321,-0.148 0.25,0.174 0.448,0.426 0.681,0.657 0.132,0.133 0.221,-0.306 0.185,-0.476 -0.045,-0.218 -0.564,-0.864 -0.653,-1.106 -0.275,-0.754 -0.382,-1.686 -0.162,-2.758 0.056,-0.269 -0.351,-0.497 -0.485,-0.647 -1.201,-1.34 -2.852,-2.258 -4.45,-3.244 -0.202,-0.125 -0.911,-0.345 -1.148,-0.387 -0.864,-0.159 -1.697,-0.176 -2.585,-0.413 -3.559,-0.948 -6.379,-2.384 -9.163,-3.871 -0.319,-0.171 -0.654,-0.343 -0.97,-0.434 -0.247,-0.07 -0.225,-0.345 -0.115,-0.435 0.806,-0.665 1.748,-1.105 2.736,-1.64 0.382,0.31 0.918,0.247 1.249,-0.037 0.689,-0.591 1.482,-1.184 2.388,-1.276 0.197,-0.021 0.091,-0.418 -0.054,-0.582 -0.314,-0.352 -0.618,-0.822 -1.156,-1.023 -0.486,-0.182 -0.964,-0.477 -1.527,-0.534 -2.334,-0.237 -4.216,0.248 -6.07,0.795 -2.66,0.41 -5.676,0.313 -8.349,0.619 -0.177,0.021 -0.566,-0.118 -0.762,-0.159 -0.096,0.467 0.657,0.447 0.988,0.471 1.082,0.079 2.206,0.197 3.071,0.096 0.22,-0.026 0.284,0.428 0.04,0.402 -0.952,-0.106 -1.775,0.348 -2.757,0.34 -0.87,-0.008 -1.856,-0.101 -2.738,-0.149 -0.148,-0.007 -0.24,-0.23 -0.194,-0.248 -0.699,0.27 -1.314,-0.015 -1.896,-0.123 0.023,-0.11 0.056,-0.536 0.13,-0.619 0.17,-0.19 0.477,-0.454 0.646,-0.393 0.455,0.163 0.9,0.402 1.316,0.53 0.243,0.074 0.394,-0.347 0.278,-0.424 -0.344,-0.229 -0.947,-0.283 -1.486,-0.421 l 1.189,-2.157 c 0.118,-0.214 0.501,0.202 0.724,0.188 -0.08,-1.559 -1.119,-2.607 -2.322,-3.415 -0.468,-0.315 -0.951,-0.652 -1.511,-0.849 -2.657,-0.93 -4.543,-0.139 -6.503,0.254 -1.22,0.245 -2.417,0.551 -3.463,1.112 -0.534,0.286 -1.053,0.586 -1.593,0.835 -0.146,0.068 -0.39,-0.02 -0.402,-0.231 -0.012,-0.191 0.034,-0.772 0.045,-0.999 -0.332,-0.032 -0.505,0.474 -0.587,0.433 -0.594,-0.294 -1.285,-0.008 -1.535,-0.427 -0.125,-0.594 -0.09,-1.095 -0.282,-1.534 -0.123,-0.284 -0.323,-0.57 -0.646,-0.738 -0.412,-0.215 -0.819,-0.48 -1.298,-0.617 -0.121,-0.664 -0.77,-0.966 -1.412,-1.21 l -2.605,-0.552 c -0.735,-0.083 -1.47,-0.021 -2.257,-0.177 -0.309,-0.062 -0.802,0.066 -0.911,0.267 -0.433,0.803 -1.362,0.897 -2.201,1.019 -0.686,0.1 -1.252,0.455 -1.776,0.774 -0.164,0.099 -0.932,-0.178 -0.872,-0.19 -1.283,0.261 -2.292,0.764 -2.88,1.997 0.027,-0.057 0.029,0.596 -0.062,0.772 -0.057,0.113 -0.313,0.043 -0.406,-0.09 -0.337,-0.486 -0.783,-0.95 -0.954,-1.542 -0.099,-0.344 0.162,-0.635 0.456,-0.851 0.583,-0.429 1.205,-0.804 1.936,-0.986 0.203,-0.05 0.464,0.198 0.652,0.017 0.139,-0.137 0.123,-0.319 0.168,-0.488 -1.162,-0.342 -1.778,0.388 -2.51,0.76 -0.367,0.186 -0.702,0.498 -1.182,0.714 -0.312,-0.534 -0.42,-1.225 -0.485,-1.927 -0.065,-0.707 -0.231,-1.436 -0.269,-2.155 -0.015,-0.298 0.239,-0.463 0.439,-0.478 2.465,-0.176 4.707,-0.653 7.076,-0.829 0.275,-0.021 -0.109,-0.193 -0.142,-0.195 l -10.815,-0.873 c -1.39,-0.013 -2.684,0.384 -3.543,1.242 -1.049,1.048 -0.625,2.75 -0.407,3.902 0.436,2.302 0.526,4.707 0.388,7.322 -0.031,0.555 -0.625,0.884 -1.093,0.94 -0.302,0.037 -0.592,-0.177 -0.852,0.031 -2.083,1.665 -3.83,3.906 -5.485,6.265 -0.82,1.171 -1.841,2.189 -2.542,3.606 -0.113,0.228 -0.242,1.032 -0.227,1.199 0.056,0.656 0.252,1.17 0.604,1.55 0.099,0.106 0.362,0.134 0.432,-0.066 0.455,-1.28 1.638,-1.728 2.666,-2.229 0.357,-0.175 0.761,-0.238 1.133,-0.333 0.249,-0.063 0.53,0.231 0.727,0.727 0.075,-0.549 0.74,-0.876 1.14,-0.821 0.384,0.054 0.793,-0.017 1.183,-0.102 0.288,-0.062 0.401,0.234 0.496,0.422 0.2,0.391 0.162,0.832 0.046,1.223 -0.77,2.602 -1.678,4.932 -2.382,7.594 -0.106,0.399 0.121,0.994 0.318,1.159 0.908,0.761 1.414,1.659 2.323,2.276 l -0.38,1.809 c -0.038,0.181 -0.59,0.406 -0.537,0.746 0.015,0.095 0.267,0.376 0.259,0.447 -0.061,0.532 -0.19,0.979 -0.311,1.385 0.302,-0.398 0.474,-0.859 0.91,-1.013 0.078,-0.028 0.233,0.178 0.2,0.301 -0.151,0.573 -0.355,1.123 -0.255,1.633 0.057,0.293 -0.165,0.883 -0.393,1.122 -0.35,0.367 -0.333,0.983 -0.76,0.911 -0.728,-0.123 -1.33,-0.157 -1.789,-0.451 -2.574,-0.099 -4.634,0.608 -6.726,1.166 -0.669,-0.247 -1.279,-0.627 -1.988,-0.654 -1.259,-0.05 -2.606,-0.053 -3.674,0.164 -0.107,-0.139 -0.268,-0.38 -0.303,-0.394 -0.621,-0.265 -1.173,-0.111 -1.493,0.182 l -1.649,0.432 c -0.401,0.105 -0.778,0.432 -1.043,0.757 -0.341,0.418 -0.639,0.916 -0.931,1.43 -0.234,1.059 -0.832,1.803 -1.066,2.854 -0.2,0.899 0.197,1.494 0.492,2.084 0.483,0.968 0.831,2.029 0.942,3.164 0.12,1.222 0.044,2.455 0.255,3.57 0.218,1.154 0.902,2.062 1.549,2.941 l 2.555,3.775 c 1.539,1.056 3.238,2.079 4.756,3.154 0.496,0.351 1.103,0.574 1.729,0.747 1.808,0.504 3.528,0.668 5.063,0.541 1.942,-0.162 3.657,-0.932 4.34,-2.578 1.352,-1.726 2.71,-3.02 4.396,-3.715 1.275,-0.525 2.668,-0.769 4.071,-1.083 l 2.268,-0.526 c 0.08,-0.018 0.32,-0.187 0.362,-0.258 0.053,-0.089 0.088,-0.437 0.093,-0.44 0.854,-0.525 1.564,-1.125 2.639,-1.48 0.993,0.592 2.097,1.356 3.523,1.746 1.184,0.324 2.423,0.468 3.506,0.505 0.15,-0.252 0.088,-0.496 -0.149,-0.607 -1.262,-0.59 -2.8,-0.859 -3.836,-1.551 -0.168,-0.113 -0.359,-0.271 -0.377,-0.515 0.933,0.189 1.296,0.752 2.091,0.895 1.696,0.306 2.909,0.924 3.866,1.69 0.456,0.366 1.266,0.552 2.01,0.638 -0.002,0.139 -0.066,0.205 0.003,0.183 -0.507,0.161 -1.163,0.058 -1.924,0.296 1.63,0.558 3.443,1.102 4.739,0.842 0.342,-0.069 0.705,-0.254 0.812,-0.495 0.244,-0.55 -0.01,-1.022 -0.275,-1.276 -0.248,-1.274 -0.632,-2.313 -0.941,-3.518 -0.024,-0.094 -0.026,-0.372 0.222,-0.459 4.453,-1.553 8.795,-3.306 13.017,-5.411 0.101,-0.517 0.249,-0.903 0.617,-1.206 1.248,-1.027 1.943,-2.729 2.699,-4.522 0.099,-0.236 0.194,-0.498 0.342,-0.691 0.356,-0.465 0.851,-0.728 1.344,-0.99 0.168,-0.09 -0.283,-0.394 -0.492,-0.484 -0.83,-0.36 -1.493,-0.086 -2.093,0.549 -0.395,0.978 -0.774,2.432 -1.33,3.514 -1.39,1.701 -3.426,2.442 -5.216,3.54 l -2.544,1.186 c -1.188,0.715 -2.287,1.567 -3.581,2.086 -0.931,0.373 -1.757,1.008 -2.85,1.082 -0.225,0.014 -0.41,-0.134 -0.453,-0.347 -0.189,-0.909 -0.388,-1.854 -0.496,-2.921 -0.009,-0.099 0.079,-0.898 0.24,-0.965 2.014,-0.843 4.004,-1.883 5.844,-3.055 0.088,-0.056 0.061,-0.502 0.12,-0.573 l 2.553,-2.959 c 1.352,-1.268 2.321,-3.048 3.355,-4.614 0.165,-0.25 0.637,-0.251 0.858,-0.204 l 3.452,0.715 c 2.153,0.794 3.943,1.975 5.732,3.099 0.153,0.096 0.308,0.302 0.29,0.488 -0.146,1.457 -0.021,2.714 0.447,3.829 0.511,0.271 1.049,0.444 1.171,0.752 0.066,1.198 0.247,2.211 0.814,3.18 0.876,0.546 1.65,1.463 1.908,2.504 0.069,0.277 -0.18,0.405 -0.329,0.439 -0.063,0.015 -0.326,-0.106 -0.398,-0.071 -0.811,0.393 -1.416,1.342 -1.507,2.451 -0.717,1.498 -1.501,2.642 -2.326,3.653 -0.248,0.972 0.126,1.702 0.777,2.119 0.838,0.536 1.374,1.404 2.04,2.094 0.313,0.324 0.757,0.446 1.168,0.424 0.2,-0.011 0.518,-0.17 0.425,-0.494 -0.018,-0.062 -0.25,-0.335 -0.265,-0.434 -0.016,-0.122 0.108,-0.512 0.14,-0.662 0.53,0.15 0.993,0.432 1.513,0.668 0.473,1.059 1.326,1.976 2.089,2.743 0.344,0.345 0.408,0.97 0.334,1.325 l -0.453,2.155 c -0.545,0.797 -1.089,1.526 -1.305,2.681 -0.128,0.684 0.215,1.256 0.567,1.807 -0.303,1.418 0.385,2.534 1.36,3.057 1.495,1.98 3.158,3.723 3.845,6.047 0.203,0.684 0.513,1.41 0.887,1.999 0.054,0.089 -0.145,0.587 -0.13,0.716 0.036,0.316 0.053,0.658 0.244,0.868 0.196,0.216 0.507,0.206 0.757,0.102 0.643,-0.264 1.169,-0.907 1.301,-1.787 0.666,-0.595 1.225,-1.339 1.795,-1.924 -0.222,-0.137 -0.419,-0.021 -0.529,0.07 -0.545,0.456 -0.818,0.943 -1.222,1.289 -0.265,0.227 -0.726,0.347 -0.854,0.112 -0.316,-0.58 -0.69,-1.162 -0.888,-1.781 -0.109,-0.341 -0.377,-0.775 -0.54,-1.189 -0.425,-1.082 -0.855,-2.008 -1.12,-3.261 -0.058,-0.28 0.299,-0.693 0.534,-0.859 0.847,-0.602 1.662,-1.283 2.283,-2.143 0.607,-0.837 1.238,-1.822 1.5,-2.916 0.065,-0.274 0.434,-0.195 0.514,-0.094 0.302,0.387 0.303,0.983 0.749,1.326 0.177,-0.095 0.378,-0.405 0.521,-0.175 0.298,0.483 0.576,1.006 1.097,1.446 0.041,0.615 -0.198,1.533 0.007,2.157 0.028,0.084 0.184,0.324 0.202,0.443 0.049,0.312 -0.118,0.721 0.092,1.037 0.092,0.139 0.219,0.067 0.314,-0.05 -0.091,-0.235 -0.213,-0.587 0.022,-0.836 0.18,0.226 0.645,0.113 0.753,0.292 0.545,0.9 0.999,1.902 1.119,3.049 0.048,0.462 -0.011,0.954 -0.105,1.507 -0.286,0.412 -0.6,0.926 -0.534,1.534 -0.584,0.68 -1.501,0.896 -2.46,1.099 -0.16,0.033 0.199,-0.318 0.322,-0.446 0.285,-0.296 0.704,-0.468 1.037,-0.785 -0.735,-0.071 -1.372,0.402 -1.807,0.989 l -0.283,1.348 c 0.228,0.765 0.491,1.396 0.863,2.123 -0.277,0.573 -0.717,1.078 -0.722,2.005 -0.002,0.24 0.084,0.633 0.344,0.878 0.29,0.273 0.712,0.529 1.019,0.39 0.451,-0.203 0.899,-0.464 1.228,-0.808 0.24,-0.25 0.814,-0.139 1.027,-0.475 0.094,-0.15 0.127,-0.807 0.239,-0.936 0.108,-0.125 0.323,-0.197 0.506,-0.165 1.776,0.312 3.516,0.778 5.096,1.174 0.709,0.178 1.374,-0.266 1.704,-0.746 0.087,-0.126 0.016,-0.437 -0.045,-0.566 -0.282,-0.586 -0.682,-1.062 -0.953,-1.369 -0.284,-0.32 -0.485,-1.253 -0.452,-1.651 l 0.549,-5.325 c 0.487,-2.757 1.058,-5.439 0.984,-7.75 -0.173,-0.533 0.027,-1.106 -0.24,-1.7 -0.003,-0.006 0.013,-0.326 0.043,-0.111 -0.194,-1.43 -0.273,-2.558 -0.446,-3.677 0.211,-3.621 -0.483,-6.857 -1.594,-9.691 -0.229,-0.586 -0.537,-1.228 -0.582,-1.623 -0.917,-1.129 -1.672,-2.228 -2.361,-3.19 -0.06,-0.084 0.094,-0.446 0.118,-0.561 0.262,0.025 0.602,0.11 0.782,-0.141 0.396,-0.544 1.34,-0.318 1.985,-0.23 0.464,-0.391 0.864,-0.628 1.419,-0.803 0.027,0.37 0.173,1.054 0.097,1.499 0.226,0.036 0.415,-0.231 0.485,-0.439 0.215,-0.649 0.304,-1.284 0.328,-1.888 2.42,-0.747 4.706,-1.653 7.002,-2.373 0.192,-0.06 0.55,0.115 0.678,0.143 0.313,-0.483 -0.429,-0.318 -0.506,-0.379 -0.17,-0.135 -0.341,-0.354 -0.156,-0.44 l 2.647,-1.235 c 0.896,0.148 1.655,0.579 2.595,0.688 1.132,0.131 2.158,0.06 3.357,0.242 0.342,-0.462 -0.39,-0.375 -0.646,-0.388 -1.119,-0.06 -2.531,-0.411 -3.86,-0.728 -0.173,-0.041 -0.401,-0.168 -0.404,-0.366 -0.002,-0.123 0.155,-0.198 0.278,-0.218 0.537,-0.083 1.136,-0.084 1.763,0.021 0.113,0.02 0.284,-0.102 0.342,-0.222 l -0.855,-0.179 c 0.504,-0.633 1.362,-0.799 2.034,-1.045 -0.051,-0.178 -0.126,-0.177 -0.401,-0.136 -1.432,0.214 -2.928,0.626 -4.174,1.075 -1.803,-0.202 -3.759,-0.536 -5.38,-1.153 -0.137,-0.052 -0.009,-0.624 -0.477,-0.798 0.211,-0.494 0.762,-0.708 1.103,-0.977 0.197,-0.155 0.053,-0.739 0.349,-0.754 0.343,-0.019 0.692,-0.454 0.91,-0.408 l 3.932,0.826 c -0.049,0.377 -0.447,0.735 -0.351,0.987 0.196,0.519 0.67,0.853 1.423,0.854 0.161,0 0.455,-0.105 0.646,-0.259 0.187,-0.15 -0.091,-0.419 0.199,-0.571 0.243,-0.127 0.363,-0.623 0.576,-0.613 3.845,0.177 7.296,-0.433 10.479,-1.279 0.327,-0.088 0.685,-0.117 1.003,-0.188 0.373,-0.084 0.721,-0.397 0.943,-0.646 0.32,-0.36 0.051,-0.762 -0.189,-1.025 -0.398,-0.435 -1.013,-0.67 -1.715,-0.822 -0.256,-0.054 -0.314,0.414 -0.18,0.476 0.377,0.175 0.675,0.658 0.59,1.13 -0.082,0.45 -0.606,0.672 -1.049,0.81 -0.134,0.042 -0.276,0.267 -0.592,0.153 0.408,-0.572 0.223,-1.346 -0.341,-1.801 -0.021,-0.017 -0.009,-0.165 0.209,-0.342 0.365,-0.3 -0.505,-0.448 -0.81,-0.573 -0.165,-0.067 -0.695,-0.133 -0.818,-0.23 -0.168,-0.132 -0.333,-0.312 -0.427,-0.478 -0.135,-0.237 0.162,-0.292 0.217,-0.32 0.619,-0.324 1.265,-0.398 1.975,-0.325 5.472,0.564 10.027,2.76 13.8,4.915 0.272,0.512 0.906,0.585 1.166,1.132 0.223,0.47 0.453,1.103 1.029,1.317 0.296,0.11 0.276,-0.171 0.253,-0.289 -0.023,-0.123 0.054,-0.412 0.175,-0.335 5.455,3.473 12.458,6.02 19.565,8.48 l 12.151,3.803 z"
         style="fill:#000000;fill-opacity:1;fill-rule:nonzero;stroke:none"
         id="path38836" />
    </g>
  </g>
</svg>
